<?xml version="1.0" encoding="utf-8"?>
<!-- Generator: Adobe Illustrator 23.0.3, SVG Export Plug-In . SVG Version: 6.00 Build 0)  -->
<svg version="1.1" xmlns="http://www.w3.org/2000/svg" xmlns:xlink="http://www.w3.org/1999/xlink" x="0px" y="0px"
	 viewBox="0 0 600 601.7" style="enable-background:new 0 0 600 601.7;" xml:space="preserve">
<style type="text/css">
	.st0{display:none;fill:#ECD1B6;}
	.st1{opacity:0.2;}
	.st2{fill:#FFFFFF;}
</style>
<g id="Background">
</g>
<g id="Objects">
	<rect x="-30" y="-11" class="st0" width="841" height="700"/>
	<g class="st1">
		<path class="st2" d="M127.2,233.5c0.7,0.6,1.8-0.4,1.1-1.1c-0.6-0.7-1.4-1.1-2.2-1.5c-0.8-0.4-2.9-1.1-2.3-2.3
			c0.3-0.8,2.1-0.9,2.8-1c1.2-0.2,2.4-0.2,3.5-0.6c0.8-0.2,0.9-1.6,0-1.7c-1.7-0.3-3.6,0-5.3,0.4c-1.2,0.3-2.5,0.8-3,2.1
			c-0.5,1.3,0,2.6,1,3.5C123.9,232.5,125.8,232.4,127.2,233.5z"/>
		<path class="st2" d="M590.3,254.9c-5.9-10.6-14.2-20.1-24.6-26.5c-0.4-0.3-0.9-0.1-1.3,0.2c5.4-9.8,10.7-19.7,16.1-29.5
			c0.6-1-0.1-2.3-1.3-2.3c-10.9-0.3-19.6-7.2-28.1-13.5c0.4-0.1,0.8-0.4,0.8-0.9c1-5.4-0.1-11.5-0.8-16.8
			c-0.7-5.6-1.8-11.2-3.2-16.7c-2.9-11.4-7.4-22.4-13.5-32.4c-11-18-27.6-32.7-47.3-40.4c-5.5-2.2-11.3-3.7-17.2-4.6
			c-5.4-0.8-12.6-1.8-17.6,1.2c-2.4-8-4.9-15.9-7-23.9c-0.2-0.8-1-1.1-1.8-1c-12.3,1.9-24.7,2.5-37.1,3.5c0.2-0.4,0.3-1,0-1.5
			c-9.2-20.5-27.1-36.6-48-44.5c-21.7-8.3-46.1-6.4-66.9,3.9c-11.6,5.8-22,14.1-29.4,24.8c-8.5-3.1-16.8-6.8-20.7-15.5
			c-0.4-1-1.8-0.8-2.3,0c-2.5,3.9-5.2,7.7-8.1,11.3c-0.1-0.4-0.3-0.8-0.7-1c-10.8-6.5-24.9-9.1-37.4-9.6c-12.2-0.5-24.5,1.4-36,5.6
			c-22.6,8.2-40.8,25.4-50.1,47.5c-5.1,11.9-7.5,25.1-6,38c-0.5,0.1-1,0.1-1.5,0.2c-6.5,0.9-13.6,2.1-19.7-0.8
			c-1.1-0.5-2.1,0.3-1.9,1.5c1.1,7.6,0.9,15.1,0.2,22.7c-0.2-0.1-0.5,0-0.8,0c-12.9,4.1-25.9,8.5-37.6,15.5
			c-10.9,6.6-20.1,15.5-26.7,26.4c-14.5,23.9-15.9,54-8.2,80.5c3.5,11.9,9.6,25.3,20.2,32.5c-4.6,6.8-9.9,13-16.8,17.6
			c-0.7,0.5-1.1,1.6-0.3,2.3c6.5,5.3,12.1,11.4,17.4,17.8c-9.5,8.2-14,20.8-17.4,32.6c-4,13.7-6.2,28.1-4.4,42.3
			c0.8,6.9,2.6,13.6,4.6,20.3c1.8,6.1,3.7,12.2,6.8,17.7c6.1,10.7,16.5,18.2,26.9,24.4c11.6,7,26.9,13.9,40.8,9.9
			c0.1,0,0.1,0,0.2-0.1c1.5,8.5,2.9,17.1-0.1,25.2c-0.4,1,0.8,1.9,1.7,1.7c7.2-1.7,14.7,0.9,21.6,2.8c1.8,0.5,3.6,1,5.4,1.5
			c-5.2,24.5,5.9,50.1,24.9,65.7c20.4,16.8,47.5,22.4,73.3,18.3c7.9-1.3,15.7-3.5,23.2-6.4c5.8-2.3,11.8-4.9,15.7-9.8
			c2.5,3.1,4.9,6.2,7.1,9.6c0.4,0.6,1.2,0.9,1.8,0.5c5-3.7,10.3-6.7,15.8-9.6c15.7,19.9,42.3,27,66.6,28.7c13.2,0.9,26.3-0.2,38.7-5
			c11-4.2,21.1-10.7,29.6-18.9c9.5-9.2,16.8-20.5,21.1-33c0.2-0.6,0.1-1-0.2-1.4c6.5,1.2,13.1,2.4,19.6,3.5c0.8,0.1,1.5-0.2,1.7-1
			c2-7.5,4.3-15.1,6.5-22.8c46.3,4.3,85.4-34.4,95.3-77.2c3.1-13.4,3.8-27.5,1.7-41.1c-0.1-0.3-0.2-0.6-0.4-0.8
			c5.1-1.6,10.4-2.9,15.8-3.7c1-0.1,1.5-1.5,0.9-2.3c-6.3-8.9-10.3-18.9-13.9-29.1c0.1,0,0.2,0,0.2-0.1
			c19.8-8.5,32.8-28.2,39.2-48.1C602.6,298.7,601.5,275.4,590.3,254.9z M576.7,199.6c-6.4,11.8-12.8,23.5-19.2,35.3
			c-5.6,10.3-11.3,20.7-18.4,30.2c-14.1,18.9-36.8,35.2-61.6,29.7c0,0-0.1,0-0.1,0c0.1-3.8,0-7.6-0.2-11.4
			c19.7,1.5,37.8-9.6,52.4-21.7c7.9-6.5,12.9-13.9,17.2-23.2c5.1-10.9,10.2-21.8,15.2-32.7c0.5-1,0.1-2-1-2.4
			c-19.3-6.7-36.1-19.3-55.9-24.9c-18.1-5.2-40.3-4-56.2,6.9c0,0-0.1,0.1-0.1,0.1c-2.5-4.1-5.1-8.1-8-11.9c0.1-0.1,0.2-0.1,0.4-0.2
			c0.9-0.7,1.7-1.5,2.5-2.3c22.4-8.2,47.4-9.3,70.4-2.7c11.9,3.4,23.2,8.8,33.3,16.1C556.6,190.9,565.5,198.4,576.7,199.6z
			 M564.3,257.7c3.3,3.7,6,8,8.2,12.5c4.7,9.8,6.8,20.8,6.2,31.6c-1.2,20.1-12.2,38.2-28.7,49.4c-1.7-4.4-3.5-8.8-5.6-13.1
			c14.2-7.2,24-21.9,24.9-37.8c0.9-16.1-8-33.3-22.8-40.5c2.5-3.8,4.8-7.6,7.1-11.5C557.1,251.7,561,254.1,564.3,257.7z
			 M563.4,252.1c4.9-2.9,9.6,3,6.6,7.5C568,256.9,565.8,254.3,563.4,252.1z M574.9,327.7c1.1-2.1,2-4.3,2.8-6.5
			c0.5,0.5,1.1,0.8,1.7,1c0.4,0.8,0.6,1.7,0.5,2.7c-0.1,1-1.1,3.5-2.4,4.5C576.8,328.7,575.9,328.1,574.9,327.7z M576.5,335.7
			c-2,3.1-4.4,1.2-6.1-0.4c1.1-1.6,2.1-3.3,3-5c0.8,0.7,1.9,1.1,2.9,1.2C577.3,332.7,577.5,334.2,576.5,335.7z M578.5,318.9
			c0.7-2.1,1.3-4.3,1.8-6.5c0.3,0.1,0.7,0.2,1,0.3c0.2,0.1,0.3,0.2,0.5,0.3c2,1.4,2.6,2.8,1.8,5.1c-0.6,1.7-1,2.4-2.9,2.1
			C579.9,319.9,579.2,319.5,578.5,318.9z M582,310.4c-0.4-0.2-0.7-0.4-1.1-0.6c0.5-2.6,0.8-5.2,0.9-7.9c0.1,0,0.1,0,0.2,0
			c0.2,0,0.4,0,0.7-0.1c0.9,0.6,1.6,1.3,2.1,2.4C586.2,306.9,584.8,310.9,582,310.4z M582,299.6c0,0-0.1,0-0.1,0
			c0.1-2.7,0-5.4-0.3-8.1c1.4,0.5,3.1,1.3,3.9,2.5C588.3,298.1,584.8,299.5,582,299.6z M581.3,289.1c-0.3-2.4-0.8-4.8-1.4-7.2
			c0.1,0,0.3,0,0.4-0.1c0.6-0.3,1.1-0.6,1.6-1C587.4,281,587.7,290,581.3,289.1z M579.4,279.8c-0.9-3.3-2.1-6.6-3.5-9.7
			c2.4-0.2,4.9,1,5.7,3.6C582.3,276.1,581,278.2,579.4,279.8z M576.5,264.1c-0.2,1.7-0.7,2.6-1.9,3.5c-0.9-1.9-2-3.8-3.3-5.8
			c0.2-0.3,0.5-0.5,0.7-0.8c0.8-0.2,1.6-0.4,2.4-0.5C576.5,261.1,577.2,262.4,576.5,264.1z M558.2,349c1.5-1.2,2.8-2.5,4.2-3.9
			c0,0,0,0,0,0c1.7,1.5,2.4,3.3,0.9,5.2C561.3,352.8,559.1,351.3,558.2,349z M556.9,356.6c-2.3,1.3-4.4-0.8-5.1-2.8
			c1.5-1,3.1-2.1,4.5-3.2c0.3,1.1,1.1,2,2,2.6C558.5,354.5,558.1,355.9,556.9,356.6z M563.9,343.7
			C563.9,343.6,563.9,343.6,563.9,343.7c1.7-2,3.4-4,4.9-6.1c0,0.1,0,0.2,0,0.3c0.8,1.6,1.7,3.2,0.7,5
			C568.4,344.9,565.7,345.2,563.9,343.7z M529.6,308.8c5.7-0.8,17.3-2.5,18.6-9.7c1.3-7-6.4-11.8-12.3-12.8
			c-3.4-0.6-6.7-0.4-10.1,0.3c5.4-3.5,11.5-6,18.1-4.7c8.2,1.7,14.2,9.1,14.4,17.4c0.2,10-8.2,14.9-17.3,14.8
			c-8.9-0.1-17.3-3.1-25.9-5.2c-0.2,0-0.4,0-0.5,0.1c-0.2-0.1-0.4-0.2-0.6-0.3C519.4,309.6,524.8,309.5,529.6,308.8z M505.5,303.8
			c-0.3-0.1-0.6,0-0.8,0.2c-4.1-2.1-8.2-4.1-12.5-5.5c6.3-0.6,12.4-2.4,18.2-5.1c0.1,0.1,0.3,0.1,0.5,0c6.6-1.9,12.8-4.8,19.8-4.9
			c3.4,0,6.9,0.5,9.8,2.2c3,1.7,6.7,5.6,4.4,9.3c-1.7,2.7-5.7,3.6-8.5,4.4c-3.6,1-7.3,1.7-11,1.9
			C518.5,306.8,512.3,305.1,505.5,303.8z M531,315.5c5.2,1.1,10.8,2,16.1,0.9c9.2-1.8,15-9.3,14-18.7c-0.9-8.7-7.2-16.1-15.8-18.3
			c-7.1-1.8-13.6,0.5-19.5,4c4.6-3.8,8.8-8.1,12.5-12.6c2.5-3,4.8-6.2,7-9.4c12.7,9,21.5,23.1,20.6,39c-0.8,14.2-9.4,27.2-21.7,34.1
			c-0.4-0.1-0.8,0-1.2,0.3c-0.1,0.1-0.2,0.2-0.4,0.3c-1-1.9-2.1-3.7-3.3-5.5c-3.1-4.7-6.8-9-11.1-12.5c-1.7-1.4-3.6-2.6-5.4-3.8
			C525.5,314.2,528.3,314.9,531,315.5z M561.4,250.6c-2.2-1.6-4.7-2.8-7.2-3.3c0.1-0.2,0.2-0.3,0.3-0.5c1.3-0.7,2.5-1.5,4-1.8
			C562.1,244.4,563.2,247.8,561.4,250.6z M522.2,344.6c6,4.1,9.3,11,6.4,18.4c-2.5,6.5-10.5,13.4-17.8,10.9c2.2-5.5,1.1-12-2.8-16.4
			C514.8,356.4,520.7,351.4,522.2,344.6z M522.1,337.2c0.3,0.4,0.6,0.8,0.9,1.2c1.2,1.6,2.1,3.3,3,5c-1-0.8-2.2-1.5-3.5-2.1
			C522.6,339.9,522.5,338.5,522.1,337.2z M509.4,400.8c-4.4,1.8-8.8,3.6-13.3,5.1c1.2-1.3,2.3-2.8,2.9-4.4
			c2.4-5.9,0.5-12.6-3.9-16.9c5.7-0.5,11.1-3.1,14.3-7.9c7,6,9.9,17.9,0.4,23.3C509.5,400.2,509.4,400.5,509.4,400.8z M480.1,409.5
			c0.1,0.1,0.3,0.2,0.4,0.2c-0.4,0.1-0.8,0.1-1.3,0.2c3.5-6.1,1.8-13.7-3.1-18.3c5.1-0.8,9.7-3.5,12.5-8c0.1,0.2,0.3,0.5,0.7,0.6
			c5.9,2.7,9.4,9.8,7.1,16.1c-2.6,6.8-9.6,8.5-16.1,8.3C479.9,408.7,479.7,409.3,480.1,409.5z M338.9,458.1c1.1-0.3,2.1-0.5,3.2-0.8
			c-0.2,0.2-0.4,0.4-0.3,0.7c0.3,2,0.8,4.3,2.5,5.5c1.2,0.9,3,1.1,4.4,0.4c1.4-0.8,1.9-2.4,1.4-3.9c-0.6-1.6-1.9-2.7-2.4-4.4
			c1.1-0.3,2.2-0.6,3.3-1c0.8-0.2,1.5-0.5,2.3-0.7c-0.4,0.3-0.6,0.7-0.4,1.2c1.6,4.5,4.3,15-3.7,15
			C342.9,470.3,340.9,462.5,338.9,458.1z M348.4,475.3c-0.1,0.6-0.2,1.3-0.2,1.9c-0.2-0.5-0.5-0.9-0.7-1.4c0-0.1-0.1-0.1-0.1-0.1
			C347.8,475.5,348.1,475.4,348.4,475.3z M348.6,518.1c2.6,4.5,3.9,9,4,14.2c0.1,4.3,0.2,10.1-3.1,13.4c-5,5.1-10.4-1.1-11.7-6
			c-1.2-4.4-1.3-9.2-1.5-13.8c-0.4-8.8,0.1-17.7,1.1-26.5C341.2,505.6,345,511.8,348.6,518.1z M337.6,494.7c0-0.3,0.1-0.6,0.1-0.9
			c0.3,0.8,0.6,1.7,0.9,2.5C338.3,495.8,337.9,495.3,337.6,494.7z M354.6,525.5c-0.3-1.2-0.6-2.4-1.1-3.6c0.9,1.3,1.8,2.7,2.5,4.1
			c2.1,3.9,3.6,8.1,3.8,12.6c0.3,8.6-5.1,16.9-14.4,16.6c-9.7-0.3-14.2-10-14.5-18.5c-0.3-8.9,2.4-17.5,3.3-26.3
			c0-0.1,0-0.1,0.1-0.2c0.1-0.2,0.1-0.4,0.2-0.7c-1,8.5-0.9,17,0,25.5c0.8,6.7,4.8,18.1,13.9,14.5
			C356.8,546.3,356,532.5,354.6,525.5z M390.5,535.5c4.6,1,9.2,1.9,13.7,2.8c0.1,0.1,0.1,0.1,0.2,0.2c0.9,0.5,1.8,0.9,2.6,1.5
			c1,0.6,1.8,1.4,2.4,2.3c1,1.6,0.6,2.7-1.2,3.2c-2.1,1.5-2,1.1-4.2,0.6c-0.9-0.2-1.8-0.2-2.7-0.1c-1,0.1-1.6,1.5-0.5,2
			c2.5,1.3,3.9,5,1.5,7.2c-1.7,1.5-3.6,1.3-5.3,0.2c-0.3-0.3-0.6-0.6-1-0.8c-0.3-0.3-0.5-0.5-0.7-0.8c-0.3-0.4-1-0.2-0.9,0.4
			c0,0.1,0.1,0.2,0.1,0.4c-0.2,0.2-0.3,0.5-0.2,0.7c0.4,1.5,1.6,2.4,2.1,3.9c0.6,1.8,0.4,3.7-0.8,5.2c-2.3,3.1-5.5,2-8.1,0.1
			c-0.5-1.1-1.4-2-2.5-2.1c7.3-5.9,13.9-13.4,17.9-21.8c0.8-1.8-1.6-3.3-2.7-1.6c-5.4,8.7-11.4,16.5-19.7,22.7
			c-7.8,5.8-16.7,9.9-26.2,12c-10.4,2.3-21.4,1.9-31.8-0.9c-5.3-1.4-10.4-3.4-15.2-6c-1.3-0.7-9-4.5-10.7-6.8
			c3.4-2.2,6.7-4.7,9.8-7.4c12.8,11,31.2,15.3,47.7,12c8-1.6,15.7-5.2,22.2-10.2c5.3-4.1,12.7-11,14.1-17.9
			C390.7,536.1,390.6,535.7,390.5,535.5z M385.6,568.1c-0.4,1.5-1.2,3.3-2.3,4.4c-3,3.1-5.2-1.3-6.9-3.3c-0.1-0.1-0.2-0.1-0.2-0.1
			c0,0,0,0,0,0c-0.1-0.1-0.2-0.2-0.3-0.3c2.6-1.5,5.1-3.2,7.5-5c0.1-0.1,0.3-0.2,0.4-0.3c0,0.1,0.1,0.2,0.2,0.4
			c0.4,0.4,0.9,0.6,1.2,1C386.1,565.7,385.9,567,385.6,568.1z M375.1,572.3c0.1,0.8,0.1,1.6,0.2,2.4c0.1,2-0.7,3.1-2.5,3.5
			c-2.2,1.1-3,0.7-4.8-1.2c-0.9-1-1.5-2.2-1.9-3.5c3-1.2,5.8-2.5,8.6-4.1c0,0,0,0,0,0C374.7,570.8,374.9,571,375.1,572.3z
			 M363.5,574.4c-0.1,1.2-0.2,2.3-0.5,3.4c-0.5,2.7-0.4,3.5-2.9,4.9c-1.4,1.5-2.8,1.5-4.1,0c-0.7-0.7-1.2-1.5-1.6-2.4
			c-0.5-1-0.8-2.1-1-3.2C356.8,576.4,360.2,575.5,363.5,574.4z M347.8,585.1c-3.6,0.2-5-4-5.3-6.9c2.8-0.1,5.5-0.3,8.3-0.7
			C351.2,580.4,352.3,584.9,347.8,585.1z M334,584.6c-2-0.5-3.3-2-3.9-3.8c0.5-1,0.7-2.1,0.7-3.2c0.1,0,0.3,0,0.4,0.1
			c3,0.4,6,0.6,8.9,0.6C340.5,581.7,337.8,585.5,334,584.6z M328.7,577.3c0,0.1,0,0.3,0,0.4c-0.1,0.4-0.2,0.8-0.2,1.3
			c-0.7,2.3-2.6,4.2-5.3,3.5c-3.1-0.8-4.4-4.4-2.9-7.1c0,0,0,0,0,0C323,576.2,325.8,576.8,328.7,577.3z M318.1,574.7
			c-1.5,2.7-4.9,7.3-7.7,2.9c-0.8-1.3-0.7-3-0.3-4.5c0.3-0.4,0.5-0.8,0.7-1.2C313.2,572.9,315.6,573.9,318.1,574.7z M301.1,566.6
			c1,0.6,2,1.2,2.7,1.6c1.6,1,3.3,1.9,5,2.7c-1,2-2.9,4.3-5.1,4.3l-4.3-2.3c0-0.9-0.1-1.8-0.1-2.7
			C299.6,569,300.4,567.7,301.1,566.6z M296.5,568.2c-2,1.7-3.5,0.5-4.4-3.5c0.2-0.9,0.6-1.8,1.2-2.5c0.6-0.4,1.2-0.7,1.8-1.1
			c0.5,1.6,2.3,3.1,4.3,4.4C298.5,566.6,297.7,567.6,296.5,568.2z M388.3,535c-2.3,2.8-3.7,6.2-6,9c-2.4,3-5.3,5.7-8.3,8.1
			c-5.9,4.4-12.7,7.6-20,9.2c-16.3,3.5-32.1-1.6-46-9.9c4-3.6,7.6-7.5,10.9-11.7c4.3-5.6,8-11.7,11-18.1c-0.4,1.9-0.7,3.8-0.9,5.7
			c-0.8,5.2-1.1,10.6,0.1,15.8c2,8.4,8.7,15.4,17.8,14.8c8.7-0.6,14.6-7.5,15.5-15.9c0.5-4.8-0.5-9.6-2.4-14c-1-2.3-2.2-4.8-3.6-7.1
			c3.5,2.9,7.2,5.4,11.1,7.3C374,531.3,381.1,533.3,388.3,535C388.3,535,388.3,535,388.3,535z M335.8,475.6c3-2.6,2.7-7.9,2.8-12.5
			c2,4.2,4.6,8.7,8.7,9.6c-1.7,0.6-3.3,1.1-5,1.6C340.1,474.8,338,475.2,335.8,475.6z M112.6,477.9c0.4,1.5,1.2,3,2.1,4.2
			c-5.4-0.4-10.8-0.3-16.3,0.4c-0.1-7-0.3-14.5-0.4-22.1c0.8,1.2,1.8,2.3,2.9,3.1c3.7,3,8.5,3.7,12.9,2.5
			C112.2,469.7,111.4,473.9,112.6,477.9z M102.2,460.6c-3.5-3.2-3.6-7.1-3.7-11.5c0-0.3-0.1-0.6-0.4-0.8c0.1-2.2,0.2-4.5,0.4-6.7
			c1.5,1.7,3.8,2.8,5.9,3.3c3.2,0.8,6.5,0.5,9.4-0.8c-2,5.8-1.4,12.5,2.3,17.5c0,0-0.1,0-0.1,0.1
			C111.7,464.3,106.1,464.1,102.2,460.6z M117.5,375.3c-0.1-0.6-0.3-1.3-0.6-1.8c0-0.1-0.1-0.1-0.1-0.2c0-0.1-0.1-0.2-0.1-0.2
			c0,0,0,0-0.1,0c-0.8-2.1-1.5-4.3-2.2-6.5c2.5,1.8,6.1,1.8,9.5,1.2c-3.7,3.5-6.5,8-4,13.2c1.9,4,6.1,4.7,10.1,3.8
			c-1.1,1.3-2.1,2.6-2.9,4.2c-0.6,1.2-1.3,2.7-1.6,4.3c-2.9-5.6-5.4-11.3-7.7-17.1c0,0,0,0,0,0C117.8,375.9,117.7,375.6,117.5,375.3
			z M70.4,349.5c-3.4-2.3-6.5-5.2-9.4-8.3c-1-1.1-1.9-2.2-2.8-3.3c-1.3-7.2,2.6-14.9,10-16.8c0.6,7.4,6,13.7,12.9,16
			C75.4,339.4,69.9,343.2,70.4,349.5z M55.8,334.7c-3.6-4.8-6.9-9.8-10.4-14.6c0.2-0.2,0.3-0.5,0.1-0.8c-2.8-5.8,4.1-11.5,8.3-14.9
			c0.9,6.3,5,12,10.6,15.1C58.9,322.5,55.3,328.6,55.8,334.7z M83.9,269.6c-6.3,1.9-12.4,5.8-13.9,12.5c-4.7-2.8-9.9-6.2-9.6-12.4
			c0.9-1.1,1.9-2.2,2.8-3.3c3.4-3.9,7.4-7.2,11.7-9.6C74.2,262.5,78.8,266.8,83.9,269.6z M95.6,131.2c4.9,1.4,9.8,0.6,14.7-0.9
			c-0.9,1.2-1.5,2.6-1.8,4.1c-0.6,3.2,0.3,6.2,1.8,9c-3.8-0.6-7.6-0.3-11.2,1.1c-1.5,0.5-3.7,1.5-5.5,2.7
			C94.8,142,95.9,136.7,95.6,131.2z M96.9,148.1c1.7-0.9,3.6-1.5,5.5-1.8c2.8-0.5,5.7-0.4,8.4,0.3c-2.2,4.2-2.9,9.3-1.4,13.9
			c-7.6-1.1-15.2,1.8-19.9,7.9c0.3-4.8,1.1-9.5,2.3-14.2c0.2-0.6,0.3-1.2,0.5-1.8c0-0.1,0.1-0.2,0.1-0.3
			C92.5,150.2,95.5,148.7,96.9,148.1z M110.9,163.7c-0.6,0.7-1.3,1.3-1.8,2.1c-4.9,6.2-6.1,14.4-3.9,21.8c-4.5-1.9-9.7-2.2-14.2-0.1
			c-0.5-2-0.9-4.1-1.2-6.3c-0.4-3.4-0.6-6.8-0.5-10.2C94.4,164.5,103,161.5,110.9,163.7z M116.5,128c5.8-2.3,11.6-4.5,17.6-6
			c-3,3.8-2.4,9.7-0.2,14.1c-7.2-0.9-14.8,0.7-20,6.1c-0.1,0.2-0.3,0.3-0.4,0.5c-2.6-4.6-3.3-10,2.5-12.8
			C116.7,129.5,116.8,128.6,116.5,128z M137.7,121.3c1.9-0.4,3.7-0.7,5.6-0.9c3.8-0.4,7.6-0.5,11.4-0.1c-2.2,4.4-1.3,9.2,0.2,13.7
			c-5.8-2.1-12.5-1.4-17.6,2.3c-1.5-2.1-2.2-4.6-2.1-7.2c0.1-2.7,1.5-4.7,2.4-7.2C137.7,121.6,137.7,121.4,137.7,121.3z
			 M137.7,139.7c0.3-0.1,0.5-0.3,0.6-0.5c5.3-4.3,12.9-4.5,18.6-1c0.3,0.2,0.8,0.2,1.1,0.1c-2.8,5.3-2.8,12,0.7,17.2
			c-3.8-2.3-9-2.7-13.1-2.1c-4.2,0.5-8.2,2.2-11.7,4.5c0,0,0,0,0-0.1C131.5,151.6,132.7,144.3,137.7,139.7z M157.4,120.6
			c3.9,0.5,7.6,1.5,11.3,2.9c4.2,1.7,7.7,3.9,10.9,6.5c-5.2-1.6-11.2-1-15.4,1.7c-2.1,1.3-3.7,2.9-5.1,4.8c0,0,0,0,0,0
			c-1.9-5.1-3.4-9.8-1.7-15.2C157.5,121,157.5,120.8,157.4,120.6z M213.2,121.5c-3.6-6.4-5.7-13.6-5.4-21c0-0.7,0.1-1.4,0.1-2.1
			c0.1,0,0.2-0.1,0.3-0.2c6-5.4,12.6,0.6,16.5,5.3c-0.1,0-0.1,0-0.2,0.1C217.5,106.4,212.5,114.1,213.2,121.5z M314.3,131.2
			c0.8-4.8,2.7-11.8,8.7-11.7c7.8,0.1,9,8.6,9.5,14.5c0,0.2,0.1,0.4,0.3,0.6c-1.7-0.3-3.3-0.5-5-0.8c0.2-2.3-0.4-5-1.1-7
			c-0.6-1.7-2-2.9-3.9-2.5c-3.1,0.5-5.4,5.2-4.6,8.3c-2.1-0.2-4.1-0.4-6.2-0.6c0.2-0.2,0.4-0.4,0.4-0.7c0-5.2-2.8-11.9-7.6-14.8
			c4.7,0.3,9.4,0.9,14.2,1.5c-4.2,2.3-5.8,8.2-6.3,13C312.6,131.9,314.2,132.1,314.3,131.2z M369.9,85c5.1,2.2,8.3,7.7,7,13.2
			c-0.4,1.5,1.4,2.5,2.5,1.5c11.6-10.2,29.7-2.8,30.9,12.4c-0.6-0.3-1.2-0.6-1.8-0.8c-6.8-2.7-14.6-1.2-20.4,3
			c-0.2-5.7-3.7-11.1-9.1-13.5c-6.2-2.8-13.3-1.2-18.6,2.7c-0.2-6.5-1.9-13.9-8.2-15.6c0.3-0.3,0.6-0.5,0.8-0.8c0.2,0,0.3,0,0.5-0.1
			C358.6,84.1,364.4,82.5,369.9,85z M359,82.2c3-2.2,6.2-4.1,9.7-5.7c1.6-0.7,3.1-1.3,4.7-1.8c0.8,2.9,0.6,5.4-1,8.3c0,0,0,0,0,0
			c-0.1,0-0.1-0.1-0.2-0.1C368.1,80.8,363.3,80.8,359,82.2z M375.6,74.1c5.7-1.6,11.6-2.3,17.6-2.8c0.6,1.9,0.9,3.5,0.4,5.4
			c-5.9-2-12.1-0.1-17.2,3.2C376.6,78,376.3,75.9,375.6,74.1z M392.6,79.6c5.3,1.8,8.9,7.7,6.9,13.1c-0.1,0.2-0.1,0.5-0.1,0.7
			c-6.1-2.3-13.2-1.9-19.2,2c-0.2-4.1-2.1-8-5.3-10.7C379.6,80.7,386.3,77.4,392.6,79.6z M427.1,135.5c-7.9-6.2-19-5.4-27.6-0.9
			c0.9-6.1-2.5-12.6-8-15.7c-0.9-0.5-1.8-0.9-2.8-1.3c11.2-9.7,29.3-2.7,30.2,12.7c0.1,1.5,1.6,1.9,2.7,1.1c2.4-1.9,5.1-3.2,8.1-3.9
			c1.4-0.3,2.8-0.5,4.2-0.5c0.6,0,1.2,0,1.7,0c0.1,0,0.1,0.1,0.2,0.1c0.1,0,0.2-0.1,0.3-0.1c1,0,2.1,0,3.1,0.4
			c0.5,0.2,0.6,0.9,0.3,1.3c0,0,0,0,0,0c0.1,0,0.3-0.1,0.4-0.1c-0.5,9.6-2.1,19.1-5.8,28C436.3,149.2,433.3,140.4,427.1,135.5z
			 M446.9,187.6c3.1,5.2,5.9,10.5,8.4,16c-3.7-2.9-10.2-4.2-14.7-2.4C444.9,198.2,447.9,192.6,446.9,187.6z M483.7,178.9
			c1.8,0,3.7,0,5.5,0.2c6.1,1.4,11.6,5.2,14,11.2c2.8,7.3,0.2,15.5-5.7,20.4c-0.1-0.2-0.1-0.5-0.2-0.7c-2-6.6-8.2-10.9-14.8-11.5
			C487.1,193.1,488.2,184.4,483.7,178.9z M534.3,194.6c7.9,4.1,15.9,8.2,24.2,11.3c-4.3,9.2-8.6,18.5-12.9,27.7
			c-0.2,0.4-0.3,0.7-0.5,1.1c-0.2-0.2-0.4-0.4-0.8-0.5c-2.4-0.7-4.7-0.8-6.9-0.6c3.3-4.7,5.3-10.2,4.2-16.2
			c-1-5.7-5.2-10.2-10.7-11.3c1.3-1.7,2.3-3.5,2.9-5.6C534.3,198.9,534.9,196.5,534.3,194.6z M477.2,201.2c0.3,0.3,0.8,0.5,1.4,0.4
			c6.9-1.2,14.4,3.1,16,10.1c1.5,6.5-2.5,13.2-8.4,15.8c-2.6-5.5-8.4-9-14.4-9.2C476,213.7,478.1,207.3,477.2,201.2z M497.9,213.6
			c0.2,0,0.4,0,0.6,0c7.4-1.6,14,8,16.3,13.9c3.4,8.7-3.8,12.8-10.8,15.2c-1.5-6.8-6.7-12.3-13.1-14.6
			C495.4,224.9,498.2,219.3,497.9,213.6z M527.6,209.2c6.4-0.4,10.9,4.9,11.1,11.1c0.2,5.5-2.6,10.3-6,14.3c-2.2-4.1-6-7.3-10.6-8.5
			C526.4,221.7,528.6,215.3,527.6,209.2z M517.6,225.9L517.6,225.9c-2.6-6.5-8.5-14.1-15.6-15.4c3.3-3.8,5.2-8.9,5.3-13.9
			c6.9-0.4,13.9,3.4,16.5,10.1C526.4,213.7,523.6,221.8,517.6,225.9z M487.3,230.4c6.7,1.3,12.4,6.3,13.8,13.1
			c1.5,6.8-1.8,13.9-7.4,17.7c-1.3-6.8-6.8-12.2-13.4-14C485.6,243.5,488.7,236.8,487.3,230.4z M494,264.6c6.3,0,11.7,1.4,13.3,8.3
			c0,0.1,0.1,0.2,0.1,0.3c-7.3,3.8-15.1,6.4-23.2,7C489.8,277.1,493.8,271.1,494,264.6z M497.8,261.8c4.4-4,7-9.8,6.7-15.8
			c6.4-0.1,12.6,4.4,13.3,11c0.7,6.1-3.1,10.6-8,13.3C509.2,265,503.1,262.6,497.8,261.8z M509.9,243.7c5.9-3,10.3-7.6,8.6-14.8
			c7.5,0,13.3,7,13.1,14.4c-0.2,7.1-5,12.9-10.8,16.5c0.1-1.1,0.1-2.2,0-3.3C520,250.3,515.5,245.6,509.9,243.7z M520.1,263.1
			c0.4,0.2,0.8,0.2,1.3-0.1c7.8-4.2,14.2-12.6,13.3-21.9c-0.1-1.1-0.4-2.2-0.7-3.3c3.1-1.2,6.1-1.4,9.5-0.5c0.1,0,0.2,0,0.3,0.1
			c-3.8,7.7-7.8,14.6-14.5,20.4c-3.3,2.9-6.8,5.7-10.5,8.3C519.4,265.2,519.8,264.1,520.1,263.1z M531.2,199.3
			c-0.9,2.7-2.3,4.9-4.4,6.7c0-0.1-0.1-0.2-0.1-0.3c-2.3-6.1-7.6-10.2-13.7-11.6c2.7-1.7,4.8-4.2,5.8-7.1c4.6,2,9.1,4.3,13.5,6.6
			C531.4,195.3,531.7,197.5,531.2,199.3z M507.1,193.4c-0.2-1.5-0.6-3-1.2-4.5c-1.5-3.5-3.9-6.5-7-8.6c2.9,0.6,5.7,1.3,8.6,2.2
			c3,1,6,2.1,8.9,3.4C514,189.6,511.4,192.3,507.1,193.4z M477.4,198.8c-0.3,0.1-0.4,0.3-0.6,0.5c-0.3-1.3-0.8-2.6-1.4-3.8
			c-4-7.9-13.5-11.9-21.9-9.9c8-3.1,16-5.7,24.6-6.4c0.8-0.1,1.7-0.1,2.5-0.2C485.2,185.3,484.6,194.7,477.4,198.8z M472.6,196.7
			c4.1,7.9,0.7,18.1-6.7,22.5c-0.4,0.2-0.6,0.6-0.7,1c-2.8-7.8-6-15.4-9.7-22.8c-1.5-3-3.1-6-4.8-8.9
			C458.7,185.9,468.5,188.9,472.6,196.7z M478.8,341.7c4.8-1,9.1-4.6,11-9.3c5.3,4.4,10.1,10.3,10,17.5c-0.2,7.4-7,14.9-14.7,11.2
			c-0.2-0.1-0.4-0.1-0.6-0.2c0.1-0.2,0.1-0.3,0.2-0.4C486.7,353.6,484,346.3,478.8,341.7z M481.5,359.7c-2.4,7.4-10.9,11.5-18.2,9.6
			c-0.7-0.2-1.3,0.2-1.7,0.7c2.7-6.3,5.1-12.8,7.2-19.4c1-3.2,1.9-6.5,2.7-9.8c0.2,0.3,0.4,0.5,0.8,0.6
			C479.4,344.1,483.9,352.4,481.5,359.7z M451.7,367.1c2.9,0.4,6,0.3,8.4-1c-1.3,3.1-2.6,6.1-4.1,9.1
			C456.4,372.1,454.3,369.3,451.7,367.1z M436.4,391.4c1.6,0.5,3.9,0.8,4.7-1.1c1.4-3-1.9-5.6-4.6-6.8c0.5-0.9,1-1.8,1.5-2.7
			c3.8,2.5,8.6,6.4,5.8,11.1c-2.8,4.7-8.9,2.7-13,0.8c0.7-1.1,1.4-2.3,2.2-3.4C433.9,390.2,435.1,390.9,436.4,391.4z M433.7,388.2
			c0.6-0.9,1.1-1.8,1.7-2.8c1.6,0.7,3.4,1.5,3.8,3.2c0.5,1.8-2.1,1.2-3.1,0.9C435.2,389.2,434.4,388.8,433.7,388.2z M450.3,374.1
			c0.5-2.7-3.1-5.5-6.1-5.6c0.4-0.9,0.9-1.9,1.3-2.8c3.9,2,12.4,8,6.1,12.6c-3.3,2.4-8.6,1.5-12.1-0.4c0.5-1,1-2,1.6-3
			C443.3,377,449.7,377.1,450.3,374.1z M441.8,373.5c0.5-1,1-1.9,1.4-2.9c0.8,0.1,1.5,0,2.3,0.3c0.7,0.3,3.6,1.9,2.6,3.1
			c-0.7,0.9-3.5,0.5-4.3,0.3C443.1,374.1,442.5,373.7,441.8,373.5z M446.5,363.6c0.5-1.1,1-2.3,1.5-3.5c2.4,1.3,7.1,2.8,8.5-0.3
			c1.5-3.3-2.3-5.9-5.1-6.3c-0.3,0-0.7,0.1-0.9,0.3c0.5-1.3,0.9-2.5,1.4-3.8c0.1,0,0.1,0.1,0.2,0.1c4.3,1.4,11.7,4.8,9.7,10.7
			C459.5,367.1,451.1,365,446.5,363.6z M448.4,358.9c0.5-1.3,1.1-2.6,1.6-4c0.1,0.2,0.2,0.4,0.5,0.5c1.5,0.6,4.7,1.2,4.2,3.5
			C454.2,361,450,359.6,448.4,358.9z M457.9,345.5c1.4,0.2,2.7-0.5,3-1.9c0.8-3.5-2.7-4.5-5.3-5.5c0.3-1,0.6-2,0.8-3
			c4.1,1.6,10.4,4.5,8.2,9.8c-2,4.8-7.9,4.4-12,3.1c0,0,0,0-0.1,0c0.4-1.1,0.8-2.3,1.1-3.4C455,345,456.5,345.4,457.9,345.5z
			 M454.2,342.8c0.3-0.9,0.5-1.8,0.8-2.6c1.6,0.5,3.6,0.9,3.8,2.5c0.2,1.4-1.8,0.7-2.6,0.5C455.5,343.1,454.8,343,454.2,342.8z
			 M464.9,328.6c0.7-1.4,0.3-3.2-0.7-4.4c-1.2-1.4-3-2-4.7-2.5c0,0-0.1,0-0.1,0c0.2-1.2,0.4-2.4,0.6-3.6c0.1,0.1,0.3,0.2,0.5,0.3
			c3.9,1.2,12.3,4.5,8.8,10.2c-2.3,3.9-8,4.8-12.3,4.2c0,0-0.1,0-0.1-0.1c0.4-1.5,0.7-3.1,1.1-4.6
			C460,330.1,463.4,331.7,464.9,328.6z M458.5,326.5c0.2-0.9,0.4-1.8,0.5-2.6c1.6,0.5,4.3,1.2,4.1,3.4c-0.2,2.6-3.7,0.2-4.5-0.6
			C458.6,326.6,458.5,326.6,458.5,326.5z M465,293.2c1.7-0.7,3-2.3,2.9-4.2c-0.1-1.6-1.3-3-2.7-3.5c-0.8-0.3-1.8-0.4-2.7,0
			c0-0.8,0-1.7-0.1-2.5c3.8,0.7,8.3,1.9,9.4,5.9c1.6,5.6-4.5,8.5-9.2,8.6c-0.1,0-0.2,0-0.4,0.1c0.1-1.3,0.1-2.5,0.1-3.8
			C463.3,293.7,464.4,293.5,465,293.2z M462.5,292.2c0-0.3,0-0.5,0-0.8c0-1.2,0-2.4,0-3.6c0.6-0.1,1-0.5,1.6-0.3
			c0.7,0.2,1.4,0.7,1.6,1.4c0.2,0.9-0.3,1.8-1,2.3C464.5,291.4,463.2,292.1,462.5,292.2z M462.2,279.3c-0.1-1.8-0.3-3.6-0.4-5.4
			c1.6,0.4,3.5,0.5,4.8-0.4c1.7-1.2,1.8-3.5,0.7-5.1c-1.2-1.7-4.4-3.1-6.4-2.1c0,0,0,0,0,0c-0.2-1.7-0.5-3.4-0.8-5.1
			c0.3,0.2,0.6,0.2,1,0.2c5-0.9,9.6,3.4,9.4,8.4C470.3,274.5,466.4,277.8,462.2,279.3z M461.6,306.3c0.9,0.3,1.8,0.6,2.6,1
			c0.7,0.4,2.3,1.3,2.2,2.2c0,0.9-1.8,1.2-2.4,1.2c-1,0-1.9-0.5-2.8-0.8C461.4,308.7,461.5,307.5,461.6,306.3z M461.2,268
			c0.8,0.5,1.9,0.4,2.8,0.7c1,0.3,2.2,1.3,1.9,2.5c-0.3,0.9-1.3,1.1-2.2,1.1c-0.4,0-0.9,0-1.3,0c-0.2,0-0.5-0.1-0.7-0.1
			C461.5,270.8,461.3,269.4,461.2,268z M461.5,334.8c3.5-0.2,7.1-1.4,9.2-3.9c-1.7,8.7-4.1,17.2-7,25.4c-0.8-2.2-2.5-3.9-4.6-5.3
			c3.5-0.4,6.7-2,7.9-5.8C468.6,340.4,465.4,337,461.5,334.8z M466.5,318c2.6-0.7,5.1-2,6.9-3.9c-0.3,3-0.7,6-1.2,9.1
			C471.1,321,468.9,319.2,466.5,318z M473.1,309.5c-1.5,5-7.6,6.8-12.1,6.3c-0.2,0-0.4,0-0.5,0c0.2-1.5,0.4-3,0.6-4.5
			c1.8,2,6.2,1.7,7.3-0.8c1.6-3.3-3.9-6.3-6.6-6.4c0.1-1.5,0.2-2.9,0.3-4.4c0.1,0.1,0.3,0.1,0.5,0.1
			C467.6,300.2,475,303.2,473.1,309.5z M468.6,298.6c3-1.3,5.4-3.5,6-6.9c0,3.6-0.1,7.3-0.3,10.9
			C472.9,300.8,470.9,299.5,468.6,298.6z M463.4,280.5c5.5-1.2,10.1-6.4,9.6-12.2c-0.4-4.6-3.9-8.2-8.2-9.3c2.6-2,4.9-4.7,5.9-7.7
			c2.4,12.3,3.7,24.8,3.9,37.3C473.6,283.6,468.1,281.5,463.4,280.5z M460.1,259c-0.1,0.1-0.2,0.2-0.3,0.2c-0.4-1.9-0.8-3.8-1.2-5.8
			c1.4,0.7,3.3,0.1,4.4-0.8c1.5-1.2,2-3.1,1.6-4.9c-0.5-1.9-1.9-3.3-3.7-3.9c-1.5-0.4-3.4-0.4-4.5,0.8c-0.5-1.6-0.9-3.2-1.4-4.8
			c5.7-1.4,13.5,0,13.9,7.3C469.1,252.7,464.5,256.6,460.1,259z M458.1,251.3c-0.5-2-1-3.9-1.5-5.8c1,0.1,1.9-0.1,2.9,0.1
			c1.2,0.3,2.2,1,2.7,2.2c0.4,1,0.3,2.3-0.5,3.1c-0.9,0.8-1.9,0.6-3,0.4C458.4,251.2,458.2,251.2,458.1,251.3z M454.5,237.5
			c-0.1,0-0.2,0.1-0.3,0.1c-0.5-1.5-1-2.9-1.5-4.4c1.6-0.3,3.5-1.1,4.7-1.9c1.4-1,2.1-2.6,1.3-4.2c-1.7-3.2-6.3-3.8-9.3-2.4
			c-0.4-1-0.8-1.9-1.3-2.9c0.2,0,0.3,0,0.5,0c5-1,13.1-3.5,14.7,3.4c0.7,2.9,0.4,6.1-1.9,8c-1.7,1.4-4.3,1.8-6.4,2.1
			C453.8,235.5,453.8,236.9,454.5,237.5z M451.9,231.1c-0.6-1.7-1.3-3.3-2-5c2.2-0.6,4.6-0.4,6.3,1.3
			C458.1,229.4,454,230.4,451.9,231.1z M449.6,212.9c1-1.1,2.3-2.7,1.5-4.3c-1.2-2.1-4-2.6-6.3-2.1c-1.3,0-2.8,0.5-3.9,1.4
			c-0.8-1.4-1.6-2.8-2.5-4.1c2-0.2,3.8-0.9,5.8-1c2.7-0.1,5.5,0.5,7.9,1.8c3.5,1.9,4.4,4.9,2.2,8.3c-1.7,2.6-4.4,4.8-6.8,6.6
			c-0.2,0.1-0.3,0.3-0.4,0.5c-0.6-1.3-1.2-2.6-1.9-3.9C446.9,215.6,448.5,214.1,449.6,212.9z M444.4,214.3c-0.8-1.6-1.7-3.2-2.5-4.7
			c0.3-0.3,0.6-0.6,0.9-0.8c0.1,0.1,0.3,0,0.5,0c1-0.5,2.1-0.7,3.2-0.5c1,0.1,3.1,0.7,2.5,2.2C448.2,212.2,445.8,213,444.4,214.3z
			 M458.3,210.4c1.2,2.8,2.3,5.6,3.3,8.5c-2.4-1.1-5.6-1-8.7-0.5C455.4,216.1,457.7,213.2,458.3,210.4z M460.7,236.6
			c1.5-0.6,2.8-1.4,3.9-2.7c0.6-0.8,1-1.6,1.3-2.5c0.9,2.9,1.7,5.8,2.4,8.8C466.2,238.1,463.5,236.9,460.7,236.6z M443.1,194.8
			c-1.6,2.6-4,4-6.1,6.1c-0.1,0.1-0.1,0.2-0.2,0.3c-0.1-0.1-0.1-0.2-0.2-0.3c-0.9-1.4-1.8-2.7-2.7-4c3.3-0.6,6.7-4.8,5-8.1
			c-0.9-1.7-2.7-2.2-4.5-2c-2.2,0.3-3.9,2-5.7,3.2c-1.1-1.4-2.2-2.8-3.4-4.1c0.2,0,0.3-0.1,0.5-0.2c4.8-3,12.1-5.8,16.8-0.9
			C445.4,187.4,445,191.6,443.1,194.8z M432.9,195.4c-1.2-1.7-2.4-3.3-3.6-4.9c2.1-1,6-3.7,7.6-1.3c0.9,1.3,0,3-0.9,3.9
			C435,194,433.7,194.4,432.9,195.4z M420.8,179.6c1.9-2.2,4.9-7,1.7-9.4c-2.7-2.1-6,1.6-7.5,4.3c-1.1-1.1-2.2-2.1-3.3-3.1
			c0.1,0,0.1,0,0.2-0.1c0.3-0.2,0.6-0.4,0.9-0.6c0.3,0.1,0.7,0.1,1.1-0.1c0.6-0.5,1.2-1,1.8-1.6c4.5-2.5,10.7-4.9,13.8-1.5
			c4.9,5.5-1.2,12.2-5,16c-0.2,0.2-0.3,0.4-0.3,0.6c-1.2-1.4-2.5-2.9-3.8-4.2C420.4,179.9,420.6,179.8,420.8,179.6z M419.4,179
			c-1.1-1.2-2.2-2.3-3.4-3.5c0.5-0.9,1.1-1.7,1.9-2.4c1-0.9,3.4-2.6,3.9-0.5C422.5,175.1,419.5,176.7,419.4,179z M411.1,163.6
			c0.6-1.6,0.5-3.5-0.7-4.9c-3-3.6-7.7,0.9-9.3,3.9c-3.1-2.3-6.3-4.5-9.5-6.6c1.3-2.6,0.7-6.4-1.6-8.1c-2.8-2.1-7-0.2-6.5,3.4
			c-1.7-0.9-3.4-1.8-5.1-2.7c2.3-5.5,10.8-8.1,15.7-4.9c2.4,1.6,4.1,4.5,3.9,7.4c-0.2,2.7-1.6,4.8-1.3,7.5c0.1,1,1.4,1.9,2.2,0.9
			c3.3-3.9,8.5-9.6,14.1-6.5c6.5,3.7,4,11.7-0.7,15.4c-0.4,0.3-0.5,0.8-0.3,1.2c-0.3,0.2-0.5,0.5-0.7,0.7c-0.1,0.1-0.2,0.2-0.2,0.4
			c-1.2-1.1-2.4-2.1-3.6-3.1C409,167.2,410.6,164.9,411.1,163.6z M406.1,166.5c-1.2-1-2.5-2-3.7-3c1.3-1.8,5.7-6.3,6.7-2.6
			C409.8,163.6,406.7,164.5,406.1,166.5z M389.3,154.6c-1.5-0.9-3.1-1.9-4.7-2.7c0.2-0.1,0.4-0.3,0.4-0.7c-0.1-1.5,1.2-2.6,2.6-2.3
			c1.1,0.2,1.8,1.2,2.1,2.2C390.2,152.5,389.8,153.6,389.3,154.6z M378.3,139.5c-0.3-2.7-1.3-5.4-3.1-7.4c9,3.4,17.8,7.4,26.2,11.8
			c3.4,1.8,6.6,3.7,9.7,5.8c-4.2-0.6-8.3,2.2-11.6,5.4c0.5-2.7,1.6-5.2,0.4-8.3c-1.3-3.1-3.9-5.6-7.1-6.6c-5-1.6-11.7,0.4-14.5,4.9
			C378.5,142.9,378.4,140.4,378.3,139.5z M369.8,139.8c-0.2-1.5-1.1-3-2.5-3.6c-3.6-1.6-5.8,2.1-6.6,5.1c-1.3-0.4-2.5-0.8-3.8-1.2
			c2.6-4.9,6.7-11.6,13.3-8.9c2.9,1.2,4.7,3.8,5.5,6.7c0.4,1.5,0.5,3,0.4,4.6c0,0.7-0.1,3.6-0.5,4.6c0,0,0,0,0,0
			c-2.1-1-4.3-1.9-6.4-2.8C369.7,143.1,370,141.2,369.8,139.8z M366.7,143.5c-0.9-0.3-1.8-0.7-2.6-1c-0.7-0.2-1.3-0.5-2-0.7
			c0.7-1.9,2.3-5.1,4.5-3.5C368.4,139.7,367.2,141.8,366.7,143.5z M349.1,133.5c-0.5-1.5-1.3-3.5-3.1-3.6c-1.6-0.1-3,1.3-3.9,2.5
			c-0.8,1.1-1.4,2.3-1.7,3.6c-1.1-0.2-2.3-0.5-3.4-0.7c0-0.1,0-0.1-0.1-0.2c-1.6-1.4,2.6-6.1,3.3-6.9c1.9-2.1,4.4-3.7,7.2-3.8
			c8.1-0.3,7.8,9.4,7,15c-1.6-0.5-3.2-0.9-4.8-1.3C349.8,136.6,349.6,135,349.1,133.5z M347.4,137.6c-1.8-0.4-3.6-0.9-5.4-1.2
			c0.7-1.8,2.1-4.3,3.7-4C347.3,132.7,347.4,135.6,347.4,137.6z M354.5,125.3c3.6,1,7.1,2.1,10.6,3.2c-3.1,0.9-5.7,3.4-7.8,6.4
			c0.1-3.2-0.3-6.4-2.4-9.1C354.8,125.6,354.6,125.4,354.5,125.3z M385,116.8c-6.3-0.7-12.8,2-17.9,5.9c-1-5.5-3.5-11.2-7.7-14.6
			c0.2-0.1,0.5-0.2,0.6-0.3c4.3-4.2,10.7-6.7,16.6-4.7C382.3,104.9,386.1,110.9,385,116.8z M389.1,121.2c5.9,2.8,9.5,10.5,6.1,16.4
			c-5.5-2.6-11.1-4.9-16.8-7.1c-3.7-1.4-7.4-2.7-11.2-4C373,121.5,381.7,117.7,389.1,121.2z M418.1,154.6c4,3,7.7,6.3,11.2,9.8
			c-3.2-1.8-7.5-0.8-11.2,1.2C419.8,162.1,420.1,158,418.1,154.6z M428.9,159.9c-1.5-1.5-3.1-2.9-4.7-4.2
			c-7.9-6.6-16.7-12-25.9-16.5c7.5-5.1,18.1-7.1,26-1.6C431.3,142.4,433.8,152.8,428.9,159.9z M430,180.7c2.9-3.9,4.8-8.6,2.3-13
			c2.9,3.2,5.6,6.5,8.2,10.1c0.9,1.3,1.8,2.6,2.6,3.9C439.5,178.8,434.5,179.1,430,180.7z M396.6,78.2c4.3-2.6,9.3-3.7,14.1-1.3
			c4.4,2.3,6.9,6.8,7.2,11.6c-4.8-1.3-10.1-0.5-14.7,1.6C403.4,85.4,400.7,80.8,396.6,78.2z M418.6,92c0.1,0.1,0.2,0.1,0.3,0.1
			c0.5,0.2,1,0.4,1.5,0.7c5.1,2.8,8.1,8.6,7,14.3c0,0.2,0,0.3,0,0.5c-4.8-1.2-10-0.3-14.2,2.3c-1.2-7.1-5.7-12.6-11.4-15.6
			C406.8,91.4,413,89.9,418.6,92z M422.6,90.5c2.9-1.5,6.5-1.7,9.4,0c3.6,2,5,5.7,5.2,9.5c-2.3,1.1-4.4,2.5-6.4,4
			c-0.3-5.4-3.2-10.4-7.9-13.4C422.8,90.6,422.7,90.6,422.6,90.5z M429.9,112.1c4.9,2.7,6.4,7.1,7.2,12c-5.5-0.7-10.8,0.8-15.4,3.6
			c-1-5.5-4.1-10.5-8.6-13.8C417.8,110,424.5,109.1,429.9,112.1z M431,109c-0.3-0.1-0.5-0.2-0.8-0.4c2.8-2.5,5.7-4.1,8.8-5.8
			c0.4,4.2,0.7,8.4,0.9,12.6c0,1.5,0.1,2.9,0.1,4.4C438.6,115.3,434.9,111.1,431,109z M421,87.9c-0.5-5.8-3.9-11.2-9.2-13.8
			c-4.9-2.3-11.2-2-15.8,0.9c-0.1-1.3-0.4-2.6-1.1-3.9c1.8-0.1,3.6-0.2,5.5-0.3c10.5-0.6,20.7-2.1,30.6-5.6
			c2.7,8.3,4.8,16.8,6.3,25.4C433.4,86.5,426.5,85.1,421,87.9z M357.5,106.7c0,0,0,0.1,0,0.1c-1.6-0.9-3.3-1.6-5.2-1.9
			c-5.5-0.8-11.5,1.8-14.8,6.4c2.8-8.1,7.3-15.5,13.1-21.7C357.6,91.3,357.8,100.8,357.5,106.7z M352.6,107.9
			c7.7,1.9,11.2,10.5,11.8,17.6c-9.1-2.9-18.3-5.4-27.7-7.4C338.9,111.7,345.4,106.2,352.6,107.9z M344.5,122.7
			c-3.7,1.2-6.4,4.1-8.2,7.4c-0.7,1.2-1.9,3.6-1.1,4.9c-0.3-0.1-0.6-0.1-0.9-0.2c0.2-0.1,0.3-0.3,0.3-0.6c0.8-5.1-0.8-11.2-4.7-14.6
			C334.8,120.5,339.7,121.5,344.5,122.7z M325.6,133.5c-2-0.3-4-0.5-6-0.7c-0.2-2.3,1-6.6,3.6-6.4
			C325.4,126.6,325.4,131,325.6,133.5z M310.5,131.8c0,0,0.1,0.1,0.1,0.1c-0.5,0-0.9-0.1-1.4-0.1c-1.5-0.1-3-0.2-4.5-0.3
			c0.4-3.5-0.1-8.4-4.2-8.5c-3.9-0.1-4.2,5-3.5,8.2c-1.7,0-3.3-0.1-5-0.1c0,0,0,0,0-0.1c-0.4-5.9,2.6-17,10.9-12.9
			C308.4,121,308.3,126.9,310.5,131.8z M302.2,131.4c-1.3-0.1-2.5-0.1-3.8-0.1c-0.2-2.5,0.2-7.5,2.7-5.7
			C303.1,126.8,302.3,129.3,302.2,131.4z M276.3,123.4c-4.3,0.2-4,5.4-3.8,8.5c-1.2,0.1-2.4,0.2-3.6,0.3c-0.1-0.2-0.1-0.4-0.2-0.5
			c0-0.1,0.1-0.3,0-0.5c-0.2-0.9-0.4-2-0.7-3.1c-0.2-4.7,2.3-8.9,7-11.3c0.6-0.3,1.3-0.5,1.9-0.7c0.7,0,1.4-0.1,2.2-0.1
			c5.6,0.8,8.8,9.9,9.4,14.8c0,0.1,0.1,0.3,0.1,0.4c-2,0-4,0.1-6,0.2C282.1,128.2,279.8,123.3,276.3,123.4z M280.5,131.4
			c-2.2,0.1-4.3,0.2-6.5,0.4c0.1-2.3,0-6.9,2.8-6.3c1.3,0.3,2.2,2.2,2.7,3.2C279.8,129.6,280.1,130.5,280.5,131.4z M262.8,132.2
			c-0.9-2.7-2.1-8.6-6.2-7.8c-4.2,0.8-2.8,6.9-1.5,9.5c0,0,0.1,0.1,0.1,0.1c0,0,0,0,0,0c-1.2,0.2-2.4,0.4-3.6,0.6
			c-1-5.7-1.1-13.4,5.2-16c4.7-2,6.6,1.4,7.8,5.1c0.5,1.6,1,3.2,1.6,4.7c0.2,0.8,0.5,1.5,0.8,2.3c0.1,0.3,0.2,0.6,0.3,0.9
			c0.1,0.3,0.3,0.4,0.5,0.5c0,0.1,0.1,0.1,0.1,0.2c-1.7,0.2-3.5,0.4-5.2,0.6C262.9,132.7,262.9,132.5,262.8,132.2z M256.5,133.3
			c-0.4-1.3-0.7-2.7-0.7-4.1c0-1.4,0.5-3.5,2.3-2.3c2,1.4,1.5,4.4,3,6.2c-1.5,0.2-3.1,0.4-4.6,0.7
			C256.5,133.7,256.5,133.5,256.5,133.3z M239.2,128.8c-4.3,1-3.7,6.2-2.4,9.2c-1,0.3-1.9,0.5-2.9,0.8c-1.5-4.7-2-15.5,5.5-15.2
			c5.2,0.2,8.4,7.1,9.7,11.5c-1,0.2-2.1,0.4-3.1,0.6c0-0.1,0-0.1,0-0.2C245.9,132.3,242.9,128,239.2,128.8z M244.4,136.1
			c-2.1,0.5-4.1,1-6.2,1.5c-0.3-1.9-1.6-7,2-6.7c2.7,0.2,2.9,3.3,4,5.1C244.3,136.1,244.3,136.1,244.4,136.1z M230.4,134.1
			c-2.3-3.4-5.4-6.6-9.1-7.3c4.3-1.5,8.6-2.8,13-4C231.2,125.3,230.1,129.9,230.4,134.1z M246.5,114.7c-0.2-7.3,5.2-14.5,12.5-15.7
			c8-1.4,15.7,4.6,17.4,12.3c0.3,1.5,2.6,1.4,3,0c1.5-5.7,5.6-11.1,11.5-12.9c9.6-2.9,10,8.5,9.4,14.8c0,0.1,0,0.1,0,0.2
			c-17.9-1-36,0.1-53.5,3.5c0-0.1,0-0.1,0-0.2C246.7,116,246.6,115.4,246.5,114.7z M277.9,106.4c-3.4-6.8-11-11.4-18.8-10.4
			c0-0.1-0.1-0.3-0.2-0.4c-0.1-0.1-0.1-0.2-0.2-0.3c0.3-7.6,7.9-11.2,15.1-11.3c7.1-0.1,11.9,6,14.9,11.8c0,0,0,0.1,0.1,0.1
			C284,97.5,280.1,101.7,277.9,106.4z M256.8,92.6c-4-4.5-10.3-6.7-16.3-5.6c-0.1,0-0.2,0-0.2,0.1c2-5.6,5.8-11.1,11.7-12.9
			c6.5-2,13,1.8,15.6,7.8c0,0,0,0,0,0C262.2,83.7,257.2,87.1,256.8,92.6z M240.4,90.2c6-1.4,12.4,1.2,15.6,6.5
			c-5.7,1.9-9.9,6.7-11.7,12.4c-3.5-5.1-10.2-7.6-16.6-6.4C229.7,96.8,234.2,91.6,240.4,90.2z M243.5,115.6c0,0.3,0,0.6,0.1,1
			c0,0.1,0,0.1,0,0.2h0c0,0.1,0,0.3,0,0.4c0,0.1,0.1,0.3,0.1,0.4c-8.4,1.8-16.6,4.1-24.7,7c-1,0.3-1.9,0.7-2.8,1.1c0,0,0,0,0,0
			c-1.6-7.1,1.2-15,7.9-18.5C231.9,103.1,242.4,106.5,243.5,115.6z M248.8,127.9c-1.9-3.2-4.5-6.1-7.7-6.8c3.7-0.8,7.4-1.6,11.1-2.2
			C249.9,121.2,249,124.5,248.8,127.9z M266.6,122.5c-0.7-2.1-1.7-4-3.1-5.2c2.5-0.3,4.9-0.5,7.4-0.7
			C269,118.1,267.4,120.2,266.6,122.5z M284.2,115.9c3.9-0.1,7.8,0,11.6,0.1c-3.7,2-5.4,6.7-5.5,11.2
			C289.2,123.2,287.2,118.7,284.2,115.9z M292.8,94.8c-0.4,0-0.8,0.1-1.2,0.1c0,0,0-0.1,0-0.1c-0.3-2.9,0.1-5.6,1.5-8.2
			c1.2-2.2,3.1-3.4,4.8-5.1c3.2,6.6,4.9,13.8,4.8,21.2C301.5,98.2,298.7,94.4,292.8,94.8z M288.8,89.8c-4.1-5.7-10-10-17.4-8.7
			c-0.3,0.1-0.6,0.1-0.9,0.2c2-7.7,8.3-12.8,16-14.1c0.1,0,0.2-0.1,0.3-0.1c4,3.4,7.3,7.5,9.8,12C292.3,80.5,289.7,85.2,288.8,89.8z
			 M268.5,77.5c-3.6-5.1-10-7.9-16.3-6.5c-0.2,0-0.4,0.1-0.6,0.2c1.3-7.3,6-11.5,12.4-14.7c0.4-0.2,0.7-0.6,0.7-0.9
			c6.6,2.5,13.3,5.1,19,9.1C276.9,66.2,271.2,71.1,268.5,77.5z M249.2,67.9c-3.6-3.5-8.2-5.8-13.2-6.3c-1.5-0.2-4-0.3-6.2,0.1
			c5-6,9.5-12.4,11.6-20.1c5.4,6.2,12.6,9.6,20.1,12.6C255.4,56.3,251,62,249.2,67.9z M239,65.2c4,1.3,7.3,3.7,9.9,7
			c-5,2.3-8.6,7-10.7,12.1c-5.1-7-14.8-9.9-22.5-5.6c0.6-0.8,1.2-1.6,1.8-2.4c2.4-3.2,5.1-6.2,7.8-9.3c0.2,0,0.4-0.1,0.5-0.4
			C227.6,62.5,236,64.2,239,65.2z M237,88c-5.2,2.1-9.2,6.6-11.5,11.8c-4.6-4.8-11.8-9.2-17.2-4.4c0.8-4.7,2.6-9,5-13.1
			c0,0,0.1,0,0.1,0C221.9,77.3,232.3,78.9,237,88z M217.5,129.5c6.6-1.9,11.2,5.2,14,9.9c0,0,0,0.1,0.1,0.1c-1.6,0.5-3.3,1-4.9,1.6
			c0.2-0.2,0.3-0.5,0.2-0.8c-0.2-0.8-0.9-1.3-1.4-2c-0.6-0.7-1.2-1.5-1.9-2.2c-1.3-1.2-3.1-1.8-4.7-0.9c-1.9,1-2.5,3.3-2.3,5.3
			c0.1,1.2,0.3,3,1.3,3.8c-1.4,0.5-2.7,1.1-4,1.7c-0.1-0.3-0.2-0.6-0.3-0.9C211.9,139.9,211.6,131.2,217.5,129.5z M226.1,141.3
			c-2.3,0.8-4.5,1.6-6.8,2.5c0,0-0.1-0.1-0.1-0.1c-1.7-1.7-0.3-8.5,2.7-5.8C223.2,139,224.2,141.4,226.1,141.3z M230.9,142.8
			c34.1-10.5,71.5-11,106.3-4.3c32.6,6.3,61.7,21.5,83.6,46.6c19.9,22.7,32.9,51.4,37.2,81.3c4.8,33.6-1.6,68.5-15.7,99.2
			c-1.9,4.1-3.9,8.1-6,12.2c-0.2,0.2-0.4,0.5-0.4,0.8c-14.1,26.3-34.2,50.9-61,64c-28.4,13.9-60.9,20-92.6,19.4
			c-0.3-0.1-0.6-0.1-0.9,0c-4.1-0.1-8.1-0.3-12.2-0.6c-0.2-0.2-0.4-0.2-0.7-0.1c-0.7-0.1-1.4-0.1-2-0.2c-0.7-0.1-1.4-0.1-2.1-0.2
			c-0.3-0.1-0.6-0.2-0.9-0.1c-7.9-0.8-15.8-2.1-23.6-3.8c-0.1-0.1-0.3-0.1-0.5-0.1c-0.2,0-0.4-0.1-0.6-0.1c-0.2,0-0.4,0-0.5,0
			c-6.1-2-12.4-3.3-18.5-5.3c-3.6-1.2-7.1-2.5-10.5-4.1c-1.2-0.5-2.3-1.2-3.5-1.8c0,0,0-0.1,0-0.1c-1.3-0.6-2.6-1.1-3.8-1.8
			c-15-5.1-27.4-18.1-37.6-29.7c-10.6-12-19.5-25.3-26.7-39.6c-14.4-28.7-21.2-61.3-18.2-93.4c2.9-30.4,14.7-59.8,33.2-84
			C172.7,171.1,199.8,152.4,230.9,142.8z M425.9,400c0.9,0.6,1.7,1.2,2.5,1.9c0.7,0.7,2,1.7,2,2.8c0,1.8-3.1,0.6-4,0.2
			c-1-0.5-1.8-1.2-2.5-2C424.6,402,425.3,401,425.9,400z M410.2,421.8c3.3,1.9,7.9,3.8,11.5,3.3c-2.6,2.7-5.2,5.3-7.9,7.8
			C414.9,429.1,413,424.9,410.2,421.8z M400.5,436.7c2.1,1.4,4.5,2.3,6.7,2.1c-2,1.7-4.1,3.4-6.2,5
			C401.6,441.6,401.3,439,400.5,436.7z M397.9,431.4c0.6-0.5,1.2-1,1.9-1.6c0.2-0.1,0.3-0.3,0.5-0.4c1.3,2.9,5.9,6.3,8.5,3.3
			c1.1-1.3,0.9-3.2,0.2-4.6c-0.5-0.9-1.3-1.7-2.1-2.4c-0.4-0.4-0.9-0.8-1.3-1.2c0.6-0.6,1.3-1.3,1.9-1.9c2.8,2.8,5.5,6.6,3.5,10.7
			C407.8,439.6,401.3,434.8,397.9,431.4z M386.5,446.6c2.1,1.6,4.4,2.8,6.8,3c-2.4,1.7-4.8,3.3-7.2,4.8
			C387.4,452.2,387.3,449.3,386.5,446.6z M384.2,441.1c-0.1-0.1-0.2-0.2-0.3-0.2c0.9-0.5,1.7-1,2.6-1.5c2,2.1,5.5,4.6,7.8,2.7
			c2.4-2,0.7-5.3-1.5-6.8c1-0.7,2.1-1.5,3.1-2.3c2.6,3.5,5.2,11.4-0.1,13.6C391.1,448.5,387.1,444.2,384.2,441.1z M370.3,451.8
			c2.8,3.4,6.5,6.3,10.9,5.5c-3.4,2-6.9,3.9-10.5,5.7C372.8,460,371.9,455.6,370.3,451.8z M379.4,455.1c-4.4-0.1-7.4-4-10-7
			c1.2-0.5,2.3-1,3.5-1.5c1.2,2.6,4.7,6.5,7.5,4.1c2.3-2,1.1-5.5-1-7.2c1-0.5,1.9-1,2.9-1.5c0,0.2,0,0.5,0.1,0.7
			C384.4,446.7,387.1,455.3,379.4,455.1z M356.8,462c1.9,2.3,4.2,4.1,6.9,4.4c0,0-0.1,0-0.1,0c-2.8,1.3-5.7,2.5-8.6,3.6
			C356.7,467.9,357.1,464.9,356.8,462z M354.9,454.3c-0.2-0.4-0.5-0.6-0.9-0.6c1.1-0.3,2.1-0.7,3.2-1.1c0,1.4,0.5,2.8,1.4,3.9
			c1,1.3,2.9,2.7,4.6,2.5c1.9-0.2,2.3-2.5,1.9-4c-0.3-1.6-1.4-3.2-2.7-4.3c1.2-0.5,2.5-0.9,3.7-1.4c2.1,3.8,6.3,12.2-0.4,14.2
			C360.1,465.2,356.9,458.5,354.9,454.3z M358.6,452.2c0.7-0.2,1.3-0.5,2-0.7c0.7,0.9,1.5,1.6,2.1,2.6c0.5,0.8,1.5,3.2-0.3,3
			C360.1,456.9,358.9,454.2,358.6,452.2z M374,446c1.2-0.5,2.3-1.1,3.5-1.7c1.1,1.4,3.2,3,1.8,4.8C377.7,450.9,375.1,447.6,374,446z
			 M387.6,438.7c1.2-0.7,2.3-1.5,3.5-2.3c0.6,0.6,1.3,1,1.8,1.7c0.9,1.2,0.9,3-1.2,2.8C390.2,440.8,388.8,439.8,387.6,438.7z
			 M401,428.6c1-0.9,2.1-1.9,3.1-2.9c1.2,1.7,4.2,2.9,3.4,5.2C406.5,434.1,402.8,429.9,401,428.6z M409.8,420.1
			c1.1-1.2,2.2-2.3,3.2-3.5c1,0.9,2.5,1.5,3.4,2c1.4,0.6,3.4,1.3,4.3-0.4c0.8-1.4-0.1-3.3-0.9-4.6c-0.5-0.8-1.3-1.8-2.2-2.5
			c0.8-1,1.6-2,2.4-3c0.1,0.1,0.3,0.2,0.4,0.3c3.3,2.6,6.4,8.1,4,12.1C421.7,425,414.2,422.2,409.8,420.1z M414.1,415.3
			c0.7-0.8,1.4-1.7,2.1-2.5c0.4,0.3,0.8,0.6,1.2,1c0.4,0.5,2.1,2.5,1.6,3.2C418.4,418,415.9,416.3,414.1,415.3z M346.7,458.6
			c0.5,0.8,1.8,1.9,1.5,3c-0.3,1.3-2.2,0.9-3,0.4c-1.3-1-1.6-2.8-2-4.3c-0.1-0.3-0.3-0.5-0.5-0.5c1-0.3,2-0.5,3-0.8
			C345.7,457.1,346.2,457.9,346.7,458.6z M328.9,466.7c-2.9,2.4-4.1-3.7-4.4-5.6c1.3-0.2,2.6-0.5,4-0.7
			C329.2,462.5,331,464.9,328.9,466.7z M317.2,482.3c1,7.7-5.2,16-13.2,16.1c-7.9,0.1-14.5-7.9-13.5-15.6c9.1-0.2,18.2-0.7,27.2-1.8
			C317.4,481.3,317.2,481.7,317.2,482.3z M227.6,476.6c0.9,0.2,1.9,0.4,2.8,0.6c8.4,1.7,17,3,25.5,4c-0.1,0.1-0.1,0.3-0.2,0.5
			c-1.1,7.7-8.5,13.8-16.4,12.4c-7.8-1.4-12.9-9.8-11.8-17.3C227.6,476.7,227.6,476.7,227.6,476.6z M256.4,488.7
			c1.5,6.7,5.5,12.4,13.1,13c-2.7,5.6-8.9,9.2-15.1,8.3c-6.5-0.9-11.5-6.4-12.4-12.8C247.8,497.2,253.3,493.7,256.4,488.7z
			 M258.6,481.5c3,0.3,5.9,0.5,8.9,0.7c6.5,0.4,13.1,0.6,19.7,0.6c-1.7,7.5-6.5,15-14.8,15.9c-10.1,1.1-13.7-8.1-13.7-16.6
			C258.8,481.8,258.7,481.6,258.6,481.5z M253.9,512.9C253.9,512.9,253.9,512.9,253.9,512.9c6.5,0.9,12.7-2.1,16.5-7.2
			c1.6,5.1,6.6,8.8,12,9.5c-0.1,0.1-0.1,0.2-0.1,0.4c-1.8,7.1-8.5,13.1-16.2,12.4C258.7,527.3,253.2,520.1,253.9,512.9z
			 M272.7,501.7c7.3-0.7,12.5-5.8,15.5-12.2c1.8,5.4,6.2,10,11.7,11.5c-2.9,5.3-7.5,10.2-13.7,11.2
			C279.8,513.4,272.6,508.6,272.7,501.7z M291.9,467.6c0.1,0.9,0.3,2.5-0.7,3.1c-2.1,1.4-3-4.6-3-5.6c0-0.6-0.8-0.7-1.1-0.1
			c-1,2.6,0,7.8,3.4,8.1c1.5,0.1,2.6-1,3.2-2.2c0.9-1.9,0-3.9,0.4-5.9c0-0.2,0-0.4-0.1-0.6c2-0.1,3.9-0.1,5.9-0.3c0,0.1,0,0.2,0,0.3
			c-0.2,5.2-1.4,15.1-9,13.7c-6.2-1.1-7.3-8.3-7.7-13.6c2.9,0,5.9,0,8.8,0C291.7,465.4,291.8,466.4,291.9,467.6z M301.2,471.8
			c1,3.3,2.7,6.3,5.4,7.7c-4,0.3-8.1,0.6-12.1,0.7C298.2,479.2,300.2,475.6,301.2,471.8z M311.2,477.9c-7.2,0.8-8.6-8.4-9-13.6
			c0-0.2-0.1-0.3-0.1-0.4c0.9-0.1,1.9-0.1,2.8-0.2c-1.1,2.2,1.7,6.5,3.6,7.2c4.3,1.6,5.7-4.5,4.8-8.1c1.1-0.1,2.3-0.3,3.4-0.4
			c0,0,0,0,0,0.1C318.6,467.8,319,477,311.2,477.9z M306.3,463.5c1.6-0.1,3.1-0.3,4.7-0.5c0.3,2.4,0.8,6.4-1.5,6.1
			C307.9,468.9,305.4,465.2,306.3,463.5z M269.2,471.3c1.7,0.9,3.7,0.1,5-1.2c1.4-1.5,1.7-3.9,1.5-5.9c1.7,0.1,3.3,0.2,5,0.2
			c-0.3,5.2-1.4,12.4-7.8,12.7c-5.8,0.2-8.6-4.6-9.1-9.6c0.5-1.4,0.9-2.7,1.2-4.1c0.7,0.1,1.3,0.1,2,0.2
			C265.8,466.2,266.3,469.8,269.2,471.3z M268.5,463.6c1.7,0.1,3.3,0.3,5,0.4c-0.1,1.2,0,2.4-0.4,3.6c-0.6,1.5-2.4,2.7-3.8,1.3
			C268.1,467.5,267.9,465.4,268.5,463.6z M253.6,470.9c1.8,0.1,2.8-1.4,3.3-2.9c0.5-1.5,1.1-3.9,0.5-5.6c1.6,0.2,3.2,0.4,4.8,0.6
			c-0.2,0.9-0.4,1.8-0.5,2.6c-1.2,3.8-3,7.6-6.9,9c-3.6,1.3-6.9-0.5-8.1-4.1c-1-3.2-0.2-6.6,0.5-9.7c1.4,0.3,2.8,0.5,4.2,0.7
			C250.4,464.3,249.2,470.5,253.6,470.9z M252.5,461.7c1,0.2,2,0.3,3,0.5c-0.3,1.6,0,6.8-2,6.5C251.5,468.4,252.5,463.6,252.5,461.7
			z M238.4,459c0,0.5-0.1,1-0.2,1.4c-0.3,1.4-1,2.9-2.4,3.4c-1.7,0.6-2.8-0.8-2.9-2.4c-0.1-1.4,0.7-2.5,1-3.8
			c1.2,0.2,2.4,0.4,3.6,0.6C237.7,458.6,237.9,458.9,238.4,459C238.4,459,238.4,459,238.4,459z M219.8,454.1
			c-0.9,1.8-0.7,5.6-3.2,5.6c-1.5,0-0.9-2.7-0.6-3.6c0.3-1,0.8-1.9,1.4-2.7c0.5,0.1,0.9,0.3,1.3,0.4
			C219,453.9,219.4,454,219.8,454.1z M199.5,446.3C199.5,446.2,199.5,446.2,199.5,446.3c0.1-0.3,0.3-0.5,0.5-0.7
			c0.2,0.1,0.5,0.2,0.7,0.2c0.3,0,0.6,0.2,0.7,0.5c0.5,0.4,1,0.8,1.5,1.1c-0.3,0.9-0.4,1.9-0.9,2.8c-0.5,1.2-1.6,3-3.1,3
			c-1.5,0-1.8-1.8-1.4-2.9c0.2-0.8,0.7-1.5,1.2-2.2c0.1,0,0.1-0.1,0.2-0.2c0.1-0.1,0.2-0.3,0.3-0.4c0,0,0.1,0,0.1,0c0,0,0,0,0,0
			c0.1-0.3,0.2-0.6,0.4-0.8c0,0,0,0,0,0c0,0,0-0.1,0.1-0.1C199.7,446.4,199.6,446.3,199.5,446.3z M134.8,444.1
			c-6.2,1.1-12.9-1.5-16.3-7c-3.2-5.3-2.5-12.2,1-17.1c4.2,4.3,10.6,6.1,16.5,5.1C132.4,430.7,131.8,438.1,134.8,444.1z
			 M133.5,447.1c-2.2,5.8-1,12.5,3.3,17.1c-5.9,3.1-13.6,1.6-17.9-3.7c-4.4-5.4-4.1-13.1-0.6-18.9
			C122.2,445.7,127.9,447.6,133.5,447.1z M136.6,447c0.2,0.2,0.4,0.5,0.6,0.7c5.9,6.7,16.3,7.6,23.7,3.2c-0.7,4-0.1,8.3,1.7,11.9
			c-6.8,2.7-15.4,5.5-21.8,1C135.6,460.1,133.9,452.6,136.6,447z M140,446.2c-6.2-6.3-5-17.6,1.8-23c6.2,7.9,13.2,15.4,21,22.1
			C157,451.6,146.2,452.4,140,446.2z M138.9,415c3.4,1.2,7.8-0.6,11.4-2.7c-2.9,4.7-5.1,10.4-1.2,14.5c3.6,3.7,9.2,1.9,13.5-1
			c-2.8,4.7-4.4,11-0.4,14.7c4.3,4,9.2,1.1,13.2-2.2c-1.5,3.8-3,8.5-2.4,12C160,440.3,148.5,428.4,138.9,415z M131.7,368.6
			c-3.3-0.1-7.7,3.8-5.6,7.3c2.1,3.4,6.2,0,9.1-0.1c0.5,1.1,1.1,2.2,1.6,3.2c-0.3,0-0.6,0-0.9,0.3c-0.1,0.1-0.2,0.1-0.3,0.2
			c0,0,0,0,0,0c0,0,0,0-0.1,0c-4.1,3-12.9,6.2-14.1-1.3c-0.9-5.6,4.3-9.4,8.3-12.2c0.3-0.2,0.5-0.6,0.5-1c0.5,1.2,1,2.4,1.6,3.7
			C131.8,368.6,131.8,368.6,131.7,368.6z M132.1,370.1c0.1-0.1,0.2-0.2,0.3-0.4c0.7,1.5,1.4,3,2.1,4.5c-1.8,0-3.4,1.1-5.2,1.3
			c-1.9,0.1-2.2-1.9-1.2-3.2C129.2,371.1,130.9,371,132.1,370.1z M137.5,380.8c0.1-0.1,0.1-0.1,0.2-0.2c0.5,1,1.1,2.1,1.7,3.1
			c-1.8,0.2-3.4,0.9-4.8,2.1c-1.4,1.2-2.8,3.1-2.1,5c0.6,1.8,2.6,2.1,4.1,1.5c2-0.7,3.1-2.8,5-3.7c0.2-0.1,0.3-0.3,0.4-0.5
			c1,1.6,2,3.3,3,4.9c-0.3,0-0.6,0.1-0.9,0.4c-2,2.1-4.2,3.5-7,4.2c-2.5,0.6-8.6,1.3-9.1-2.7c-0.5-3.8,2.8-8,5.8-11.3
			C135.2,382.8,136.5,381.8,137.5,380.8z M140.1,385.1c0.4,0.6,0.7,1.3,1.1,1.9c0,0-0.1,0-0.1,0c-1.1,0-2,0.5-2.8,1.3
			c-0.8,0.7-2,2.6-3.3,2.2c-1.8-0.5,0.9-3.3,1.6-3.8C137.6,385.8,138.8,385.3,140.1,385.1z M135.9,400.2c1.2-0.2,2.3-0.5,3.3-0.9
			c-2.2,3.1-4.2,6.8-4.3,9.9c-1.7-2.5-3.3-5.1-4.8-7.7c-0.3-0.6-0.6-1.1-1-1.7C131.3,400.6,134,400.5,135.9,400.2z M140.8,401.7
			c1.4-2.4,3.1-4.5,4.9-6.6c0.1-0.1,0.2-0.3,0.3-0.5c0.7,1.1,1.4,2.2,2.2,3.3c0,0-0.1,0-0.1,0.1c-1.8,1.3-7.5,6.1-4,8.3
			c1.1,0.8,2.8,0.6,3.9,0c0.8-0.4,1.3-1.2,1.9-1.8c0.5-0.6,1.2-1.2,1.7-1.8c1,1.4,2,2.7,3,4.1c-0.2,0-0.3,0.1-0.4,0.2
			c-2.6,2.1-15.6,10.6-16.6,2.9C137,407.2,139.5,403.8,140.8,401.7z M148.6,398.7C148.6,398.7,148.6,398.7,148.6,398.7
			c0.6,0.7,1.2,1.5,1.7,2.3c-1.8,0.7-2.3,3.4-4.3,3.7c-0.3,0.1-1,0.1-1.2-0.2c-0.3-0.5,0.6-1.7,0.9-2.2
			C146.5,401,147.5,399.8,148.6,398.7z M155.1,413.9c-0.9,1.4-2.1,3.6-0.7,5.1c1.1,1.1,3.1,1.1,4.4,0.4c1.4-0.7,2.3-2.3,3-3.8
			c1.3,1.5,2.6,2.9,3.9,4.3c-0.1,0.1-0.2,0.1-0.3,0.2c-3,3.2-12.9,10.1-15.6,3.2c-1.9-4.8,3.2-11.3,5.9-15c0.8,1,1.6,2,2.5,3
			C157,411.7,155.9,412.7,155.1,413.9z M159.3,412.7c0.4,0.5,0.8,0.9,1.2,1.4c-1.1,1.7-1.9,4.2-4,3.8c-1.5-0.3-0.4-2.1,0-2.9
			C157.2,413.8,158.1,413,159.3,412.7z M165.3,447.5c3.4,2.9,7,5.6,10.7,8.2c4.3,3,8.8,5.8,13.4,8.2c-5,5.3-13.6,6.7-19.7,2.4
			C163.8,462.1,162.2,453.8,165.3,447.5z M176.3,444c0.8-3.3,1.9-6.5,3.4-9.5c0.6-1.3-0.8-2.3-1.9-1.5c-3.4,2.8-8.7,9.5-13.5,5.7
			c-4.6-3.7-0.2-12.5,2.7-16c0.2-0.2,0.2-0.5,0.2-0.7c0,0,0,0,0-0.1c0.1-0.1,0.1-0.2,0.2-0.3c0.8,0.8,1.7,1.7,2.5,2.5
			c-3,1.4-6.4,5.3-3.8,8.3c2.6,3.1,7-0.8,8.5-3.9c2.8,2.5,5.6,5,8.5,7.3c-1.4,0.9-2.5,2.2-3.2,3.7c-0.8,1.7-1.1,4.1,0.7,5.3
			c1.4,1,3.5,0.7,4.9-0.3c1.3-1,2.6-3.4,2.4-5.2c1.9,1.3,3.8,2.4,5.7,3.5c0,0,0,0,0,0c-2.6,4.6-7.5,9.4-13.1,9.9
			C174.8,453.2,175.4,447.9,176.3,444z M170.8,425c0.7,0.7,1.4,1.4,2.2,2c-0.6,0.9-1.1,1.9-1.9,2.7c-0.8,0.8-2.9,2.5-3.6,0.9
			C166.4,428.5,169.1,426.1,170.8,425z M184.6,436.9c0.6,0.5,1.2,0.9,1.9,1.4c0,0,0,0,0,0c-1.3,1.3-1.3,6-4.3,4.9
			C179.6,442.3,182.8,438.6,184.6,436.9z M127,356.3c-1.1,0.2-2.3,0.5-3.4,0.8c-1.2,0.3-2.9,0.8-3.2-0.9c-0.6-2.6,2.9-3.3,4.4-4.4
			c0.3-0.2,0.4-0.5,0.4-0.8C125.7,352.7,126.3,354.5,127,356.3z M117.2,278.6c-1.5-0.4-3.3,0.3-4.7,0.9c-1.3,0.5-2.9,1.2-3.1,2.7
			c-0.2,1.4,0.8,2.4,1.9,3.1c1.6,1,3.4,2,5.1,2.7c0,0.8-0.1,1.5-0.1,2.3c-0.2-0.2-0.5-0.4-0.8-0.4c-4.4-0.5-10.5-1.9-9.4-7.8
			c1-5.4,6.3-8.1,11.5-7.2C117.5,276.2,117.3,277.4,117.2,278.6z M118.2,321.2C118.1,321.2,118.1,321.2,118.2,321.2
			c-1.2,0.3-2.4,0.4-3.6,0.1c-1-0.2-3.6-1.3-1.9-2.5c0.8-0.6,1.7-1,2.7-1.3c0.7-0.2,1.5-0.3,2.2-0.5
			C117.8,318.4,118,319.8,118.2,321.2z M117,280.3c-0.2,2.2-0.4,4.3-0.5,6.5c-0.6-0.5-1.3-0.9-2-1.4c-0.8-0.5-2.7-1.3-3.1-2.3
			c-0.3-0.8,0.3-1.1,1-1.5c0.6-0.3,1.3-0.6,2-0.8C115.3,280.7,116.2,280.6,117,280.3z M116.4,302.7c-1.8,0.1-5.7,0.3-5-2.3
			c0.6-2.3,3.2-1.7,4.9-2.4C116.3,299.6,116.4,301.2,116.4,302.7z M110,291.3c-2.1,0.8-4.1,2-5.5,3.6c0.1-2.4,0.2-4.8,0.3-7.2
			C106,289.4,107.8,290.6,110,291.3z M115.6,292.4c0.3,0,0.6-0.1,0.8-0.3c0,1.4,0,2.8,0,4.2c-1.5-0.5-3.5-0.1-4.8,0.7
			c-1.3,0.7-2.3,2.1-2.3,3.6c0,1.5,1,2.7,2.3,3.4c1.6,0.8,3.4,0.6,5.1,0.1c0.1,2,0.2,4,0.4,6c-0.1,0-0.2,0-0.3,0
			c-4.6,1.2-10.9-1.7-12.2-6.3c0-1.3,0-2.5,0-3.8C105.6,295.2,110.8,292.8,115.6,292.4z M111.9,312.6c-3.1,1.9-5.8,4.6-6.7,7.9
			c-0.3-3.9-0.6-7.8-0.7-11.8C106.4,310.7,109.1,312,111.9,312.6z M113.5,331.1c-2.5,1.6-4.9,3.8-6.2,6.3c-0.6-3.4-1.1-6.9-1.5-10.3
			C107.3,329.8,110.3,330.8,113.5,331.1z M107.4,322.4c0.4-4.6,4.3-7.2,7.8-9.7c0.6,0,1.3-0.1,1.9-0.3c0.1,0.9,0.2,1.8,0.3,2.7
			c-1.4-0.2-2.9,0.3-4.1,0.9c-1.4,0.7-3.4,1.9-3.3,3.7c0.3,3.7,5.8,3.9,8.4,2.8c0.3,2.1,0.7,4.1,1.1,6.2c-0.2-0.2-0.4-0.2-0.8-0.2
			C113.9,329.1,106.9,329,107.4,322.4z M127.7,208.7c4.2-1.6,9.1-0.6,13.3,0.5c-0.3,0.5-0.6,1-0.9,1.6c-2.2-1.8-6.4-1.6-7.9,0.9
			c-1.8,2.9,1.2,5.4,3.6,6.5c0.1,0,0.1,0,0.1,0c-0.7,1.4-1.5,2.8-2.2,4.2c0,0-0.1,0-0.1-0.1C128.9,220.6,118.3,212.2,127.7,208.7z
			 M125.8,220.6c-2.2-0.3-4.3-0.4-6.2,0c0.7-1.7,1.4-3.4,2.2-5C122.5,217.5,124,219.2,125.8,220.6z M173.4,163.3
			c-3.4-2.8-7.7-4.2-11.7-2c3.9-3.5,8.1-6.8,12.3-9.9C172.3,154.9,172.5,159.2,173.4,163.3z M173.9,170.6c-1.1,0.9-2.1,1.8-3.1,2.7
			c-0.6-0.8-1.2-1.6-1.7-2.5c-0.3-0.5-1.1-1.6-0.7-2.2c0.2-0.3,1.1-0.3,1.5-0.3c1,0,1.9,0.3,2.7,0.9
			C173.2,169.6,173.5,170.2,173.9,170.6z M173.6,167c-0.2-0.1-0.4-0.3-0.6-0.4c-1.4-0.7-3.1-0.9-4.6-0.4c-1.7,0.5-2.7,1.8-2.1,3.5
			c0.7,1.8,1.8,3.4,3.2,4.7c-1,0.9-2,1.9-3,2.8c-3.5-3-9.9-8.3-4.8-12.8C165.6,160.9,170.5,163.6,173.6,167z M160.7,175.8
			c1.2,1.3,2.5,2.5,3.9,3.4c-0.9,1-1.9,1.9-2.8,2.9c-1.1-1.5-3.2-2.8-4.9-3.6c-1.4-0.7-3-0.5-4.1,0.7c-2.7,2.9,0.3,6.4,3.3,7.3
			c0.9,0.3,1.4-1,0.6-1.5c-0.9-0.5-2-1.1-2.5-2.1c-0.5-1-0.2-2.8,1.2-2.7c0.9,0.1,2.1,1.2,2.8,1.7c0.8,0.5,1.5,1.1,2.4,1.3
			c-2.8,3-5.5,6.1-8,9.3c-0.1-0.2-0.2-0.3-0.3-0.4c-3.9-4-9.7-11-3.9-16.1c2.4-2.1,5.6-2.6,8.6-1.9
			C158.4,174.5,159.5,175.2,160.7,175.8z M148.6,196.9c-1.6-2.6-6.9-3.6-8.3-0.3c-1.4,3.4,2,5.5,4.8,6.3c-1,1.5-2,3-3,4.5
			c-0.1-0.2-0.2-0.3-0.4-0.4c-4.6-2.8-8.6-6.6-8.2-12.6c0-0.2,0-0.5,0.1-0.7c0.9-1.4,1.8-2.8,2.8-4.1c4-1.6,11.2,2.4,14.3,4.7
			c0.1,0.1,0.3,0.2,0.4,0.2c-1.8,2.4-3.6,4.8-5.3,7.3c-1.7-0.8-4.4-2-3.9-4.2c0.3-1.3,1.9-1.4,2.9-1c1,0.4,1.7,1.2,2.7,1.4
			C148.4,198.3,149,197.6,148.6,196.9z M138.6,186.5c1.5-2,3.1-4.1,4.7-6c-0.1,2.7,1,5.4,2.6,7.9C143.5,187.4,141,186.6,138.6,186.5
			z M158,171.7c-0.5-0.2-1.1-0.3-1.6-0.4c-1.8-0.3-3.6-0.2-5.3,0.3c2.3-2.4,4.7-4.8,7.1-7.1C156.8,166.7,157,169.3,158,171.7z
			 M141.6,177.9c-2.5,3.1-4.9,6.3-7.2,9.5c-0.3,0.2-0.6,0.4-0.9,0.7c0,0,0,0-0.1-0.1c-3.6-2.8-4.6-6.9-5.5-11.1
			c-0.6-3.2-1.2-6.4,0.3-9.4c1-2,2.7-3.6,4.4-5.1c4.1-3.4,9.2-5.9,14.6-6.2c4.6-0.3,8.2,1.4,12.2,3
			C153.1,165.1,147.1,171.3,141.6,177.9z M135,205.5c-3-0.5-6.1-0.4-8.6,0.7c1.2-2.2,2.4-4.4,3.6-6.6c0.4-0.6,0.7-1.3,1.1-1.9
			C131.6,200.6,133,203.4,135,205.5z M139.1,212.4c-0.9,1.5-1.7,3-2.6,4.6c0,0,0-0.1-0.1-0.1c-1.3-0.9-3.9-2.7-2.3-4.4
			C135.5,211,137.4,212.1,139.1,212.4z M181.7,154.9c-2.9,2.6-1.3,6.4,0.8,9c-1.7,1.3-3.4,2.6-5.1,3.9c-2-5.8-4.3-13.7,1.6-18.1
			c4.4-3.4,9.8,0.2,13.4,4.1c0.4,0.9,0.9,1.7,1.5,2.5c-0.9,0.6-1.8,1.1-2.8,1.7C189.2,155,184.9,152,181.7,154.9z M189.3,159.1
			c-1.8,1.2-3.7,2.5-5.5,3.8c-1.2-1.8-2.4-4.1-0.9-5.9C185,154.2,187.7,157.4,189.3,159.1z M200.6,145.6c2.8-0.9,3.7,2.5,5.2,4.1
			c-1.9,0.9-3.8,1.9-5.7,2.9C199.3,150.7,197.6,146.6,200.6,145.6z M210,139.8c-2.8-2.9-6.7-4.5-10.8-3.8c4.3-2.2,8.7-4.1,13.1-5.9
			C210.4,132.7,209.8,136.3,210,139.8z M211,145.9c0.1,0.4,0.3,0.8,0.4,1.2c-1.3,0.6-2.7,1.2-4,1.8c-0.6-3.3-4.7-6.6-8-5
			c-3.9,1.9-2.2,6.6-0.6,9.4c-1,0.5-2,1.1-2.9,1.7c-3.3-5.2-5.4-12.4,1.5-15.7C203.2,136.6,208.8,140.6,211,145.9z M190.7,149.3
			c-2.4-2.2-5.2-3.8-8.2-3.7c3.5-2.2,7-4.4,10.6-6.4C190.5,141.9,189.9,145.6,190.7,149.3z M161.6,157.5c0.1-0.2,0.2-0.5,0-0.8
			c-4.7-7.7-3.7-17.9,4.6-22.6c3.5-2,7.7-2.5,11.6-1.3c3.9,1.3,6.1,4,8.6,6.8C177.7,145,169.4,150.9,161.6,157.5z M130.4,156.5
			c-6.2-0.4-12.4,1.4-17.3,5.2c0,0,0-0.1,0-0.1c-2.1-4.3-1.9-9.3,0.2-13.5c0.2-1.5,1.4-2.8,2.6-3.7c0.3-0.3,0.6-0.6,0.8-0.8
			c4.7-4.3,11.3-5.4,17.4-4.4C130.1,144,128.8,150.6,130.4,156.5z M131.6,159.5c-0.8,0.6-1.5,1.3-2.3,2c-4.4,4.1-5.5,8.7-4.4,14.5
			c0.7,3.8,1.7,7.8,4.1,10.8c-6.6-2.4-14.6-1.3-20,3.2c0,0,0-0.1,0-0.1C101.9,174.3,114.7,157.1,131.6,159.5z M107,191.8
			C107,191.8,107.1,191.8,107,191.8c-0.5,0.7-1.1,1.5-1.6,2.3c-4.1,6.6-2.3,14.3,2.1,20c-7.7-6.4-13.2-14.8-16-24.5
			C96.9,187.9,102.2,188.3,107,191.8z M107.5,196c4.8-8.2,15.6-9.3,23.4-5.2c0.3,0.1,0.5,0.2,0.7,0.2c-0.1,0.2-0.2,0.4-0.2,0.6
			c-0.1,0.3-0.2,0.6-0.2,0.9c-5.6,8.8-10.3,18.1-14.3,27.8c0,0,0,0,0,0c-0.4-0.2-0.9-0.4-1.3-0.7c0-0.1-0.1-0.3-0.2-0.4
			C109.1,213.5,102.4,204.6,107.5,196z M118.3,224c3.5-2.9,10.1-0.4,14.3,0.8c-2.1,4.5-4.1,9-5.8,13.6c-4.8-0.7-10.3-3.5-10.7-8.5
			C116.8,227.9,117.5,225.9,118.3,224z M118.6,237.8c-2,0.1-3.9,0.6-5.6,1.6c0.6-1.9,1.2-3.9,1.8-5.8
			C115.7,235.3,117,236.7,118.6,237.8z M122.8,240c1,0.3,2.1,0.6,3.1,0.7c-1.1,3-2.1,6.1-3,9.2c-0.1-0.1-0.3-0.1-0.5,0
			c-2.1,0.5-4.9-1.8-3.6-4c0.5-0.7,1.3-1.2,2.1-1.4c1-0.2,1.7,0.3,2.6,0.4c0.6,0.1,0.9-0.7,0.7-1.2c-0.7-1.5-2.8-1.5-4.2-1.1
			c-1.5,0.4-2.9,1.5-3.4,3.1c-1.1,3.3,2.5,6.7,5.8,5.7c-0.5,1.8-1,3.6-1.4,5.3c-0.1-0.1-0.2-0.1-0.3-0.2c-3.9-1.5-10-4.6-9.9-9.2
			c0.2-0.8,0.4-1.7,0.7-2.5c0.1-0.2,0.2-0.4,0.3-0.5C114.2,240,118.6,239.5,122.8,240z M114.5,255.9c-2,0-4,0.3-5.7,1
			c0.4-1.8,0.7-3.5,1.1-5.3C110.9,253.3,112.6,254.7,114.5,255.9z M120.1,258.7c0.2,0,0.3,0,0.4,0c-0.1,0.4-0.2,0.7-0.3,1.1
			c-0.5,2.3-1,4.5-1.4,6.8c-0.1-0.2-0.3-0.4-0.6-0.4c-1,0-1.9,0.2-2.9,0c-0.8-0.2-1.9-0.9-1.8-1.9c0.3-2.1,3.5-1.5,4.9-1.7
			c0.9-0.2,0.6-1.3,0-1.6c-2.6-1.1-7,0.1-6.9,3.5c0.1,3.5,4.4,3.8,6.9,3.2c0.1,0,0.2-0.1,0.3-0.2c-0.3,1.6-0.5,3.2-0.8,4.8
			c-3.9-0.5-9.1-1.4-11.1-4.9c0.4-2.5,0.8-5,1.3-7.5C111.2,257.7,116.8,258.2,120.1,258.7z M111.6,273.2c-2.4,0.6-4.5,2-5.9,4
			c0.2-2.2,0.5-4.5,0.8-6.7C107.9,271.7,109.7,272.5,111.6,273.2z M105.6,258.9c-1,1-1.7,2.4-1.9,4.2c-0.3,1.7-0.1,3.1,0.5,4.4
			c-0.3,2.1-0.6,4.1-0.8,6.2c-0.4,3.6-0.8,7.2-1,10.8c-6.5-2-11.4-8.3-11-15.3c0.4-7.8,7.6-13.8,15.1-13.9
			C106.1,256.5,105.8,257.7,105.6,258.9z M81,302.1c-6.8,2.5-12.1,8.7-12.8,16c-7-2.7-12.1-9.6-11.8-17.2
			c0.3-7.6,6.1-13.9,13.2-15.9C69.5,292.5,74.9,298.3,81,302.1z M72.7,283.5c1-7.6,8.9-10.8,15.6-12c0.6,5.9,4.2,11.3,9.4,14.2
			c-6.5,2.4-11.7,8.3-12.4,15.3C78.7,297.7,71.6,291.8,72.7,283.5z M85,304.1c0.1,0,0.2,0,0.3-0.1c0.6,7.4,5.9,13.5,12.8,15.8
			c-5.3,3.6-9.5,9.2-10.9,15.4c-0.2-0.1-0.3-0.1-0.5-0.1c-7.8-0.4-15.1-6.7-15.5-14.8C70.8,312.4,77.2,305.1,85,304.1z M88.3,302.4
			c0.1-7.5,6.5-13.9,13.8-14.7c-0.3,4.5-0.4,9.1-0.4,13.6c0,0.5,0,1,0,1.5c0.1,5,0.3,10,0.7,15c-0.1,0-0.2-0.1-0.3-0.1
			C94.6,316.8,88.1,310.1,88.3,302.4z M88.3,268.2c0,0.1,0,0.2,0,0.3c-5.4-2.5-12.4-6.4-9.8-13.5c0-0.1,0-0.1,0-0.1
			c8.1-3.7,17.1-4.8,26.4-2.6c0,0,0.1,0,0.1,0C96.7,253.1,89.2,259.6,88.3,268.2z M66.3,283.2c-7.1,3-12.3,9.9-12.7,17.8
			c0,0.3,0,0.5,0,0.8c-1.8-1.8-3.7-3.6-5-5.8c-1.8-2.9-1.9-5.3-2-8.6c0-0.2-0.1-0.5-0.2-0.6c3.7-4.7,7.5-9.3,11.4-13.9
			C58.7,277.4,62.3,280.6,66.3,283.2z M50.9,303.1c-3,2.7-8.4,8.3-8.8,12.6c-3.1-3.8-6.5-7.4-10.5-10.5c4-4.9,8-9.9,11.9-14.9
			C43.4,295.1,47.4,299.8,50.9,303.1z M86.7,338c-0.2,2.5,0.1,5.1,0.9,7.7c1.7,4.8,5.8,9.3,10.7,11.4c-5.1,0.3-10.1-0.1-15.3-1.6
			c-3.9-1.1-7.5-2.8-10.9-4.8C71.8,343,80.5,339.7,86.7,338z M90.1,343.5c-2.3-9.5,4.3-18.7,12.5-22.8c1.1,11.8,3.1,23.5,6.1,35
			C100.6,356.5,92.2,351.9,90.1,343.5z M119,330.9c0.4-0.1,0.6-0.4,0.7-0.8c0.7,3.3,1.4,6.5,2.2,9.8c-0.1-0.1-0.3-0.1-0.5-0.1
			c-1.7,0.3-3.8,0.8-5.4-0.1c-1.2-0.7-1.9-2.4-0.5-3.3c1.6-1,4.2-1,4.6-3.2c0.1-0.6-0.6-1.4-1.2-0.9c-2.3,1.6-6.8,2.1-6.4,5.8
			c0.5,4.6,6,4.3,9.2,3.2c0.2-0.1,0.3-0.2,0.4-0.3c0.3,1.1,0.6,2.2,0.9,3.3c-0.2,0.1-0.5,0.3-0.7,0.4c-3.7,2.2-12,3.6-13.5-2.4
			C107.6,337.1,115.2,332.4,119,330.9z M117.1,348.8c-2.4,2.4-4.5,5.4-5.4,8.4c-0.9-3.5-1.8-7-2.6-10.5
			C111.2,348.4,114.2,349,117.1,348.8z M113.7,358.8c0.7-4.3,4.3-8,7.5-11.2c0.9-0.4,1.7-0.9,2.3-1.5c0,0,0,0,0.1-0.1
			c0.4,1.4,0.9,2.9,1.3,4.3c-0.1-0.2-0.4-0.3-0.7-0.3c-3.4,0.3-7.2,3.2-6.1,7c1.1,4.1,6.4,2.3,9.4,0.8c0.8,2.1,1.5,4.1,2.4,6.1
			c-0.2-0.2-0.6-0.3-1-0.1c-2.8,1.2-5.8,2.4-8.9,2.2C116.1,365.7,113,363,113.7,358.8z M123.8,395.1c4.6,8.9,9.9,17.5,16,25.5
			c-6.8,3.5-15.9,1.5-20-5.1C115.6,409,118,399.8,123.8,395.1z M117.2,417c0,0,0.1,0.1,0.1,0.1c-4.2,1.8-9.8,3.3-12.8-1.2
			c0,0,0,0,0-0.1c3-7,7.4-13.2,13.7-18.2C114.3,403.3,113.5,411,117.2,417z M115.7,420.8c-2.8,5.5-3,12.3,0.3,17.7
			c0.2,0.3,0.4,0.6,0.6,0.9c-0.1,0.1-0.3,0.1-0.4,0.2c-2.5,2-5.4,3-8.6,2.9c-3.5-0.1-8.5-1.6-8.4-5.9c0-0.1,0-0.1,0-0.2
			c0.8-6.1,2-12,4-17.5C106.5,422.5,111.2,422.2,115.7,420.8z M118,463.9c4.6,4.4,11.4,5.9,17.4,4.1c-1,4.3-0.5,8.8,1.2,12.9
			c0.8,2,2.2,4.3,3.9,6.3c-5.7-1.4-11.3-3-17.1-4c-1.4-0.2-2.7-0.4-4.1-0.6C113.6,478.2,114.3,470.3,118,463.9z M139.5,480.2
			c-2.1-4.5-2.3-9.5-0.5-14.1c6.6,4.8,15.5,2.8,22.9,0c-2,4.7-3,10-1,14.9c1.4,3.5,4.2,6.4,7.7,7.5c-5.8,1.8-12,1.8-18.3,0.7
			c-0.9-0.2-1.7-0.3-2.6-0.5c-1.4-0.9-2.8-1.6-4-2.8C141.9,484.4,140.5,482.4,139.5,480.2z M163.1,478.3c-0.9-4,0.2-8.2,1.9-11.9
			c0.8,0.9,1.7,1.7,2.7,2.4c7.3,5.3,17.9,3.8,23.9-2.7c0.2-0.3,0.4-0.6,0.4-0.8c0.4,0.2,0.8,0.4,1.3,0.6c-0.1,0.1-0.1,0.1-0.2,0.2
			c-4.7,6.6-9.6,13.4-16.3,18.3c-1.4,1-2.9,1.9-4.4,2.7C167.8,486.6,164.2,482.9,163.1,478.3z M180,455.3c3.9,0,7.7-2.2,10.7-5.1
			c-1.7,5.4-2.2,11.4,3.8,13.7c5.7,2.2,10.1-1.3,13.3-5.7c-1.3,4-1.6,8.4,0.9,11.2c-2.8-0.9-5.6-1.8-8.4-2.7c0,0-0.1-0.1-0.2-0.1
			c-0.3-0.1-0.5-0.1-0.8-0.2c-0.3-0.1-0.7-0.2-1-0.3c0,0-0.1-0.1-0.1-0.1C191.8,462.8,185.8,459.2,180,455.3z M195,461.2
			c-6.1-3.1-1-13,0.8-17.5c1,0.5,2,0.9,3,1.3c-0.1,0.2-0.3,0.5-0.4,0.8c-3.2,1.8-5,8.4-0.4,9.7c3.5,0.9,6.8-3.3,7.2-6.9
			c1.3,0.7,2.7,1.4,4.2,1.9c-0.2,0.1-0.3,0.3-0.4,0.5C206.5,455.9,201.7,464.7,195,461.2z M212.7,451.9c1,0.3,2,0.7,3,1
			c-1,1.1-1.6,2.5-1.9,3.9c-0.3,1.7-0.4,3.9,1.4,4.8c1.4,0.7,3.3,0.1,4.4-1c1.4-1.4,2-3.9,2.2-5.9c3.5,1,7,1.9,10.5,2.6
			c-2,2.9-1.9,8.4,2.4,8.7c1.9,0.2,3.7-1,4.7-2.5c0.6-0.9,1.3-2.6,1.4-4.1c1.4,0.3,2.7,0.6,4.1,0.8c-1.5,5.1-4.2,12.9-10.8,12.1
			c-7.1-0.8-7.1-9.6-6.2-14.9c0.3-1.5-1.8-2.1-2.3-0.6c-1.6,5.4-4.8,14.1-12.1,12.5C205.8,467.9,210.1,456.3,212.7,451.9z
			 M225,464.5c0.4,4.8,2.6,9.3,7.9,10.4c5.3,1.1,8.8-2.1,11.2-6.3c0.3,4.6,2.2,8.7,7.7,9.1c5.1,0.3,8.3-2.8,10.4-6.8
			c1.2,4.4,4.4,7.9,9.7,8.4c5.8,0.5,8.7-3.5,10-8.2c1.2,4.4,3.6,8.3,8.3,9.2c-7.3,0.1-14.7,0-22-0.5c-12.5-0.8-24.9-2.4-37.2-4.9
			c-4.6-0.9-9.1-2-13.6-3.1C220.7,470.9,223.2,467.9,225,464.5z M238.3,496.9c0.2,0.1,0.5,0.1,0.7,0.1c-0.9,5.6-4.3,16.6-11.8,11.9
			c-3-9.2-4-18.9-1.5-29.2C225.2,487.5,230.4,495.1,238.3,496.9z M236,510.4c2.6-1.8,3.9-4.6,4.8-7.6c2,4.3,5.7,7.8,10.3,9.4
			c0,0,0,0.1,0,0.1c-2.5,6.2-8.5,17.1-16.5,12.7c-2.4-4.3-4.6-8.8-6.3-13.3C230.7,512.6,233.6,512,236,510.4z M244.4,526.6
			c3.3-1.8,5.4-4.8,7.1-8.1c1.5,5.2,5.5,9.7,10.7,11.5c-1.5,3.5-3.9,6.4-7.2,8.4c-1.5,0.9-3.2,1.7-4.9,2.1c-0.6,0.2-1.3,0.3-2,0.4
			c-0.3,0-2,0.3-2.9,0.6c-3.2-4.6-6.4-9.3-9.2-14.1C238.7,528.5,241.8,528.1,244.4,526.6z M253.9,542.1c3.9-1.6,7.1-4.3,9.3-7.8
			c3.1,6.1,10.1,10.6,17,11c-7.7,4.4-14.7,9.7-21.2,15.7c-3.8-5.7-8-11.4-12.2-17.3C249.3,543.8,252.6,542.7,253.9,542.1z
			 M272.2,539.5c-3.5-1.9-6.1-4.9-7.2-8.7c0,0,0.1,0,0.1,0c7.9,1.2,15.3-3.7,18.7-10.6c4.1,7.4,13.3,11.8,21.7,9.3c0,0,0,0,0,0
			c-6,5.9-13.4,9.5-20.7,13.3c-0.1-0.1-0.2-0.1-0.3-0.2C280.3,541.3,276.1,541.7,272.2,539.5z M285.2,515.6c0-0.1-0.1-0.2-0.1-0.3
			c6.6-0.4,12.1-4.9,15.8-10.3c1.9,6.1,8.4,10.4,14.9,9.4c-1.6,3.6-3.6,6.9-6,10c-0.4,0.2-0.8,0.4-1.2,0.6c-0.7,0.3-1.3,0.5-1.9,0.9
			c-0.2,0-0.4,0-0.7,0.1C297.5,529,287.8,524.4,285.2,515.6z M303.4,501.5c0.2,0,0.4,0,0.6,0c7.9-0.1,14.3-6.2,16-13.5
			c0.9,7.9-0.1,15.9-2.9,23.4c-0.3-0.1-0.6-0.2-1-0.1C309.8,512.9,303.6,507.8,303.4,501.5z M316,478.6c2.7-1.9,4-5.2,4.2-8.7
			c1.6,3.4,4.2,6.2,7.8,7.1C324,477.6,320,478.1,316,478.6z M319.4,461.9c1.3-0.2,2.5-0.4,3.8-0.6c0,3.2,1.7,9.3,6,7.6
			c3.6-1.4,3.4-6.1,1.5-9c2-0.4,3.9-0.8,5.9-1.3c-0.9,5,2.1,14.8-4.8,16.2C324,476.3,321.3,467.5,319.4,461.9z M376.6,463.1
			c0,0.2,0,0.3,0,0.5c2.2,8.5-0.1,18.4-8.7,22.2c-8.9,4-16.9-2.2-17.8-11.2C359.3,471.5,368.2,467.7,376.6,463.1z M380.2,466.1
			c6.8,3.4,14.9,5.2,21.9,1.8c0,0,0,0,0,0c1.6,14.3-14.1,23.4-25.7,14.8C379.8,478.1,381,472,380.2,466.1z M410.1,451.3
			c5.1,1.8,10.8,1.4,15.4-1.5c4.1,5.6,3.6,14.1-1.9,18.7c-5.6,4.6-14.1,3.5-18.9-1.7c-0.1-0.1-0.2-0.2-0.3-0.2c0,0,0,0,0.1,0
			C409.5,463.1,411.8,456.8,410.1,451.3z M426.5,474.9c4.3,2.5,9.3,3.6,14.4,2.9c2-0.3,4.2-0.8,6.3-1.8c-0.1,6.7-2.1,13-8.3,16.9
			c-6.2,3.9-14.2,3.2-20.1-0.8c0.5-0.2,1-0.4,1.5-0.7C426.6,488,427.2,481.3,426.5,474.9z M405.3,471.3c5.2,3.6,12.2,4.2,17.8,1.3
			c1.1,6.4,1.5,14.2-5.9,16.9c-6.6,2.4-13.1-1.4-18.4-5.2C402.5,481.2,405,476.6,405.3,471.3z M367,489.4c3-0.9,5.5-2.4,7.4-4.3
			c3.1,7.2,6,17.7-1.4,23c-7.6-5.8-14.1-13-19.4-21.1C357.5,489.6,362.7,490.7,367,489.4z M378.5,487.4c6.1,2.8,12.8,1.9,18-1.4
			c2.2,6.5,3,14.3-0.2,20.6c-1.6,3.2-4.2,5.3-7.6,6.3c-2.1,0.6-4.7,0.2-6.7,1c-2.5-1.4-5-3-7.3-4.7
			C382.1,504.6,381.1,495.2,378.5,487.4z M389.9,515.2c3.4-0.9,6.2-2.9,8.1-5.8c3.9-5.9,4.1-13.5,2.6-20.3
			c4.7,2.9,10.2,4.9,15.5,3.9c0,0.4,0,0.9,0.3,1.2c4.7,6,3,14.9-2.1,20c-4.7,4.7-11.3,6.2-17.8,6c-3.7-1.2-7.3-2.7-10.8-4.4
			C387.2,515.8,388.7,515.5,389.9,515.2z M417.2,515.1c4.3-4.9,6-12.1,3.9-18.2c6.3,2.6,13.9,2.3,19.7-1.6
			c6.6-4.3,11.2-13.4,9.2-21.3c0.5-0.4,0.9-0.8,1.2-1.3c0,0.1,0,0.1,0,0.2c0.8,18.1-8.6,34.7-9.9,52.6c-9.8-2.7-19.9-1.4-29.9-2.3
			c-2.8-0.3-5.6-0.7-8.3-1.3C408.6,521.4,413.6,519.2,417.2,515.1z M449.7,468.4c-0.2,5.2-8.3,6.6-12.2,6.5
			c-4.3-0.1-8.4-1.5-11.8-4.2c5.2-4.4,6.8-11.9,4.7-18.2c5.3,2.5,11.4,4.1,16.5,1.2c1.6,4.3,3,8.8,3.8,13.3
			C450.2,467.2,449.8,467.7,449.7,468.4z M428.1,447.8c0.2-0.2,0.4-0.4,0.6-0.6c5.7-6.1,5.6-15.7,0.9-22.2
			c6.3,5.3,10.5,12.5,13.7,20c0.8,1.9,1.7,3.9,2.5,5.9C439.7,453.6,433.6,450.8,428.1,447.8z M426.5,445c-4.9,5.3-13.8,5.8-19.4,1.3
			c-1.5-1.2-3.6,0.7-2.2,2.2c5.8,5.8,1.7,14.4-5.1,17.1c-7.2,2.8-14.7,0-20.9-3.7c0,0,0,0,0,0c17.4-9.7,33.3-22.3,46.8-36.9
			c0.1,0.2,0.2,0.4,0.3,0.6C430.9,430.7,431.4,439.6,426.5,445z M426,411.5c2.3,0.9,4.6,1.4,6.8,0.9c-1.8,2.2-3.6,4.4-5.4,6.5
			C427.8,416.3,427.2,413.8,426,411.5z M421.9,406.5c-0.1-0.1-0.3-0.2-0.4-0.3c0.5-0.7,1.1-1.4,1.6-2.1c1,1.4,2.4,2.4,4,3
			c1.5,0.6,3.8,1,4.9-0.5c2.1-2.9-2.1-6.5-4.8-8.2c0.8-1.1,1.5-2.2,2.3-3.4c3.5,2.8,8.4,7.3,6.1,12.1
			C432.6,412.9,426,409.3,421.9,406.5z M434.7,396.7c4.3,1,8.8,0.8,11.3-3.4c2.9-4.8,0-9.3-3.8-12.5c4.1,1.5,9.3,1.2,12-2
			c-4.6,9.1-9.8,17.8-15.7,26C438.5,401.9,436.8,399.1,434.7,396.7z M461.5,370.5c-0.1,0.5,0,1,0.4,1.3c5.5,5.3,7.2,13.9,3.6,20.8
			c-3.5,6.6-11.1,9.9-18.4,9.1c-0.5-0.4-1-0.8-1.5-1.2c-0.1-0.1-0.3-0.2-0.4-0.2C451.5,390.9,456.9,380.9,461.5,370.5z M467.9,394
			c3.8-6.7,2.9-15-1.3-21.2c6.6,0.2,13.3-3.3,16.5-9.1c10.6,9.9,2.2,26.8-12,25c-1.9-0.2-1.9,2.5-0.4,3.1c6.9,2.8,9.6,11.7,6.2,18.1
			c-0.1,0.1-0.1,0.3-0.1,0.4c-9.2,0.7-18.2-0.9-26.9-6.5C457.2,404,464.4,400.3,467.9,394z M514.5,377.6c7.5-0.2,14.7-6.9,17.2-13.5
			c0.3-0.7,0.5-1.5,0.7-2.2c0.2,0.8,0.4,1.5,0.6,2.3c2.4,8.4,5.6,16.5,9.4,24.4c-8.9,2.2-18.1,6.1-27.4,10
			C520.5,393,519.3,383.9,514.5,377.6z M519.3,343.3c-1.3,7.1-8.3,11.8-15.3,11.3c-1.6-0.1-2.1,2.2-0.8,3c5.4,3.2,7.2,10.6,4.4,16.2
			c-3.1,6.1-10.5,8.7-17,7.8c-0.3,0-0.5,0-0.8,0.1c2.4-5.4,1.6-11.6-1.5-16.5c6.2,0.3,12-4,13.8-10.3c2.3-7.7-1-15-6-20.7
			c5.3,0.2,10.5-2.2,13.6-6.6C515.9,330,520.5,336.5,519.3,343.3z M491.6,329.9c-0.3-0.2-0.7-0.2-1-0.1c1.3-6.3-1.4-12.2-5.8-16.6
			c8.2,2.8,16.2,6.3,23.3,11.1C505.1,330.1,497.7,332.9,491.6,329.9z M487.7,327.4c-0.4,7.1-7.5,13.1-14.5,11c-0.4-0.1-0.8-0.1-1,0
			c2.1-9,3.6-18,4.4-27.2C482.7,314.2,488.1,320.2,487.7,327.4z M472.7,246.9c-1.8-8.5-4.1-16.8-7-25c0.3,0.3,0.8,0.4,1.3,0.2
			c6.6-2.2,14.7,1.1,17,8c2.4,7.2-2.8,15-9.9,16.7c-1.7,0.4-1.3,3.1,0.4,3c7.8-0.5,15.8,5.3,16.4,13.5c0.5,7.5-5.1,14.3-12.3,15.8
			c-0.8,0.2-1.1,0.7-1.1,1.3c-0.1,0-0.2,0-0.3,0C476.5,269,475,257.9,472.7,246.9z M459.6,95.3c-0.3-1.3,0.2-2.4,1.5-3.1
			c0.6-1.7,1.6-2.3,3.1-1.7c2.7,0.8,4.1,3.8,5,6.3c-3.2-0.3-6.5-0.3-9.7,0.1C459.6,96.1,459.7,95.1,459.6,95.3z M507.9,119.6
			c6.4,6.7,11.4,14.9,14.4,23.7c1.5,4.4,2.6,8.9,3.2,13.6c0.5,4.1,0.1,8.2,0.5,12.3c-4.8-1.9-9.8-3.5-14.8-4.7
			c-10.6-2.6-21.4-3.6-32.2-3.1c4-1.3,7.8-3.5,10.9-6.5c6.5-6.2,7.8-15.4,4.2-23.6c-3.7-8.3-12.9-10.2-20.5-5.9
			c-6.3,3.6-11.1,10.1-14.3,16.9c1.7-7.3,2.4-14.8,2.3-22c0-1.5-0.1-3-0.2-4.5c14.1-4.1,27.1,2.6,36.4,13.1
			c4.4,5,7.9,10.7,10.5,16.8c1.2,2.9,2.2,5.9,2.9,9c0.7,3,0.7,6.4,1.8,9.3c0.4,1.1,2.4,1.4,2.6,0c1.1-6.4-2.1-14.6-4.6-20.4
			c-2.9-6.7-7-12.9-12-18.2c-9.4-9.8-24.3-17.6-37.6-11.4c-0.4-5.1-1.2-10.2-2.2-15.3C477.5,100.4,494.7,105.9,507.9,119.6z
			 M471.3,97.1c0.6-2.8,3.2-5.3,6.3-3.6c2,1.1,2.2,3.3,2,5.3C476.9,98,474.1,97.5,471.3,97.1z M482.4,99.7c2.4-5.9,10.5-1.9,7.7,3.1
			C487.6,101.6,485,100.6,482.4,99.7z M492.3,103.9c2.6-2,6.9-4.3,9.1-0.6c1,1.7,0.2,3.9-0.4,6C498.3,107.3,495.4,105.5,492.3,103.9
			z M530.5,151.8c-0.8,0.2-1.6,0.4-2.4,0.6c0,0,0,0,0,0c-0.4-2.1-0.9-4.2-1.5-6.2c1-0.2,1.8-0.7,2.4-1.5c0.9,0,1.7,0.3,2.5,0.7
			c1.6,0.5,2.1,1.5,1.5,3.1C533.5,150.4,532.7,151.5,530.5,151.8z M533,158.8c-0.2,1.4-0.8,2.3-1.7,2.8c-0.6-0.1-1.1-0.1-1.7-0.1
			c-0.1,0-0.2,0.1-0.3,0.1c-0.2-2.1-0.4-4.1-0.7-6c-0.1-0.4-0.1-0.8-0.2-1.1C531.1,154.4,533.3,156,533,158.8z M534.8,167.1
			c0.2,1.3-0.3,2.4-1.2,3.3c-0.9,0.8-1.7,0.8-2.7,0.8c-0.7-0.3-1.4-0.6-2.1-0.9c0.5-1.9,0.7-3.9,0.7-6c1.1,0.1,2.1-0.1,2.9-0.6
			C533.6,164.5,534.5,165.6,534.8,167.1z M527.9,139.5c-0.1,1.9-0.6,3.3-1.9,4.6c-0.3-0.9-0.6-1.8-0.9-2.7c-0.7-2-1.5-3.9-2.4-5.8
			c1.7-0.5,3.8-1.3,5.1,1.2C528.1,137.3,527.9,138.7,527.9,139.5z M521.5,133.3c-1.2-2.4-2.6-4.7-4-6.9c0,0,0.1-0.1,0.1-0.1
			c0.4-0.2,0.9-0.4,1.2-0.7c0.4,0.1,0.9,0,1.7,0.1C525,126.6,523.4,130.6,521.5,133.3z M516.5,124.3c-0.1,0.1-0.2,0.2-0.3,0.2
			c-1.6-2.2-3.3-4.4-5.2-6.4c2.2-1.6,5.6-2,7.2,0.6C519.4,120.9,518.5,123.1,516.5,124.3z M509.3,116.3c-1.9-1.9-3.9-3.7-6.1-5.4
			c1.8-1.6,4.6-3.6,6.7-1.6C512.1,111.3,510.7,114.1,509.3,116.3z M470.2,131.1c6.9-6.5,18.3-8.1,21.9,2.5c2.6,7.5,1,14.8-5,20
			c-5,4.3-11.3,6.4-17.8,6.3c1.9-1.1,3.7-2.2,5.4-3.4c5.6-4,14.9-12.2,11.3-20.1c-1.5-3.3-5.1-4.6-8.6-4c-4.5,0.8-8,4.4-11.2,7.5
			c-2.8,2.7-5.4,5.6-7.9,8.6C461.4,142.1,465.1,136,470.2,131.1z M463.1,146.8c2.6-2.8,5.3-5.6,8.3-8.1c2-1.7,4.4-3.6,7.1-3.8
			c3.7-0.3,6.1,2.8,5.4,6.3c-1.3,7-9.7,12.6-15.5,15.8c-6,3.3-12.5,5.1-18.8,7.5C453.7,158.3,458.1,152.3,463.1,146.8z M467.4,162.5
			c-1.8,0.3-3.6,0.6-5.5,1c1.2-0.5,2.5-1.1,3.7-1.6c0.1,0.3,0.4,0.5,0.8,0.5C466.8,162.5,467.1,162.5,467.4,162.5z M459.8,73.7
			c3.3-0.1,6.7,0.3,10,0.8c4.7,0.8,9.4,2,13.8,3.6c9.6,3.4,18.7,8.7,26.6,15.2c16.5,13.6,27.7,32.3,33.6,52.8
			c1.6,5.7,2.9,11.5,3.7,17.4c0.9,6.1,0.5,12.5,1.7,18.5c-1.5-1.1-3-2.1-4.5-3.1c-3.3-2.2-6.8-4.1-10.4-5.9c1.5-1.1,2.7-3.1,2.8-4.6
			c0.1-2.5-1.3-4.6-3.4-5.7c2.1-2.6,1.7-7.3-1.4-9.3c2.4-1.2,4.3-3.2,3.3-6.1c-0.8-2.4-3.4-3.8-6-3.9c0.7-1.9,0.7-4.2,0.5-5.9
			c-0.4-3.6-2.7-4.8-5.5-4.6c1-1.8,1.5-3.7,0.8-5.7c-0.4-1.1-1.1-2-2.2-2.6c-0.2-0.1-1.8-0.4-3-0.4c1.1-2,1.2-4.7-0.2-6.7
			c-1.7-2.6-4.8-3.2-7.6-2.4c1-2.5,1.2-5.2-1.1-7c-2.6-2.2-5.7-0.9-8,1c0.9-3.2,1.3-6.6-2.1-8.6c-2.9-1.8-6.1-1-8.7,0.7
			c0-2.3-1-4.6-3.3-5.6c-3.1-1.4-6.5,0.3-7.8,3.1c0.1-1.1,0.3-2.3-0.1-3.3c-0.8-1.9-2.4-3.5-4.5-4c-3-0.7-5.6,0.9-6.9,3.4
			c-1.4-3-3.4-5.7-7-5.8c-4.1,0-4.8,2.6-4.9,5.6c-1.5-6.7-3.4-13.4-5.4-20.1C455.1,74.2,457.4,73.8,459.8,73.7z M442.9,50.7
			c6,22.2,15,44.2,15.9,67.4c0.8,19.3-4.3,38.4-18.1,52.3c-0.2,0.1-0.4,0.2-0.6,0.3c-0.3,0.1-0.5,0.4-0.5,0.8
			c-0.1,0.1-0.1,0.1-0.2,0.2c0,0,0,0,0,0c-1.8-2.3-3.7-4.5-5.6-6.7c0-0.1,0.1-0.1,0.1-0.2c7.9-14.6,9.7-31.4,9.3-47.8
			c-0.1-5.2-0.5-10.5-1.1-15.7c0,0,0,0,0,0c0-0.5-0.1-0.9-0.2-1.4c-0.1-0.5-0.2-1-0.3-1.5c-1.6-12.1-4.3-24-8.2-35.6
			c-0.3-0.8-1.2-1.5-2-1.1c-12,4.5-24,5.6-36.7,6.4c-10.3,0.7-20.4,2.1-29.7,6.9c-16.3,8.2-28.9,24.2-31.7,42.4c0,0.1,0,0.2,0,0.4
			c-3.3-0.6-6.5-1.2-9.8-1.7c-0.7-0.1-1.4-0.2-2.1-0.3c0-0.1,0.1-0.1,0.1-0.2c0.9-2.3,1.4-4.7,1.8-7.1c3.2-9,7.2-17.5,13.4-25
			c7.9-9.6,18.2-17,29.8-21.5c1.1-0.4,2.2-0.8,3.3-1.2c0.2,0,0.5-0.1,0.7-0.2C393.8,52.6,419,54.2,442.9,50.7z M315.1,75.1
			c-4.5-7.7-10.3-14.6-16-20.1c-0.5-0.5-1-0.9-1.5-1.3c0.1,0,0.3-0.1,0.4-0.2c9.9-9.8,22.9-16,37.1-14.7
			c13.2,1.2,25.2,8.8,32.4,19.9c-10.7,4-20.4,10.1-28.4,18.2c3.1-4.5,5.1-9.8,5.3-15.3c0.3-7.3-2.7-15.7-11.1-16.1
			c-8-0.3-15,5-17.8,12.3C313.5,63.3,313.6,69.4,315.1,75.1z M288.5,36.9c-1.7,1.6-3.3,3.3-4.4,5.2c-1.8-1.3-3.9-3.5-1.3-5.2
			C284.1,35.9,286.7,36.4,288.5,36.9z M292.2,28.1c2.2-0.5,4.2,0.3,5.8,1.5c-1.7,1.1-3.3,2.2-4.9,3.4c-0.9,0.7-2,1.5-3,2.4
			c-0.1-0.1-0.1-0.1-0.2-0.2C286.7,32.8,289.1,28.9,292.2,28.1z M285.7,43.6c1.3-1,2.4-2.3,3.6-3.4c2-1.9,4.1-3.6,6.4-5.2
			c3.7-2.7,7.8-5,12-6.8c9.4-4.1,19.9-5.8,30.1-4.8c1.8,0.2,3.7,0.5,5.5,0.8c0.3,0.2,0.6,0.3,0.9,0.2c7.4,1.6,14.4,4.7,20.7,8.8
			c4.1,2.7,7.8,5.8,11.1,9.4c3.3,3.5,5.5,7.9,8.7,11.4c-2.3,0.4-4.5,0.9-6.8,1.5c-2.4,0.6-4.7,1.2-7,2c-7.6-12.2-20.7-20.6-35.1-22
			c-14.6-1.4-30.4,4.8-39.2,16.8c-0.1,0.1-0.1,0.2-0.1,0.3c-3.5-3.1-7.3-5.9-11.3-8.4C285.4,44.1,285.7,43.9,285.7,43.6z
			 M308.7,23.5c0.2,0.3,0.4,0.5,0.7,0.5c-0.8,0.3-1.6,0.6-2.4,0.9c-2.5,1-4.8,2.2-7.1,3.6c-0.2-0.2-0.5-0.3-0.7-0.5
			C297.2,21.9,305.3,17.2,308.7,23.5z M310.5,22.4c-0.5-1.2,0-3.5,1-4.4c1.4-1.3,3.2-1.4,4.9-0.6c1.6,0.8,2.5,2.1,3.3,3.6
			c-3.2,0.6-6.4,1.5-9.4,2.7C310.5,23.4,310.7,22.9,310.5,22.4z M328,14.8c2.4,0.5,4,2.7,5,4.8c0,0.1,0.1,0.1,0.1,0.2
			c-3.5-0.1-7.1,0.2-10.6,0.7C321.6,17.2,324.7,14,328,14.8z M334.6,19.8c0.2-0.2,0.4-0.5,0.4-0.8c0.3-5.7,8-4.2,8.2,0.8
			c0,0.3,0,0.6-0.1,0.9c-1.6-0.3-3.2-0.5-4.8-0.7C337.1,20,335.8,19.9,334.6,19.8z M346,21.5C346,21.4,346,21.4,346,21.5
			c3.7-4.8,11.4-2.7,10.4,3.4C353,23.5,349.5,22.3,346,21.5z M358.8,26c1.8-1.6,4.6-2.7,6.9-1.4c2.2,1.2,2.7,4.2,1.4,6.1
			c-0.1,0-0.1-0.1-0.2-0.1C364.4,28.9,361.7,27.3,358.8,26z M376.3,36.1c2.8-1.3,6.6,0,7,3.3c0.3,1.9-0.6,3.3-1.8,4.5
			c-1.1-1.3-2.2-2.5-3.3-3.6c-2.8-3-6-5.8-9.3-8.2c0.3-0.4,0.5-0.7,0.6-1.1c0.5-0.5,1-1,1.6-1.2c0.9-0.1,1.9-0.2,2.8-0.4
			c2.7,1.3,3.1,2.9,1.1,4.8C373.9,35,375,36.7,376.3,36.1z M387,52.6c-0.7-2.4-2.2-4.7-3.9-6.9c0.2-0.2,0.4-0.3,0.6-0.5
			c2.7-0.5,6,0,7.3,2.7c1.4,2.9-2.2,4.1-4.1,5.5C387,53.2,387,52.9,387,52.6z M316.9,62c1.6-7.4,7-13.3,14.8-13.9
			c9.1-0.8,11,9.3,9.7,16.3c-0.9,5-3.2,9.4-6.3,13.3c0.5-1.2,0.9-2.3,1.3-3.5c1.4-4.1,5-19.5-3.2-19.2c-7.2,0.3-11.6,9.2-12.8,15.2
			c-0.8,3.8-1.1,7.8-1.1,11.8C317.3,75.4,315.4,68.8,316.9,62z M330.8,80.8c-2.5,5.6-5.2,11.2-7.4,16.9c-0.3-2.2-0.7-4.4-1.3-6.5
			c-0.2-5-0.3-9.9,0-14.9c0.3-3.6,0.8-7.3,2.3-10.6c1.1-2.5,3.8-6.8,6.8-7.5C340.9,56.2,332.3,77.4,330.8,80.8z M334.1,82.6
			c-0.9,1.1-1.7,2.2-2.5,3.3c0.4-0.9,0.8-1.7,1.2-2.6c0.3,0,0.6-0.1,0.9-0.3C333.8,82.8,333.9,82.7,334.1,82.6z M321,3.6
			c21.8-2.3,43.8,4.8,60.6,18.9c9.4,7.9,16.8,17.7,22,28.8c0,0,0,0.1,0.1,0.1c-3.9,0.4-7.9,0.8-11.8,1.3c1.5-1.5,2.2-3.6,1.3-5.6
			c-1.4-3-4.9-4.3-8.1-4c0.8-1.9,0.9-4.3,0-6.1c-1.3-2.7-4-3.9-6.7-3.8c0.5-1.8,0-3.8-1.8-5.1c-2.1-1.5-4.5-1.2-6.4,0.1
			c0-1.9-0.8-3.8-2.3-5.1c-2.8-2.3-6.5-1.7-9.3,0.1c-0.7-6.4-9.5-9.8-13.2-3.3c0-1.1-0.2-2.1-0.6-3.1c-0.7-1.7-2.1-3.1-3.8-3.7
			c-3-1-6,0.6-7.4,3.1c-2-2.6-5.1-4.4-8.4-3.3c-2.5,0.8-4.1,3.1-4.2,5.6c-1.7-2.8-5-4.7-8.2-3.8c-2.5,0.7-4.1,2.7-4.5,5.1
			c-2.2-1.6-5.2-2.1-7.7-0.6c-2.7,1.6-3.7,4.8-2.9,7.7c-3-1.5-6.4-1.7-9.1,0.7c-2.1,1.9-2.5,4.6-1.5,6.8c-2.8-0.4-6.3-0.2-7.6,2
			c-1.1,1.9,0.4,4,2.2,5.6c-2.8-1.6-5.7-3-8.7-4.3c-2.8-1.2-5.8-2.2-8.8-3.3C278.8,17.7,298.6,6,321,3.6z M240.2,21.6
			c4.7,8.3,13.8,12.2,22.5,15.3c11.1,3.9,21.2,8.8,30.3,16.4c8.2,6.9,15.1,15.3,20.2,24.7c6,11.1,10.4,24.4,5.9,36.7
			c-0.1,0.2-0.1,0.4-0.1,0.5c-4.9-0.7-9.7-1.2-14.6-1.5c0.1-0.2,0.2-0.4,0.3-0.6c4-16.2-1.3-33.9-12.9-45.7
			c-6.5-6.6-14.7-10.3-23.3-13.6c-9.9-3.7-20.5-7.5-26.7-16.6c-0.7-1-2.7-1.1-2.9,0.4c-2.8,17.3-18.7,27.8-27.5,41.8
			c-9.1,14.4-9.1,34,2.4,47.1c-4.6,1.8-9.2,3.8-13.7,6c0-0.2,0-0.5-0.2-0.8c-0.6-1.2-1.3-2.3-2.1-3.4c-7-20-5.5-41.7,5.8-60.1
			C213.9,51.2,229.2,38.1,240.2,21.6z M169.6,86.7c1.8-4.9,6.9-7,11.3-3.7c3.6,2.7,5.3,7.4,6.3,11.7c2.1,8.4,2.9,17,4.9,25.4
			c0.1,0.5,0.5,0.7,0.9,0.8c0.2,0.7,0.4,1.3,0.6,2c0,0-0.1-0.1-0.1-0.1c-3.1-3.3-6.7-6.1-10.7-8.4c-1.6-1.4-3.2-2.9-4.7-4.5
			C172.8,104.2,166.7,94.7,169.6,86.7z M171.3,105.6c-9.4-7-15.1-20.4-5.9-29.9c5.5-5.6,13.1-5.1,18.4,0.4c4.1,4.3,5.1,9.9,5.6,15.6
			c-0.4-1.4-0.9-2.7-1.5-4c-3.3-7.3-12.1-13.3-18.7-5.8C163.3,88.7,166.9,99,171.3,105.6z M192,90.7c-0.6-6.7-2.7-13.5-8-17.8
			c-6-5-13.8-5-19.6,0.4c-5.4,5-7.8,13.2-5.3,20.1c2.1,5.9,8.3,13.1,14.7,15.6c0.4,0.5,0.8,1,1.3,1.5c-6.7-2.8-14-4.4-21.1-5.1
			c-9.9-0.9-19.9-0.1-29.7,1.2c-1.1-11.4,2.3-21.5,8.4-31.1c5.3-8.3,12.3-15.4,20.5-20.9c8.8-5.8,18.8-9.6,29.3-10.9
			c5.1-0.6,10.3-0.7,15.4-0.3c5.9,0.5,11.3,2.5,17.1,3.6c0.9,0.2,1.6-0.5,1.8-1.2c0,0.1,0.1,0.1,0.2,0.2
			c-4.4,5.1-8.7,10.3-12.5,15.8c-0.1,0-0.1-0.1-0.2-0.1c-13.8-5.1-31.3-1.2-43.1,6.9c-10.8,7.4-21.5,20.8-20.8,34.6
			c0.1,1.5,2.3,1.5,2.3,0c0.7-13.3,10.1-25.5,21-32.5c5.4-3.5,11.4-5.8,17.7-7c7.3-1.3,14-0.5,21.2,0.7c-1.3,2-2.5,4.1-3.7,6.2
			C195.7,77,193.3,83.8,192,90.7z M121.9,105.5c-2.9,0.4-7.2,0.5-6.6-3.7c0.4-2.6,3.7-3.5,5.8-4.1
			C121,100.3,121.2,102.9,121.9,105.5z M121.3,95.7c-3.5-2-7.5-5.9-2.5-9.2c1.7-1.1,3.6-1.6,5.6-2C122.9,88.1,121.8,91.9,121.3,95.7
			z M130.5,71.2c-2.3-2-2.6-5.5,0.1-7.4c2.4-1.7,4.9-1.1,7.4-0.2c-3.2,3.5-6.1,7.3-8.6,11.4c-1.3,2.1-2.5,4.4-3.7,6.8
			c-3.9,0.2-5.4-4-3.3-6.8c1.7-2.3,4.5-2.5,7-2C130.4,73,131.3,71.9,130.5,71.2z M140.9,52.7c2.5-0.8,5,0.3,7.1,1.7
			c-3.1,2.3-6,4.9-8.7,7.7c0,0,0,0,0,0c0,0,0,0,0,0c0-0.1,0-0.1,0-0.2C137.7,58.6,136.2,54.3,140.9,52.7z M151.3,46.3
			c2.4-0.6,4.4,0.4,5.9,2.2c-2.3,1.2-4.4,2.5-6.6,4c-0.3,0.2-0.6,0.4-0.9,0.6c0,0,0,0,0,0C147.1,51,148,47.2,151.3,46.3z
			 M162.4,38.7c3.8-1.6,6.4,1,8.5,3.8c0.1,0.1,0.2,0.2,0.3,0.3c-3.8,1.1-7.6,2.5-11.2,4.3C159.4,44.2,159.3,40.1,162.4,38.7z
			 M172.8,41.4c-0.6-1.2,0-3.4,0.9-4.2c1.5-1.4,3.4-1.3,5.1-0.3c1.6,0.9,2.4,2.2,3.1,3.7c-0.2,0-0.4,0-0.6,0.1
			c-2.8,0.4-5.6,1-8.4,1.7C173,42.1,173,41.8,172.8,41.4z M184,39.9c0-2.9,2.4-5.6,5.5-5.1c2.8,0.4,4.7,2.6,5.5,5.2
			c-3.6-0.2-7.3-0.1-10.9,0.3C184.1,40.2,184,40.1,184,39.9z M197.4,40.2c0.5-5.6,7.5-4.8,7.9,0.1c-0.1,0.2-0.2,0.4-0.3,0.7
			c0,0.1,0,0.1,0,0.2c-2-0.3-3.9-0.6-5.8-0.8C198.6,40.3,198,40.2,197.4,40.2z M207.6,39.3c1.8-2.2,4.4-3.7,7.3-2.8
			c1.7,0.5,3.2,1.8,3.6,3.6c0.4,1.9-0.7,3.2-1.6,4.8c0,0,0,0.1-0.1,0.1c-0.1-0.2-0.3-0.5-0.6-0.6c-2.6-1.4-5.6-2.2-8.7-2.9
			C207.6,40.8,207.6,40,207.6,39.3z M125.6,48.9c16.1-17.1,39.2-26.4,62.5-26.7c6.8-0.1,13.6,0.6,20.2,2c7.3,1.6,13.9,4.4,20.8,7.1
			c0.1,0.1,0.3,0.1,0.4,0.1c-2.8,3.4-5.7,6.7-8.6,10.1c-0.2-2.7-2-5.6-4.3-6.7c-3.7-1.6-7.4-0.2-9.7,2.6c-0.8-1.9-2.5-3.4-4.7-3.7
			c-2.7-0.4-5,1.1-6.3,3.3c-1.8-2.9-4.9-5-8.5-4.1c-2.3,0.6-4.1,2.5-4.6,4.6c-1.7-2.6-4.9-4.4-7.9-3.6c-2.4,0.6-4.1,2.6-4.5,4.8
			c-2.4-2.3-5.3-3.8-8.7-2.1c-3.8,2-4.6,6.1-3.6,9.8c-2.5-2.5-6.3-3.4-9.5-1.3c-2.1,1.4-3,3.8-2.5,6.1c-2.8-1-5.9-1-8.3,1.1
			c-2.9,2.6-2.5,6.2-0.4,8.9c-3.4-1.3-7.4-0.9-9.7,2.4c-1.5,2.2-1.5,4.9-0.3,7c-3.7,0.1-7.3,1.9-7.9,6c-0.5,3,1.4,5.4,4,6
			c-3.7,0.6-7.8,2.5-8.9,5.7c-1.2,3.6,1.5,6.2,4.2,8c-3,1.2-6,3.2-5.4,6.9c0.8,4.3,5.4,4.4,8.9,3.5c0,0,0,0.1,0,0.1
			c-1.5,0.2-3,0.4-4.4,0.6c-5,0.7-10,1.6-15.1,2.3C102.6,87.4,110.1,65.5,125.6,48.9z M80.5,112.7c8.8,3.1,19.2,0.3,28.1-1
			c12.5-1.9,25-4,37.6-3.8c19.8,0.2,40.7,7.3,51.2,25.2c0.1,0.2,0.2,0.3,0.4,0.4c-2.5,1.2-4.9,2.5-7.3,3.9c0-0.1,0-0.2-0.1-0.3
			c-3.2-6.8-10.3-11.9-16.9-15.1c-7.1-3.5-15-5.1-22.9-5.2c-9.3-0.1-18.6,1.9-27.4,5.1c-8.8,3.1-19.2,9.9-28.7,5.8
			c-1.2-0.5-2.4,0.3-2.2,1.7c1.6,10.6-3.4,20.8-5.1,31.1c-1.4,8.9-1.5,18.1,0.5,26.9c3.4,14.9,13.3,29.5,28.1,34.7c0,0,0,0,0,0
			c-0.1,0.2-0.1,0.3-0.2,0.5c-1,1.1-1.7,2.7-2.1,4.9c0,0.3-0.1,0.6-0.1,0.9c-0.8,2.3-1.6,4.6-2.3,7c-2.4-1.7-4.8-3.4-7.1-5.2
			c0-0.2,0-0.4-0.1-0.5c-3-4.1-7.4-7.4-11.6-10.4c-1.3-1.5-2.5-3-3.6-4.6c-6.1-8.7-10.2-18.7-11.8-29.1
			C73.5,161.2,83.2,137.1,80.5,112.7z M46.1,170.2c-1.2-2.8-2-7,2-8.2c2.8-0.8,4.7,1,6.3,3c-2.9,1.8-5.7,3.8-8.4,6
			C46.2,170.8,46.2,170.5,46.1,170.2z M45.4,171.5c-3.2,2.7-6.1,5.6-8.8,8.8c-0.7-2.5-1.6-5.1-0.1-7.5c1.9-3,5.2-3.5,8.1-1.4
			C44.8,171.6,45.2,171.6,45.4,171.5z M35.8,181.3c-1.7,2.1-3.3,4.3-4.8,6.6c-0.5,0.8-1,1.6-1.5,2.5c0-0.4-0.1-0.8-0.4-1.1
			c-2.6-1.9-3.3-6.1-0.4-8.2c2.1-1.5,4.4-0.9,6.6,0c0.2,0.1,0.4,0.1,0.5,0C35.7,181.2,35.7,181.2,35.8,181.3z M28.5,191.2
			c0.2,0,0.4,0,0.5-0.1c-2,3.5-3.7,7.2-5.1,11c-2.7-1.2-4.4-4.3-3-7.1C22.3,192,25.4,191,28.5,191.2z M23.1,204.2
			c-1,3.2-1.9,6.5-2.4,9.8c-2.4-0.8-4.5-2.2-4.4-5.1C16.3,205.1,19.9,204.5,23.1,204.2z M19.6,229.3c0.1,3.2,0.4,6.5,1,9.7
			c-3.4-0.2-9.9-1.6-6-6.7C15.7,230.8,17.9,230.1,19.6,229.3z M18.8,227.6c-3.3-0.9-5.8-4.2-4.2-7.6c1.1-2.3,3.3-3.5,5.7-3.7
			c-0.5,3.6-0.8,7.3-0.7,10.9C19.4,227.4,19.1,227.5,18.8,227.6z M21,241.2c0.1,0.7,0.3,1.4,0.5,2.1c0.5,2.4,1.2,4.8,2,7.1
			c-0.1,0-0.1,0-0.2,0c-0.1,0-0.2,0-0.3,0c-3.3,1-7.4-1.1-6.4-5.1C17.2,243.1,19,242.1,21,241.2z M24,251.9c1.1,3.1,2.4,6.1,4,9
			c-0.1,0-0.3,0-0.4,0c-2.3,0.4-7.7,1.4-8.3-2.4C18.7,254.9,21.2,253.2,24,251.9z M28.4,262.4c0.1-0.1,0.1-0.2,0.2-0.3
			c1.7,2.9,3.5,5.7,5.7,8.4c-1.9,1-4.7,2.6-6.6,1.7c-0.9-1.2-1.8-2.4-2.7-3.6l0.8-2.7C26.5,264.5,27.5,263.4,28.4,262.4z M26.6,203
			c7.8-21.2,26.4-37.7,48.1-43.5c-0.5,4.6-0.9,9.2-1,13.8c-0.3-0.1-0.7-0.1-1.1,0C56.8,179.5,44,192,38.1,208
			c-6,16-4.7,36.3,5.3,50.6c-2.5,3.6-4.7,7.3-7,11.1C23.3,249.9,18.2,225.8,26.6,203z M57.5,162.6c-1.9-2.2-1.6-5.6,1.3-6.9
			c2.4-1,4.8,0.2,6.1,2.3c0.1,0.3,0.3,0.7,0.5,1c0.1,0.1,0.1,0.2,0.2,0.3c-2.8,1.1-5.4,2.4-8,3.8C57.6,163,57.7,162.8,57.5,162.6z
			 M67.2,158c-0.1-0.2-0.2-0.3-0.2-0.5c-1-2.3,0.3-5,2.9-5.4c2.9-0.4,4.4,1.7,4.9,4.2c-2.5,0.6-5,1.4-7.5,2.3
			C67.3,158.5,67.3,158.2,67.2,158z M40.9,209.3c5.5-15,17.7-27.1,32.6-32.8c0.1,0,0.1-0.1,0.2-0.1c0.1,4.6,0.5,9.2,1.5,13.8
			c1.4,6.5,3.8,12.8,6.9,18.7c-5.6-5.7-12.6-10.5-20.4-11.5c-8.9-1.1-17.3,3.5-20.4,12c-2.9,8.1,0.8,17.5,8.3,21.7
			c4.5,2.5,10,2.7,15.1,2.7c4.9,0,9.8-0.2,14.7-0.6c-7.9,1.5-15.5,4.8-21.9,9.8c-4.9,3.8-9,8.4-12.6,13.4
			C37.8,241.5,35,225.4,40.9,209.3z M70.9,230.6c1.4,0.3,2.9,0.6,4.3,0.8c-6.5,0.1-13,0.4-19.3-0.9c-8.5-1.8-14.8-10.2-12.6-18.9
			c2.4-9.3,11.8-13.4,20.6-11.1c7.3,1.9,12.2,6.7,17.1,11.7c-2.3-1.2-4.6-2.4-7-3.4c-7.6-3.3-21.4-6.6-24.7,4.4
			C45.7,225.4,62.7,228.9,70.9,230.6z M73.7,228.4c-4.5-0.9-9.3-1.7-13.6-3.3c-5.3-2-11.5-8.4-6.4-13.9c7-7.6,19.9,0,26.9,3.8
			c3.5,1.9,6.8,4.1,10.1,6.4c3.6,4.3,7.7,8.3,12.3,11.6c-1.8-0.5-6.2-0.7-7.1-0.8c-2.5-0.4-5.1-0.8-7.6-1.1
			C83.3,230.3,78.5,229.4,73.7,228.4z M8.4,258.2c-4.1-12.8-5.9-26.5-5.2-39.9c1.4-25.7,13.4-50.4,35.3-64.6
			c12-7.7,25.6-12.4,39.1-16.6c-0.6,5.1-1.3,10.2-2,15.3c-1.6-2.2-4.5-3.4-7.2-2.4c-2.2,0.8-3.5,2.7-3.9,4.8
			c-2.2-1.6-5.2-2.2-7.6-0.3c-2.9,2.2-3.1,6.9-0.1,8.9c0.1,0,0.1,0.1,0.2,0.1c-0.3,0.2-0.7,0.4-1,0.5c-1.5-3.3-5.6-5.1-9.1-3.8
			c-3.9,1.5-4.6,4.9-3.7,8.3c-2.6-0.8-5.5-0.4-7.5,1.9c-2.2,2.5-2.2,5.5-1.2,8.4c-2.9-1.5-6.9-0.4-8.8,2.2c-1.9,2.6-1.5,6,0.3,8.4
			c-3.5,0.5-6.8,2.6-7.5,6.3c-0.5,2.6,0.7,5.4,2.8,6.8c-3.6,0.4-7.2,2.2-7.6,6.1c-0.3,3,1.7,5.1,4.2,6.4c-2.9,1-5.3,3.2-5.6,6.4
			c-0.3,3.2,1.9,6.4,5,7c-3.1,1.5-6.4,3.4-5.8,7.2c0.6,3.4,3.6,4.7,6.6,5.1c-2.6,1.7-4.4,4.1-3.4,7.5c0.8,2.4,2.8,3.8,5,3.9
			c-2.1,1.7-3.3,4.5-2.3,7.3c1.3,3.4,4.7,3.9,7.9,3.6c-2.1,2.9-3.8,6.7-0.8,9.6c3.1,2.9,7.4,1,10.3-1.1c0,0.1,0.1,0.1,0.1,0.2
			c-2.4,4.1-4.8,8.3-7.3,12.3c-0.6,1-1.3,2-1.9,3C18,278.5,12,269.5,8.4,258.2z M11.2,307.7c16.1-11.9,23.4-31.3,34.4-47.3
			c0.3-0.2,0.5-0.5,0.6-0.9c6.6-9.4,15-17.4,26-21.3c12.4-4.4,25.5-3.4,38.1-0.3c0.1,0,0.3,0,0.4,0c-1.4,4.8-2.6,9.6-3.7,14.4
			c-0.2-0.1-0.3-0.1-0.5-0.1c-0.2,0-0.4,0-0.6,0c1.4-0.5,1.7-2.8,0-3.2c-14.8-3.4-30.5,0.7-41.3,11.4c-6.4,6.3-11.8,13.8-17.5,20.8
			c-6.3,7.7-12.6,15.4-18.8,23.1c-0.7,0.9-0.6,1.9,0.3,2.5c14.9,10.5,21.3,28.6,34.5,40.8c11.8,10.9,31.1,16.7,46.4,10.4
			c1.5,5.5,3.3,11,5.3,16.3c-20.2,12.3-45.2-1.2-59.8-16.2C39.2,342.2,28.4,322.1,11.2,307.7z M55,407.3c5.9,9.5,21.1,1.2,27.6-2.8
			c2-1.2,3.9-2.6,5.8-3.9c-11,11.6-29.6,24.7-38.8,8.2c-4.9-8.9-1.4-18.8,7.2-23.7c6.9-4,14.8-3.9,22.5-3.2c-4,1.3-7.7,2.9-11,4.6
			C61.4,389.8,49.1,397.8,55,407.3z M85.4,399.3c-3.6,2.5-7.4,4.8-11.4,6.7c-4.4,2-13.3,5.1-16.7-0.1c-5.8-9,10.8-16.7,16.8-19.3
			c4.3-1.8,8.7-3.1,13.2-3.9c2.6-0.5,5.3-0.7,8-1c3.1,0.1,6.2-0.1,9.2-0.6C99.1,388,92.7,394.2,85.4,399.3z M38.4,406.9
			c7.3,16.6,25,29,43.3,29.3c-0.5,3.9-0.9,7.9-1,11.9c-0.2-0.2-0.4-0.4-0.6-0.4c-5.5-1.6-11.1-1.7-16.6-3.7
			c-5.2-1.9-10.2-4.5-14.8-7.7c-9.3-6.5-16.9-15.6-21.2-26c-9.1-22.1-3.2-47.6,12.3-65.2c2.5,3.2,5.1,6.3,7.7,9.4
			c-0.1,0-0.1,0.1-0.2,0.1c-7.1,6-11,16.1-12.3,25.1C33.5,388.7,34.6,398.3,38.4,406.9z M80.5,450.7c-1.3,1-0.9,3.5-2.7,4.5
			c-1.7,1-4,0.3-5.1-1.2c-1-1.4-1.1-2.9-1.3-4.5c2.8,0.6,5.7,0.9,8.4,0.6C79.6,450.4,80.1,451,80.5,450.7z M69.3,449
			c0,0,0,0.1-0.1,0.1c-0.9,2.9-2.5,7.5-6.7,5.3c-3.1-1.6-2.7-5.2-1.9-8.2c1.3,0.5,2.6,1,3.9,1.4C66.1,448.1,67.7,448.6,69.3,449z
			 M58.7,445.4c-0.2,0.6-0.4,1.3-0.5,1.9c-2.1,2.7-5.7,5.9-7.9,0.8c-0.9-2-0.1-4.5,1-6.4C53.7,443.1,56.2,444.3,58.7,445.4z
			 M21.9,368.5c-2.7-1.8-6.8-5.1-3.3-8.5c2.3-2.3,5.4-1.6,8.3-1.5c-3.9,7.6-6.2,16.2-6.8,24.7c-0.2,0-0.4,0-0.6,0
			c-5.5-3.2-5.6-11.8,1.8-12.7C22.4,370.4,22.8,369.1,21.9,368.5z M38,342.7c0.1,0.2,0.2,0.3,0.4,0.5c-0.1,0-0.1,0.1-0.2,0.1
			c-4.1,3.9-7.5,8.4-10.3,13.4c-0.1-0.3-0.3-0.5-0.6-0.4c-1.6,0.4-2.1-5.2-2.1-5.9c0.1-2.1,0.8-4.2,2.3-5.7c1.3-1.3,3.2-2,5-2
			c1.7,0,2.8,0.8,4.3,1.2C37.5,344,38.2,343.3,38,342.7z M20,385.1c-0.2,3.6,0,7.3,0.5,10.9c0,0.1,0,0.3,0.1,0.4
			c-1.8-1.3-4-2.1-5-4.1C13.7,388.3,16.8,386.1,20,385.1z M20.9,398.8c0.7,3.8,1.7,7.4,3.1,10.9C17.2,410.6,14.8,402.1,20.9,398.8z
			 M25,412.2c1.4,3.1,3,6.1,4.9,9c-2.5,1.3-6,0.8-7.3-1.9C21,416.4,22.8,413.9,25,412.2z M31.4,423.5c2.4,3.3,5,6.4,8,9.2
			c-0.1,0.1-0.2,0.2-0.3,0.3c-3.3,0.9-7.6,1.7-9-2.3C29.2,428.3,30.2,425.7,31.4,423.5z M41.1,434.2c2.6,2.3,5.5,4.5,8.5,6.4
			c-2.5,3.3-7.3,7.3-10.5,2.5C36.8,439.7,38.7,436.6,41.1,434.2z M82.1,471.4c-6.3,0.3-12.3,0.2-18.5-1.4c-6-1.6-11.6-4.1-17-7.1
			c-10.2-5.7-20.9-12.7-27.5-22.6c-3.4-5.1-5.5-10.8-7.2-16.5c-1.9-6.2-3.7-12.4-4.8-18.8c-2.3-13.3-1-26.8,2.3-39.8
			c3.3-12.9,7.7-27.1,17.8-36.4c3.3,4.1,6.5,8.3,9.7,12.5c-3.6-3.2-10.6,0.1-12.6,3.8c-1.4,2.6-1.6,5.9-0.7,8.7
			c0.2,0.8,0.6,1.7,1.2,2.4c-3.8-0.4-7.9,0.7-9.4,4.4c-1.4,3.5,0.9,6.3,3.5,8.4c-6.1,2.6-7.7,11.5-1.3,14.5
			c-2.3,0.8-4.2,2.9-4.6,5.3c-0.9,5,2.6,6.5,5.7,8.8c-2.8,2.1-4.5,5.8-3.2,9.3c1.1,2.9,4.1,4.7,7.1,4.5c-2.4,2-3.3,5.8-2,8.6
			c1.5,3.3,5.1,4.6,8.4,3.9c-1.3,3.1-1.9,6.6,0.3,9.5c2.1,2.7,5.3,2.7,8.2,1.7c-2,3.2-2.1,7.5,0.8,10.3c3.2,3.1,6.8,2.1,9.8-0.2
			c-0.3,2.5,0.3,4.9,2.4,6.5c3,2.2,5.7,0.5,7.7-1.9c0.1,3,1.3,5.7,4.5,7c3.7,1.4,6.1-0.9,7.6-3.8c1.2,3.5,3.7,6.8,7.8,4.6
			c0.7-0.4,1.8-1.6,2.8-3.1c0,2.3,0.1,4.7,0.3,7c0.2,3.2,0.8,6.5,1.4,9.9C82.2,471.4,82.2,471.4,82.1,471.4z M82.1,433
			c-17.4-1.3-33.5-11-40.8-27.3c-3.7-8.2-4.6-17.6-3.2-26.5c1.5-9,5.7-16.1,10.5-23.6c2.9,3.2,5.9,6.3,9.2,9.3
			c7,6.3,15.1,11.5,24,14.3c-10-1.1-20.6-0.9-28.9,5.3c-7.8,5.9-10.2,16.1-5.7,24.8c2.1,4.1,5.7,7.9,10.3,9.1
			c5.1,1.3,10.4-0.4,15-2.5c8-3.6,15.1-9.4,19.9-16.6c-4.4,8.7-7.2,18.3-9.1,27C82.9,428.6,82.5,430.8,82.1,433z M100.5,498.8
			c-4.9-1.2-9.7-2.3-14.6-1.6c2.7-10-0.5-20.3-1.7-30.3c-1.4-11.6-1.1-23.5,0.9-35.1c3.5-20,11.9-43.9,30.7-54.4
			c2,5,4.1,9.9,6.5,14.7C109,398,101,412,97.8,425.6c-4.5,18.9-2.7,39.4-2.5,58.7c0,1.1,1,1.7,2,1.5c7.5-1.5,15.1-1.2,22.6-0.1
			c0.9,0.3,1.9,0.5,2.8,0.5c0.1,0,0.1,0,0.2,0c2.2,0.4,4.4,0.8,6.6,1.3c9.4,2.2,18.7,5.5,28.5,5.9c17.7,0.6,28.8-12.2,38.1-25.5
			c0-0.1,0.1-0.1,0.1-0.2c4.3,1.9,9.1,3.2,13.7,4.5c-0.3,0.1-0.5,0.3-0.7,0.6c-6,9.2-12.5,18.4-21.2,25.3
			c-9.6,7.6-21.3,11-33.5,11.2c-12.4,0.2-24.6-2.6-36.5-5.8C112.2,502,106.4,500.3,100.5,498.8z M229.6,553.1
			c-8.6,7.2-17.9,12.4-29.1,14.4c-8.8,1.5-18,1-26.5-1.8c0,0-0.1,0-0.1,0c-2.1-0.7-4.2-1.5-6.2-2.5c-9.9-4.8-18.2-12.7-23.7-22.2
			c-2.7-4.6-4.7-9.5-6.1-14.7c-1.4-5.3-1.8-10.5-2.6-15.9c0.1,0,0.2,0,0.3,0c0,0,0,0.1,0,0.1c0,0.1,0.1,0.1,0.1,0c0,0,0,0,0,0
			c4.1,0.7,8.2,1.2,12.3,1.5c-1.4,2.6-0.7,6.7-0.2,9.4c0.6,4.1,2,8.1,4,11.8c4,7.6,10.4,14.1,18,18.1c17.2,9.1,38.4,5.5,54.1-4.9
			c1.9,2.2,3.9,4.3,6,6.3C229.8,552.9,229.7,553,229.6,553.1z M231.7,555.1c0.1-0.1,0.2-0.2,0.2-0.3c0.3,0.2,0.5,0.5,0.8,0.7
			c1.7,2.2,1.5,5.4-1.3,7.1c-1.6,1-3.6,1-5.3,0.2c-0.8-0.4-1.3-0.9-1.8-1.5C227,559.5,229.5,557.5,231.7,555.1z M220.6,569.8
			c-2.8,2-5.6-0.4-7.3-2.8c3.1-1.2,6-2.6,8.9-4.3c0,0.1,0.1,0.1,0.2,0.2C222.4,565.4,222.5,568.5,220.6,569.8z M210.4,568.1
			c-0.1,3-0.8,6.6-4.1,7.4c-3.5,0.8-4.6-2.3-5.4-5c1.4-0.2,2.8-0.5,4.2-0.8C206.8,569.2,208.6,568.7,210.4,568.1z M199,571.9
			c-0.7,2.2-3.2,3.4-5.4,4c-1.8,0.5-1.5,0.4-3.6-0.9c-2.2-1.4-2.2-1.7-2.2-3.7c3.6,0.2,7.3,0.1,10.9-0.4
			C198.8,571.2,198.9,571.5,199,571.9z M184.8,571c-1.5,1.8-3.3,4-5.3,4.9c-3.4,1.5-5.4-1.3-5.6-4.2c-0.1-0.9,0.1-1.9,0.2-2.9
			C177.6,569.9,181.2,570.6,184.8,571z M172.2,568.3c-0.1,0.3-0.1,0.5-0.2,0.8c-2.1,1.9-4.9,3-7.6,1.7c-2.8-1.3-3.8-4.6-2.2-7.1
			C165.4,565.5,168.7,567.1,172.2,568.3z M134,521.9c-0.3-0.3-0.7-0.5-1.1-0.4c-3.2,0.7-6.8-2.2-5.9-5.6c0.7-2.9,4.1-4.2,6.8-3.5
			c0.1,0,0.2,0,0.3,0C133.5,515.5,133.6,518.7,134,521.9z M134,523.4c0.1-0.1,0.1-0.2,0.2-0.3c0.6,3.5,1.6,7.1,2.8,10.3
			c-0.1,0-0.2,0-0.4,0.1c-0.1,0.1-0.3,0.2-0.4,0.2c-2.7-0.1-6-0.3-6.1-3.9C130.1,527.1,132.1,525.2,134,523.4z M137.6,534.9
			c0.1,0.3,0.2,0.6,0.4,0.9c1.4,3.3,3.1,6.5,5.1,9.5c0,0,0,0,0,0c-1.9-1-3.1-0.2-5.1-0.1c-3.1,0.2-4.7-2.3-4-5.2
			C134.5,537.8,136.2,536.4,137.6,534.9z M143.4,546.7c0.1-0.2,0.2-0.4,0.1-0.7c2,2.9,4.2,5.7,6.7,8.3c-2.1,0.6-4.5,1.5-6.6,0.6
			C139.9,553.3,141.4,549.3,143.4,546.7z M152.3,556.3c0.6,0.5,1.1,1,1.7,1.6c1.9,1.6,3.9,3.1,6,4.5c-3,1.8-9.6,5.7-9.9,0
			C150,560,151.1,558.2,152.3,556.3z M171.8,549c-7.1-3.6-13-9.4-16.9-16.3c-1.9-3.4-3.4-7.1-4.2-11c-0.4-1.9-0.7-3.9-0.8-5.9
			c-0.1-1.3,0.1-2.5-0.3-3.7c3.7,0.2,7.4,0.1,11.2-0.3c10.7-1.1,20.8-4.9,29.2-11.6c0,0,0.1-0.1,0.1-0.1c-0.2,0.2-0.3,0.4-0.4,0.7
			c-8.4,5.5-17.5,12.8-20.9,22.4c-3.4,9.4,0.2,19.8,9.7,23.7c8.6,3.5,18.5-0.4,23.3-8.1c2.8-4.5,3.6-9.9,4-15
			c0.4-4.9,0.7-9.8,1.1-14.7c1.1,7.2,3.1,14.2,6,20.7c2.4,5.3,5.5,10,9,14.4C207.4,553.6,187.8,557.2,171.8,549z M183.6,540.4
			c10.3,1,15.7-13.5,18.5-21.2c0.8-2.2,1.5-4.4,2-6.6c-0.2,1.9-0.3,3.8-0.5,5.7c-0.4,4.6-0.5,9.3-1.8,13.7
			c-2.8,9.4-12.5,16.3-22.2,12.4c-10.2-4-11.6-15.5-6.8-24.3c3.4-6.1,8.8-10.5,14-15.1c-2.5,4.1-4.8,8.4-6.7,12.6
			C177.3,524,172.5,539.3,183.6,540.4z M201.5,511.8c-1.3,5-3.1,9.9-5.4,14.5c-2.1,4.1-4.9,9.7-9.6,11.2c-3,0.9-6.1-0.3-6.9-3.6
			c-0.6-2.5,0-5.4,0.5-7.9c1.1-4.9,3.5-9.5,6-13.8c4.5-7.9,9.8-15.2,14.8-22.8c1.7-2,3.2-4.1,4.8-6.2
			C205.1,492.8,204,502.5,201.5,511.8z M207.6,481.8c-0.2-0.3-0.4-0.4-0.8-0.5c0.4-0.6,0.9-1.3,1.3-1.9
			C208,480.3,207.8,481.1,207.6,481.8z M213.1,584.5c-12.8,2.6-26.2,2.9-39.1,0.3c-23-4.8-44-19.1-54.4-40.5
			c-5.8-12.1-7.9-25.8-6.1-39.1c3.9,1.1,7.9,2.2,11.8,3.1c2.6,0.6,5.2,1.2,7.9,1.7c-4-0.4-8.2,2.2-8.6,6.5c-0.3,3.7,2.6,6.6,6,7.2
			c-2,2.3-3.6,5.1-2.4,8.2c1.1,2.8,3.7,3.4,6.4,3.2c-2.4,2.3-3.8,5.6-2.5,8.8c0.6,1.4,1.6,2.6,3,3.2c1.8,0.8,3.8-0.4,5.6-0.3
			c-1.9,2.9-3.1,6.5,0.1,9c2.6,2,6,1.4,8.9,0.2c-1.9,2.8-2.5,6.8-1,9.6c2.3,4.2,6.9,2,10.4-0.1c-0.3,2.7,0.9,5.5,3.3,7
			c3.1,1.9,6.6,1,9.2-1.1c-0.1,3,1,5.9,4,7.2c3.9,1.6,7.3-1.8,9.9-4.8c0.8,3.9,3.2,6.1,8,4.8c2.4-0.7,5-2,6.3-3.9
			c1.2,2.1,3.1,3.6,5.8,3.4c4.4-0.4,6.2-4.3,6.7-8.2c2,2.3,4.9,3.9,8.2,2.6c3.5-1.4,3.7-4.6,3.4-7.8c2.8,1.8,7.1,1.5,9.5-0.7
			c1.5-1.4,2.2-3.4,2.2-5.3c3.7,3.7,7.3,7.5,10.7,11.5C238.2,578.7,224.4,582.2,213.1,584.5z M256.8,579.3
			c-5.8-8.6-12.6-16.4-20.1-23.6c-7.7-7.4-15.2-14.7-20.1-24.3c-9.1-17.7-9.5-37.6-5.4-56.7c0.1-0.2,0.2-0.4,0.3-0.5
			c0.4-0.6,0.3-1.1-0.1-1.5c0.2,0,0.3,0.1,0.5,0.1c4.3,1.2,8.6,2.3,12.9,3.3c-0.1,0.1-0.1,0.2-0.2,0.3c-6,14.7-2.5,31.1,4.2,44.9
			c7.5,15.6,19.1,28.6,28.5,43c0.5,0.8,1.7,1,2.4,0.3c8.1-7.9,17.1-14.1,27.1-19.3c8.7-4.5,17.3-9,23.8-16.6
			c11.1-13,15.5-30.9,11.4-47.5c-0.1-0.3-0.2-0.5-0.4-0.7c3.9-0.5,7.8-1.1,11.7-1.8c0,0.3,0,0.6,0.2,0.9c2.7,3.6,2.1,9.3,1.4,14.1
			c-0.3,0.3-0.4,0.8-0.2,1.2c-0.1,0.7-0.2,1.4-0.3,2c-0.8,5.4-2.2,10.7-4,15.8c-3.7,10.4-9.3,20.1-16.4,28.5
			c-7.3,8.5-16.1,15.3-25.9,20.7C277.7,567.7,266.6,572.3,256.8,579.3z M425.8,543.7c-7.4,21.4-24.1,38.9-44.8,48.1
			c-22.4,9.9-49.4,8.3-72.3,0.9c-12.9-4.1-24.7-11-33.9-20.9c5.2-2.6,10.4-5.2,15.5-8c-0.6,1.8-0.7,3.9,0.2,5.2
			c1.9,2.9,4.6,2.3,7,0.8c-0.7,3-0.3,6.1,3.2,7.4c2.7,1,5.4-0.1,7.5-2c-0.2,2,0.4,3.9,2.3,5.3c2.7,1.9,5.2,0.6,7.1-1.4
			c0.5,2.7,2.3,5.1,5.3,5.7c2.4,0.5,4.7-0.6,6.2-2.3c0.9,2,2.6,3.6,4.9,4.1c3.2,0.7,6-1,7.5-3.6c1.3,2.8,3.7,4.9,7.3,4.3
			c3.3-0.5,4.6-3,4.8-5.8c1.1,2.5,3,4.4,6.2,4.2c4.1-0.3,5.3-4.8,5.7-8.9c1.8,2.8,4.6,5.1,7.8,4c3.4-1.1,4.3-4.5,4-7.7
			c2,2.4,5.4,3.2,8,0.3c1.5-1.7,2.8-4.5,2.9-6.9c2.8,1.8,6.1,2.3,8.8-0.4c1.7-1.6,2.4-4,2.1-6.3c-0.1-0.7-0.3-1.4-0.5-2.1
			c1.7,0.4,3.6,0.1,5-1c2.8-2.2,2.7-5.9,0.9-8.5c3.1,0.5,6.3,1.4,7.5-2.5c0.8-2.6-0.2-4.7-1.9-6.3c5.5,1.1,11.1,2.3,16.7,3.3
			C426.3,542.9,426,543.2,425.8,543.7z M447.8,543.7c-12.8-2.2-25.6-4.6-38.3-7.2c-12.3-2.6-25.3-4.6-36.9-9.3
			c-9.9-4-18.5-11-24.7-19.8c-5-7.1-7.9-14.9-9.7-23.2c-0.1-0.9-0.3-1.9-0.6-2.7c-0.2-1-0.4-1.9-0.5-2.9c0-0.3-0.2-0.5-0.5-0.5
			c1.8-0.3,3.7-0.7,5.5-1.1c0.2,0.1,0.5,0.1,0.9,0c0.9-0.3,1.8-0.5,2.7-0.8c0,0.1,0,0.2,0,0.3c6.1,17.6,19.7,31.9,35.9,40.7
			c8.2,4.4,17.1,7.5,26.3,8.8c11.5,1.6,23.4-0.5,34.6,3.2c1,0.3,1.9-0.5,1.9-1.5c0.9-20.2,12.7-38.9,9.7-59.4
			c-1.3-9.3-5-18.5-9-27.1c-3.7-7.9-8.5-15.2-15.6-20.3c0,0-0.1-0.1-0.1-0.1c2.2-2.5,4.3-5,6.3-7.5c0,0.5,0.1,1,0.7,1.3
			c18.2,11.4,26.2,33.2,26.5,53.9C463.3,494.1,454.5,519.3,447.8,543.7z M445.1,417.4c0.4,0.2,0.8,0.4,1.1,0.6
			c-0.1,0.1-0.2,0.2-0.3,0.3C445.7,418,445.4,417.7,445.1,417.4z M448.2,420.5c0.3,0.1,0.6,0.2,0.9,0.2c0,0.1,0,0.2,0.1,0.3
			c0.5,0.8,1,1.6,1.5,2.4C450,422.4,449.1,421.5,448.2,420.5z M516.4,418.3c3.8-1.4,7.5-3,11.3-4.5c2.6,20.7-1.4,42.5-14.2,59.3
			c-11.9,15.7-31,25.4-50.8,25.6c0.8-4,1.5-8,2-12c3.1,0.6,7-0.9,9.9-1.8c3.8-1.2,7.5-2.8,11-4.6c7.4-4,14.1-9.5,19.3-16.1
			C515,451.6,519.9,434.2,516.4,418.3z M531.4,429.1c2.1,0.5,5.5,1.2,6.2,3.3c0.7,2-0.3,4.6-2,5.7c-1.4,0.9-3,1.4-4.7,1.7
			c-0.1-0.1-0.3-0.2-0.5-0.2C531,436.1,531.3,432.6,531.4,429.1z M530.7,414.1c3.4-0.3,6.9,1.4,7.9,5c1.1,4.3-3,8-7.1,7.7
			C531.5,422.5,531.2,418.3,530.7,414.1z M535.1,449.6c-1.3,2.6-4.5,3.3-7,2.3c-0.2-0.1-0.3-0.1-0.5-0.1c1-3.1,1.7-6.3,2.3-9.5
			C533.5,442.4,536.9,446.1,535.1,449.6z M515,478.5c3.4,1.8,2.5,6.3-0.8,7.7c-2.7,1.1-5.3,0.3-7.7-1c3.3-2.8,6.3-6,8.9-9.4
			c2.2-2.8,4.1-5.7,5.8-8.7c1.2,1.5,2.3,3,1.9,5.1c-0.6,3.5-4,5.2-7.3,4.3C514.6,476,513.8,477.9,515,478.5z M522.4,464.9
			c1.8-3.5,3.4-7.2,4.7-11c0.1,0.1,0.1,0.1,0.2,0.2c2.4,1.6,7.1,5.2,5.4,8.8c-1.3,2.8-4.4,3.4-7,2.9
			C524.5,465.5,523.4,465.2,522.4,464.9z M504.9,493.3c-2,2.9-6.1,2.6-8.1-0.3c-0.2-0.2-0.4-0.4-0.6-0.4c2.8-1.6,5.4-3.4,7.9-5.4
			C505.5,489,506.4,491,504.9,493.3z M495,494c1.5,2.7-0.2,5.9-3.1,6.6c-2.7,0.6-5-0.9-6.4-3c3.3-1.2,6.4-2.6,9.5-4.3
			C494.9,493.5,494.9,493.8,495,494z M480.4,504.9c-3.1,0.3-4.9-1.9-5.8-4.6c2.9-0.4,5.8-1.1,8.6-2
			C484.8,500.9,483.9,504.6,480.4,504.9z M472.4,500.6c-0.1,2.6-1,5.6-3.6,6.6c-4.4,1.6-7-2.5-6.3-6.4
			C465.9,501,469.2,500.9,472.4,500.6z M501.6,463.3c-4.7,5.7-10.6,10.3-17,14c-3.4,1.9-7,3.6-10.7,4.9c-2.7,1-6.3,1.4-9,2.9
			c0.8-6.9,1.1-13.8,0.7-20.7c-0.5-9.2-2.7-18.6-6.5-27.1c2.6,3.6,5.2,7.1,8,10.5c3.7,4.5,7.5,9.3,12.1,13c7,5.5,16.1,5.7,22.6-0.7
			c6.4-6.4,6.1-16.6,0.8-23.6c-2.8-3.7-6.8-5.9-11.1-7.5c-2.8-1-5.7-2.1-8.7-3c6.7-0.1,13.4-1.2,20-3c3.6-1,7.1-2.1,10.5-3.4
			C515.9,435.1,511.9,451,501.6,463.3z M499.2,436.3c6.3,6.4,6.8,17.2-0.6,22.9c-8.2,6.3-16.4,1.3-22.6-5.1
			c-6.6-7-12.8-14.4-18.8-22c-0.2-0.3-0.5-0.3-0.7-0.1c-0.5-0.9-1-1.8-1.6-2.7c4.8,6.1,10.5,11.6,16.6,16.4c5.1,4,18,14.3,23.1,4.7
			c4.4-8.3-6.5-16.9-12.5-20.4c-1.5-0.9-3.1-1.7-4.7-2.5C484.9,429.9,493.6,430.6,499.2,436.3z M486.2,436c3.3,2.7,7.6,7.3,6.6,12
			c-2.5,11-21.3-5.4-24.7-8.3c-6.4-5.5-11.9-11.8-17.1-18.4c8.2,2.1,16.3,4.6,24.1,8.1C479,431.1,482.9,433.2,486.2,436z
			 M538.7,471.5c-10.3,18.9-26.5,34.5-46.6,42.5c-11.1,4.4-22.8,6.4-34.7,6.4c1.4-5,2.7-10,3.9-15.1c0.8,2.1,2.7,3.8,5.2,4.1
			c3.9,0.5,6.5-2.3,7.5-5.6c1.9,2.7,5.1,4.3,8.6,2.8c2.6-1.1,3.8-3.7,3.6-6.2c2,1.9,4.9,2.7,7.6,1.5c2.3-1,3.6-3.2,3.7-5.6
			c2.7,1.6,6.3,1.5,8.6-1c1.9-2.1,2.2-5.7,0.8-8.2c3.5,1.9,8,2.2,10.9-1.1c1.8-2.1,2-5,0.7-7.1c2.7-0.3,5.1-1.8,6.3-4.5
			c1-2.4,0.6-5.8-1.1-7.8c3.8,1.3,8.5,1.8,10.5-2.5c1.7-3.7-0.2-7-2.9-9.5c3-0.5,5.6-2.6,6.3-5.7c0.7-3.7-1.8-7-5.1-8.2
			c3.4-0.6,7.1-2.3,7.5-5.8c0.4-3.3-1.8-5.3-4.5-6.6c3.3-1.5,5.7-5,5.2-8.9c-0.6-4.2-4.4-7.2-8.5-7.6c6-2.5,11.9-4.9,18-7
			c0,0.1,0,0.2,0,0.3C553.2,428,549.8,451.1,538.7,471.5z M565.9,397.6c-20.8,3.6-39.4,14.5-59.3,20.9c-10.7,3.5-21.9,5.4-33.1,4
			c-6.2-0.8-12.4-2.3-18.4-4.1c-6.1-1.8-12.1-4-17.2-8c2.2-2.8,4.2-5.7,6.2-8.7c0,0,0,0.1,0.1,0.1c0.2,0.3,0.4,0.5,0.7,0.7
			c0.1,0.1,0.2,0.3,0.3,0.4c11.1,11.6,29.5,12,44.1,8.4c19.3-4.8,36.3-15.9,55.8-20.1c1.1-0.2,1.4-1.5,1-2.4
			c-4.7-9.5-8.3-19.3-11-29.6c-2.4-9-5.1-17.3-10.9-24.7c-11.6-14.8-29.5-22.1-47.1-27.2c-0.1,0-0.2,0-0.3-0.1
			c0.2-2.7,0.3-5.3,0.4-8c0.2,0.4,0.6,0.6,1.1,0.6c13-1.6,25.1,7.1,36.3,12.6c10.7,5.3,18.6,12.8,24.6,23.2
			C550.7,355.2,553.4,378.6,565.9,397.6z M580.9,343.3c-6.7,9.7-15.4,17.3-25.9,22.5c-0.8-2.4-1.7-4.8-2.5-7.3
			c1.7,0.9,3.9,1.1,5.5,0c1.6-1,2.3-2.9,2.1-4.8c1,0.2,2.1,0.1,3.1-0.4c2.8-1.3,3.6-4.2,2.8-6.7c1.7,0.2,3.4-0.4,4.6-1.8
			c1.2-1.5,1.6-3.9,0.7-5.7c2.2,0.9,5.2,0.3,6.7-1.5c1.8-2.2,1.8-4.6,0.7-6.7c0.5-0.3,1-0.7,1.5-1.1c2-2.1,2.1-5,1.1-7.4
			c1.7,0,3.5-0.7,4.5-2.2c2.1-3,0.9-5.9-1.3-8.1c1.4-0.6,2.6-1.9,3.1-3.6c0.8-3-0.6-5.5-2.7-7.1c2.5-0.6,5-1.9,4.8-4.9
			c-0.2-2.6-2.4-4.6-4.8-6c2.2-1.1,3.8-3.2,3.6-5.9c-0.2-3-2.5-5-5.2-5.4c2.8-4.2-0.6-10.6-5.9-11.5c1.6-2,2.4-4.6,0.8-7
			c-1.1-1.6-3.2-2.5-5-2.2c0.7-2.4,0.4-5.1-1.3-7.1c-1.9-2.3-4.8-2.9-7.4-2.2c0.7-2.1,0.5-4.4-1.7-5.9c-1.9-1.3-4.5-1-6.6,0.2
			c0.9-1.7,1.9-3.4,2.8-5c1.7-3.1,3.4-6.2,5.1-9.3c0,0.3,0.1,0.6,0.4,0.8c0.1,0.1,0.2,0.1,0.2,0.2l0,0.1c0,0.1,0.2,0.1,0.2,0
			c16.2,12.8,27.9,30.3,31.3,50.9C599.5,302.6,593,325.8,580.9,343.3z"/>
	</g>
</g>
</svg>
