<?xml version="1.0" encoding="utf-8"?>
<!-- Generator: Adobe Illustrator 23.0.3, SVG Export Plug-In . SVG Version: 6.00 Build 0)  -->
<svg version="1.1" id="Слой_1" xmlns="http://www.w3.org/2000/svg" xmlns:xlink="http://www.w3.org/1999/xlink" x="0px" y="0px"
	 viewBox="0 0 466 547.5" style="enable-background:new 0 0 466 547.5;" xml:space="preserve">
<style type="text/css">
	.st0{display:none;}
	.st1{display:inline;}
	.st2{fill:#0C0C0C;}
	.st3{fill:#ECD1B6;}
	.st4{fill:#017939;}
</style>
<g id="Фон_xA0_Изображение_1_" class="st0">
</g>
<g>
	<g id="Группа_1_1_">
		<g id="Y" class="st0">
			<g class="st1">
				<g>
					<path class="st2" d="M311.4,544h-24.3l0.2-5.6c1.7-47.1,2.6-77.3,2.6-90.5c0-25.5-9.3-53.1-28-82.8
						c-18.7-29.7-37.3-57.2-55.6-82.7c-18.5-25.5-27.7-39.6-27.7-42.4h25.7c0,4.1,15.1,28,45.3,71.6c30.2,43.8,47.4,78.8,51.8,105.2
						h1.9c0.3-10.9,4.9-25,13.9-42.4s19.9-35.6,32.9-54.6c13-19.1,25-36.7,36.1-52.9c11.1-16.3,16.6-25.3,16.6-27h23
						c0,4.7-11.8,22.8-35.3,54.2c-23.5,31.5-42.9,59.7-58.1,84.8c-15.3,25.1-22.9,48.1-22.9,69.3C309.5,478.3,310.2,510.1,311.4,544
						z"/>
					<path d="M321.8,554h-45l0.6-16c1.8-49,2.6-77.7,2.6-90.1c0-23.5-8.9-49.6-26.5-77.5c-17.7-28.1-36.3-55.8-55.3-82.2
						c-29.6-40.8-29.6-44.2-29.6-48.2v-10h45.7v8.8c1.3,3.2,8.2,16.2,43.5,67.1c20.5,29.8,35.1,55.4,44,77.5c1.8-4.3,4-8.8,6.5-13.6
						c9.4-18.1,20.6-36.8,33.5-55.7c15-22.1,26.2-38.4,36.1-52.9c10.5-15.4,13.8-21.1,14.8-23.1v-8.2h43v10c0,4.6,0,10.4-37.3,60.2
						c-23.9,32-42.7,59.5-57.6,84c-14.2,23.4-21.5,44.9-21.5,64.1c0,28.2,0.6,59.4,1.9,95.4L321.8,554z M297.5,534h3.6
						c-0.8-24.2-1.3-46.2-1.5-66.6C299.2,482.5,298.5,504.4,297.5,534z M298,426.8c0.9,5,1.4,9.9,1.7,14.7c0.3-4.8,1-9.7,2-14.7H298
						z M195.7,250c2.9,4.3,6.9,10.1,12.4,17.8c-5.3-8.3-8.6-13.9-10.6-17.8L195.7,250L195.7,250z M409.1,249.9
						c-1.5,2.7-3.7,6.2-6.8,10.9c3.1-4.4,5.5-8,7.3-10.9H409.1z"/>
				</g>
			</g>
		</g>
		<g>
			<g id="e_копия_2">
				<g>
					<g>
						<path class="st3" d="M32.7,523c-1-28.2-1.5-63.2-1.5-105v-64.4c49.4,0,97.2,1,143.5,2.9v-26.3c-34.7,2.3-82.5,3.5-143.5,3.5
							c0-55.6-0.4-105-1.2-148.1c76.6,0,112.6,0.8,155.5,2.3l1.2-23.9H3.8c0.2,2.5,1.2,24.3,2.9,65.3c1.8,41.1,2.6,79.2,2.6,114.6
							c0,34.1-1.2,80.4-3.5,139.1l-2,60.9h404.9l1.2-25.7C350.7,521.4,104.5,523,32.7,523z"/>
						<path class="st3" d="M412,547.4H0.2l2.1-64.5c2.4-60.1,3.5-105.5,3.5-139c0-36.6-0.9-75.1-2.6-114.4
							c-1.7-41.4-2.7-62.8-2.9-65.2L0,160.5h190.4l-1.6,31l-3.4-0.1c-42.9-1.5-78.4-2.3-151.8-2.3c0.7,41.2,1.1,88.6,1.1,141.1
							c58.5,0,105.5-1.2,139.8-3.5l3.7-0.2v33.7l-3.6-0.1c-45.7-1.9-92.7-2.8-139.9-2.9v60.9c0,39.9,0.5,74,1.4,101.5
							c77.9,0,316.3-1.7,373.6-4.8l3.9-0.2L412,547.4z M7.4,540.4h397.9l0.9-18.5c-64.6,3-300.9,4.6-373.5,4.6h-3.4l-0.1-3.4
							c-1-28.1-1.5-63.5-1.5-105.1v-67.9h3.5c47.1,0,94.2,0.9,140,2.8V334c-34.8,2.2-81.8,3.3-140,3.3h-3.5v-3.5
							c0-55.4-0.4-105.2-1.2-148l-0.1-3.6H30c73.9,0,110,0.7,152.2,2.2l0.8-16.8H7.5c0.4,8.1,1.3,28.3,2.7,61.7
							c1.7,39.4,2.6,78,2.6,114.7c0,33.5-1.1,79.1-3.5,139.2L7.4,540.4z"/>
					</g>
				</g>
			</g>
			<g id="Листья_1_">
				<g id="Фигура_1">
					<g>
						<path class="st4" d="M334.7,297.8c-2.9-19.2-18.9-27.6-18.9-27.6l0,0c0.7,3.3,0.4,7.7-1.2,12.2c-1.9,5.4-3.8,7.8-5.4,11
							c-1.7,3.6-2.2,7.6-1.9,9.4c0.9,6.2,4.9,12.6,10.5,14.8c4.4-7.4,6.8-21.4,6-27.7h0.3c-0.1-1,4.4,15.1-4.1,29.6
							c-4.9,8-14.8,11.2-18.3,12.2c-0.3,0.1-0.6,0.3-0.7,0.6c-0.1,0.3-0.1,0.7,0,1c0.3,0.6,0.9,0.9,1.5,0.7
							c14.5-3.1,20.6-12.5,22.4-16.1C331.7,315.8,335.9,305.4,334.7,297.8z"/>
					</g>
				</g>
				<g id="Фигура_2">
					<g>
						<path class="st4" d="M233.5,279.3c0-0.1-0.3-0.4-0.4-0.4c-0.1-0.1-0.4,0-0.6,0c-2,1-7.7,3.4-13.1,1.9
							c-9.6-3-13.9-11.7-13.4-11.1l0.1-0.1c2.1,3.1,8.7,8.3,13.6,9.7c1.6-3.1,0.9-7.4-1.1-10.4c-0.6-0.9-2.3-2.4-4.6-3.3
							c-2-0.7-3.9-1-6.9-2.7c-2.4-1.3-4.4-3.1-5.3-4.9l0,0c0,0-4,9.9,2.3,19.3c2.4,3.7,8.4,6.6,12.6,4.9c2.3,0.9,8.7,2.6,16.6-1.7
							C233.3,280,233.6,279.6,233.5,279.3z"/>
					</g>
				</g>
				<g id="Фигура_3">
					<g>
						<path class="st4" d="M384.2,313.9c-0.1-0.1-0.4-0.3-0.7-0.3c-2.7,0-10.1-0.4-15-5c-8.4-8.5-8.1-20.7-7.9-19.9h0.3
							c0.4,4.8,4.6,14,8.9,18.3c3.5-2.6,5.2-7.8,4.8-12.2c-0.1-1.4-1-4-2.9-6.2c-1.6-1.9-3.5-3.3-5.8-6.6c-1.9-2.9-2.9-5.9-2.9-8.4
							l0,0c0,0-9.8,8.9-8.5,22.9c0.6,5.5,5.2,12.1,10.5,12.2c1.9,2.2,7.8,7.6,18.4,7.1c0.4,0,0.9-0.4,0.9-0.9
							C384.5,314.4,384.3,314.1,384.2,313.9z"/>
					</g>
				</g>
			</g>
			<g id="Y_1_">
				<g>
					<g>
						<path class="st3" d="M348,544h-24.3l0.2-5.6c1.7-47.1,2.6-77.3,2.6-90.5c0-25.5-9.3-53.1-28-82.8
							c-18.7-29.7-37.3-57.2-55.6-82.7c-18.5-25.5-27.7-39.6-27.7-42.4h25.7c0,4.1,15.1,28,45.3,71.6
							c30.2,43.8,47.4,78.8,51.8,105.2h1.9c0.3-10.9,4.9-25,13.9-42.4s19.9-35.6,32.9-54.6c13-19.1,25-36.7,36.1-52.9
							c11.1-16.3,16.6-25.3,16.6-27h23c0,4.7-11.8,22.8-35.3,54.2c-23.5,31.5-42.9,59.7-58.1,84.8c-15.3,25.1-22.9,48.1-22.9,69.3
							C346.1,478.3,346.8,510.1,348,544z"/>
						<path class="st3" d="M351.6,547.5H320l0.3-9.2c1.8-49.1,2.6-77.8,2.6-90.4c0-24.8-9.2-52-27.5-80.9
							c-17.8-28.2-36.4-56-55.5-82.5c-28.2-39.1-28.2-42.5-28.2-44.5v-3.5h32.7v3.4c0.4,2.2,5.7,13.4,44.7,69.7
							c25.6,37.1,42.2,68.5,49.4,93.5c2.2-8.8,6.3-18.8,12.3-30.3c9.2-17.8,20.4-36.3,33.1-55c15-22.1,26.2-38.4,36.1-52.9
							c13.3-19.5,15.6-24.2,16-25.4v-3.2h30v3.5c0,2.7,0,8.2-36,56.3c-24,32.2-43,59.9-57.9,84.5c-14.9,24.4-22.4,47.1-22.4,67.5
							c0,28.3,0.6,59.6,1.9,95.7V547.5z M327.3,540.5h17c-1.2-34.6-1.8-64.8-1.8-92.3c0-21.7,7.9-45.6,23.4-71.1
							c15-24.8,34.1-52.7,58.3-85.1c22.6-30.3,30.6-43.1,33.3-48.6h-15.8c-1.6,3.3-5.7,10.2-16.2,25.5c-9.9,14.5-21,30.8-36.1,52.9
							c-12.6,18.4-23.6,36.6-32.7,54.2c-8.7,16.8-13.2,30.5-13.5,40.9l-0.1,3.4h-8.3l-0.5-2.9c-4.3-25.8-21.5-60.7-51.2-103.8
							c-33.8-48.8-42.7-64.3-45.1-70.1h-17.7c2.7,4.8,9.4,15,25.2,36.8c19.1,26.7,37.9,54.6,55.7,82.9
							c18.9,30.1,28.5,58.6,28.5,84.7c0,12.7-0.8,41.5-2.6,90.6L327.3,540.5z M244.4,240L244.4,240L244.4,240z M436,239.4L436,239.4
							L436,239.4z"/>
					</g>
				</g>
			</g>
			<g id="С_1_">
				<g id="C_копия">
					<g>
						<g>
							<path class="st3" d="M389.6,222.8c-20.7,5.9-31.2,7.7-42.8,7.7c-35.1,0-62.2-9-81.6-27c-19.3-18-29-45-29-80.7
								c0-31.5,9.5-56.9,28.5-76.2s43.6-29,73.7-29c8.3,0,19.3,1.8,33,5.5L375,7.2c-6.2-1.9-11.5-3.2-16-4S349,2,342.5,2
								c-21.5,0-43.6,5.2-62.3,15.7c-18.9,10.5-32.9,25.2-43.8,44.3c-11,19-16.4,41.5-16.4,65.4c0,36.4,12.7,63.8,34.6,84.3
								c21.8,20.5,50.5,28.8,88,28.8c17.6,0,32.7-3.6,49.2-9.2C398.9,228.9,394.8,221.3,389.6,222.8z"/>
							<path class="st3" d="M342.6,242.5c-39.7,0-68.1-9.3-89.4-29.3c-23.4-21.9-35.2-50.7-35.2-85.8c0-24.6,5.8-47.6,16.7-66.4
								c11.4-20,26-34.7,44.6-45c18.3-10.3,40.8-16,63.3-16c6.6,0,12.3,0.4,16.8,1.2c4.7,0.8,10.2,2.2,16.2,4.1l1.8,0.5l-4.5,19.7
								l-2-0.5c-13.3-3.6-24.3-5.4-32.5-5.4c-29.4,0-53.7,9.6-72.3,28.4c-18.5,18.8-27.9,44-27.9,74.8c0,35,9.5,61.7,28.4,79.2
								c18.9,17.6,45.9,26.5,80.2,26.5c11.6,0,22.3-1.9,42.3-7.6c3.9-1.1,7.3,1.4,8.3,4.4c0.9,2.8-0.3,6.4-4.9,7.9
								C378.9,237.8,362.4,242.5,342.6,242.5z M342.5,4c-21.8,0-43.6,5.5-61.3,15.4c-17.9,10-32,24.2-43,43.5
								c-10.6,18.2-16.1,40.5-16.1,64.4c0,33.9,11.4,61.7,34,82.8c20.5,19.3,48,28.3,86.6,28.3c15.5,0,29.5-2.6,48.6-9.1
								c1.1-0.4,2.9-1.3,2.3-2.9c-0.4-1.2-1.8-2.2-3.3-1.7l0,0c-20.4,5.8-31.3,7.8-43.3,7.8c-35.4,0-63.3-9.3-83-27.5
								c-19.7-18.3-29.6-46-29.6-82.2c0-31.9,9.8-58,29.1-77.6s44.6-29.6,75.1-29.6c8.1,0,18.7,1.7,31.5,5l2.7-12.1
								c-5.2-1.5-9.9-2.7-14-3.4C354.3,4.4,348.9,4,342.5,4z"/>
						</g>
					</g>
				</g>
				<g id="Фигура_1_копия">
					<g>
						<g>
							<path class="st4" d="M463.4,128.3c0-0.4,0-0.9,0-1.3c-0.4-3-0.8-6-1.3-9c-0.4-1.5-0.8-3-1.1-4.5
								c-3.3-13.4-9.4-25.3-18.4-35.7c-11-12.6-24.5-21.3-40.4-26.2c-9.6-2.9-19.3-4.1-29.3-3.6c-0.6,0-1.3,0-1.9,0
								c-3,0.4-5.9,0.8-8.9,1.2c-1.4,0.4-2.9,0.8-4.3,1.1c-13.5,3.4-25.3,9.9-35.3,19.5c-12.2,11.8-19.8,26.1-23,42.8
								c-1.1,5.8-1.5,11.7-1.1,17.6c0,0.5,0,1-0.1,1.5c0.4,3,0.8,5.9,1.2,8.9c0.1,0.4,0.3,0.9,0.4,1.3c1.4,6.6,3.8,12.9,7,18.8
								c5.4,9.9,12.7,18.1,22,24.5c12.7,8.7,26.8,13.1,42.2,12.7c9.2-0.2,18-2.4,26.3-6.4c11.2-5.5,20.1-13.6,26.6-24.3
								c6.3-10.3,9.4-21.5,9.2-33.6c-0.1-6.5-1.2-12.7-3.5-18.8c-3.4-9.1-8.7-16.8-16-23.2c-6.1-5.2-12.9-9-20.6-11.3
								c-9.3-2.8-18.7-3.1-28.2-0.7c-5,1.3-9.7,3.3-14.1,6.1c-9.5,6.1-16.1,14.5-19.9,25.1c-3.1,8.7-3.5,17.6-1.1,26.5
								c1.6,5.9,4.3,11.3,8.3,16c3.7,4.4,8.1,7.8,13.2,10.4c5.9,2.9,12.1,4.4,18.7,4.1c6.1-0.2,11.8-1.8,17-5
								c8.4-5.1,13.6-12.5,15.6-22.2c1.2-5.7,0.7-11.4-1.6-16.8c-3.5-8.2-9.7-13.6-18.5-15.5c-7.8-1.7-14.8,0.1-20.2,6.3
								c-4,4.7-5.6,10.2-3.7,16.2c2.2,6.7,8.8,9.9,15.4,7.2c3.8-1.6,5.1-5.6,3.7-9.1c-0.8-1.9-2.1-3.1-4.1-3.3
								c-1.9-0.2-3.4,0.6-4.4,2.2c-0.2,0.4-0.4,0.8-0.6,1.3c-1.3-1.1-1.4-2.5-1.2-3.9c0.8-4.8,5-8.2,10.1-8.1
								c7.1,0.1,13.7,4.9,15.6,12.7c2,8.4-0.7,15.7-6.8,21.5c-7.2,6.8-16,8.4-25.3,5.7c-11.1-3.2-18.3-10.6-21.8-21.6
								c-1.8-5.8-1.9-11.6-0.5-17.5c2.2-9.5,7.2-17.3,15.1-23c8.3-6.1,17.8-8.4,28.1-7.5c7.5,0.7,14.4,3.1,20.6,7.3
								c10.3,6.8,17,16.2,20,28.1c2.3,9.2,1.8,18.3-1,27.3c-2.9,9.3-8,17.3-15.3,23.9c-7,6.4-15.1,10.6-24.2,12.7
								c-8.4,2-16.8,2.1-25.2,0.2c-20-4.7-34.6-16.2-43.4-34.8c-4.6-9.8-6.3-20.2-5.5-30.9s3.9-20.8,9.4-30
								c9.3-15.7,22.8-26.1,40.3-31.4c9.6-2.9,19.4-3.5,29.3-2.2c15.3,2,28.9,8.1,40.6,18.2c12.9,11.1,21.1,25.1,24.8,41.6
								c2,9,2.4,18.1,1.2,27.3c-1.5,11.3-5.1,22-10.9,31.9c-5.4,9.3-12.4,17.3-20.8,24c-3.9,3.1-8.1,5.7-12.4,8.1
								c-1.8,1-2.8,2.5-2.8,4.5c0.1,1.9,1.1,3.3,2.9,4.1c0.5,0.2,1.1,0.3,1.6,0.5c0.5-0.1,1-0.1,1.5-0.2c2.8-1.6,5.7-3.1,8.4-4.8
								c10-6.5,18.5-14.7,25.4-24.5c7.8-11,13-23.2,15.6-36.4C463.4,144.2,463.9,136.3,463.4,128.3z"/>
							<path class="st4" d="M410.9,219.9l-0.6-0.2c-0.2-0.1-0.4-0.1-0.6-0.2c-0.3-0.1-0.7-0.2-1-0.3c-2.6-1.1-4-3.2-4.2-5.9v-0.1
								c0-2.7,1.4-4.9,3.8-6.2c5-2.8,8.8-5.3,12.1-7.9c8.3-6.6,15.1-14.5,20.3-23.4c5.6-9.5,9.2-20,10.6-31.2
								c1.2-8.9,0.8-17.9-1.2-26.6c-3.6-16.2-11.8-29.9-24.2-40.5c-11.4-9.8-24.7-15.8-39.6-17.7c-9.9-1.3-19.5-0.6-28.5,2.1
								c-17.1,5.2-30.2,15.4-39.2,30.5c-5.3,8.8-8.3,18.6-9.1,29.1c-0.8,10.6,1,20.7,5.3,29.9c8.4,17.8,22.6,29.1,42,33.7
								c8,1.8,16.1,1.7,24.3-0.2c8.8-2,16.7-6.1,23.3-12.2c7-6.3,11.9-14.1,14.7-23c2.8-8.9,3.1-17.7,1-26.2
								c-2.9-11.4-9.3-20.4-19.2-26.9c-5.8-4-12.5-6.3-19.7-7c-10.1-0.9-19.1,1.5-26.7,7.1c-7.4,5.3-12.2,12.7-14.3,21.8
								c-1.4,5.7-1.2,11.1,0.5,16.5c3.3,10.5,10.2,17.3,20.4,20.3c9.1,2.6,16.9,0.9,23.4-5.2c5.9-5.6,8-12.2,6.2-19.6
								c-1.6-6.6-7.1-11.1-13.7-11.2c-3.8-0.1-6.9,2.1-7.9,5.5c1.2-0.8,2.6-1.1,4.2-0.9c1.8,0.2,4.3,1.1,5.7,4.5
								c1.9,4.8-0.2,9.8-4.8,11.7c-3.7,1.5-7.5,1.5-10.9-0.1s-5.9-4.5-7.2-8.4c-2-6.4-0.6-12.6,4.1-18.1c5.7-6.5,13.3-8.9,22.1-7
								c9.2,2,16.1,7.8,19.9,16.7c2.4,5.7,3,11.8,1.7,18c-2.1,10.2-7.7,18.1-16.5,23.5c-5.4,3.3-11.4,5.1-18,5.3
								c-6.6,0.3-13.2-1.1-19.6-4.3c-5.5-2.8-10-6.4-13.8-10.9c-4-4.7-7-10.4-8.7-16.8c-2.5-9.2-2.1-18.6,1.1-27.7
								c4-11,10.9-19.8,20.7-26.1c4.5-2.8,9.4-5,14.7-6.4c9.7-2.5,19.6-2.2,29.3,0.7c7.9,2.4,14.9,6.2,21.3,11.7
								c7.5,6.6,13.1,14.7,16.6,24c2.3,6.2,3.5,12.6,3.6,19.5c0.2,12.4-3,24-9.5,34.7c-6.7,11-15.9,19.4-27.4,25.1
								c-8.7,4.2-17.8,6.4-27.1,6.6c-15.5,0.4-30.1-4-43.4-13c-9.4-6.5-17.1-15-22.6-25.2c-3.4-6.2-5.8-12.7-7.2-19.3
								c0-0.1-0.1-0.3-0.1-0.4c-0.1-0.3-0.2-0.6-0.2-0.8v-0.2c-0.2-1.6-0.4-3.1-0.6-4.6l-0.6-4.6l0.1-0.3c0.1-0.3,0.1-0.6,0.1-1
								c-0.4-5.9,0-12,1.1-18c3.3-17.2,11.2-31.9,23.6-43.9c10.2-9.8,22.4-16.5,36.2-20c1.2-0.3,2.6-0.6,4.2-1.1l0.3-0.1
								c1.5-0.2,3-0.4,4.4-0.6c1.5-0.2,3-0.4,4.5-0.6h0.3h1.9c10.2-0.5,20,0.7,29.9,3.7c16.3,5,30.2,14,41.3,26.8
								c9.1,10.5,15.5,22.8,18.8,36.5c0.3,1.5,0.7,3,1.1,4.5v0.2c0.5,3,0.9,6,1.3,9v0.4v1.2c0.5,8,0,16.1-1.4,24
								c-2.7,13.5-8,26-15.9,37.2c-7,10-15.8,18.4-25.9,25c-1.9,1.2-3.8,2.3-5.7,3.3c-0.9,0.5-1.9,1-2.8,1.6l-0.3,0.2l-0.3,0.1
								c-0.3,0.1-0.6,0.1-0.9,0.1c-0.2,0-0.4,0-0.6,0.1L410.9,219.9z M408.6,213.1c0.1,1.1,0.6,1.8,1.7,2.3c0.1,0,0.3,0.1,0.5,0.1
								s0.3,0.1,0.5,0.1c0.1,0,0.2,0,0.4,0c0.1,0,0.2,0,0.3,0c0.8-0.5,1.7-0.9,2.5-1.4c1.8-1,3.7-2.1,5.5-3.2
								c9.7-6.3,18.1-14.4,24.8-24c7.6-10.7,12.7-22.7,15.3-35.6c1.4-7.6,1.8-15.4,1.4-23.1v-0.1V127c-0.4-2.9-0.8-5.8-1.3-8.7
								c-0.4-1.5-0.8-3-1.1-4.5c-3.2-13-9.2-24.7-18-34.8c-10.6-12.2-23.9-20.8-39.5-25.6c-9.4-2.9-18.8-4-28.6-3.5h-1.9
								c-1.5,0.2-2.9,0.4-4.3,0.6s-2.9,0.4-4.3,0.6c-1.7,0.5-3.1,0.8-4.3,1.1c-13.1,3.3-24.6,9.7-34.3,19
								c-11.7,11.4-19.3,25.4-22.4,41.7c-1.1,5.7-1.4,11.5-1.1,17.1v0.1c0,0.5,0,1-0.1,1.5l0.5,4c0.2,1.5,0.4,3,0.6,4.5
								c0,0.1,0.1,0.3,0.1,0.4c0.1,0.3,0.2,0.6,0.2,0.8c1.3,6.3,3.6,12.5,6.8,18.3c5.3,9.7,12.5,17.7,21.4,23.8
								c12.5,8.6,26.3,12.7,41,12.3c8.8-0.2,17.3-2.3,25.5-6.2c10.8-5.3,19.5-13.2,25.8-23.5c6.1-10,9.1-20.9,8.9-32.5
								c-0.1-6.4-1.2-12.4-3.4-18.1c-3.3-8.9-8.4-16.2-15.4-22.4c-6-5.1-12.5-8.7-19.9-10.9c-9-2.7-18.2-2.9-27.1-0.7
								c-4.8,1.3-9.4,3.2-13.5,5.8c-9,5.8-15.4,13.9-19.1,24.1c-3,8.3-3.3,16.9-1.1,25.3c1.6,5.8,4.2,10.9,7.9,15.2
								c3.5,4.1,7.6,7.4,12.6,9.9c5.9,2.9,11.7,4.2,17.7,3.9c5.9-0.2,11.3-1.8,16-4.7c8-4.9,12.8-11.7,14.7-20.9
								c1.1-5.4,0.6-10.6-1.5-15.6c-3.3-7.8-9.1-12.6-17.1-14.3c-7.4-1.6-13.6,0.3-18.3,5.7c-3.8,4.4-4.9,9.3-3.3,14.3
								c0.9,2.7,2.7,4.9,5.1,6c2.3,1.1,5,1.1,7.7,0c2.9-1.2,3.5-4.2,2.6-6.5c-0.7-1.7-1.6-2-2.4-2.1c-1.1-0.1-1.8,0.3-2.5,1.2
								c-0.2,0.3-0.3,0.6-0.5,1.1l-1,2.6l-2.1-1.8c-2.4-2-2-4.8-1.9-5.7c1-5.8,6.1-9.9,12.1-9.8c8.4,0.1,15.5,5.8,17.5,14.2
								c2.1,8.8-0.5,16.9-7.4,23.4c-7.5,7-16.9,9.2-27.2,6.2c-11.6-3.3-19.4-11-23.1-22.9c-1.9-6.1-2.1-12.2-0.5-18.6
								c2.3-10.1,7.7-18.3,15.9-24.2c8.4-6.2,18.3-8.8,29.4-7.9c7.9,0.7,15.2,3.3,21.5,7.6c10.7,7.1,17.7,16.9,20.8,29.3
								c2.3,9.2,2,18.8-1,28.4c-3,9.6-8.3,18-15.9,24.8c-7.2,6.5-15.6,11-25.1,13.2c-8.7,2.1-17.5,2.1-26.1,0.2
								c-20.7-4.9-35.8-17-44.8-35.9c-4.6-9.8-6.5-20.6-5.7-31.9c0.8-11.1,4.1-21.5,9.7-30.9c9.5-16,23.4-26.8,41.4-32.3
								c9.5-2.9,19.7-3.6,30.1-2.3c15.7,2,29.7,8.3,41.6,18.7c13.1,11.2,21.6,25.6,25.4,42.7c2,9.2,2.5,18.6,1.2,28
								c-1.5,11.7-5.3,22.7-11.2,32.7c-5.4,9.4-12.6,17.6-21.3,24.6c-3.5,2.8-7.5,5.4-12.7,8.3C409.2,211.1,408.6,212,408.6,213.1z"
								/>
						</g>
					</g>
				</g>
			</g>
		</g>
	</g>
</g>
</svg>
