<?xml version="1.0" encoding="utf-8"?>
<!-- Generator: Adobe Illustrator 23.0.3, SVG Export Plug-In . SVG Version: 6.00 Build 0)  -->
<svg version="1.1" id="Слой_1" xmlns="http://www.w3.org/2000/svg" xmlns:xlink="http://www.w3.org/1999/xlink" x="0px" y="0px"
	 viewBox="0 0 160 175.3" style="enable-background:new 0 0 160 175.3;" xml:space="preserve">
<style type="text/css">
	.st0{opacity:0.3;}
	.st1{fill:#FFFFFF;}
</style>
<g id="Фигура_1_копия" class="st0">
	<g>
		<g>
			<path class="st1" d="M37.9,19.1c-0.3,0.2-0.8,0.5-1.1,0.7c-2.4,1.9-4.7,3.8-7,5.9c-1.1,1.1-2.1,2.3-3.3,3.3
				C16.8,38.9,9.8,50.4,5.6,63.6c-5,16.1-5.3,32.2-1.2,48.4c2.6,9.7,6.7,18.7,12.4,27c0.3,0.5,0.7,1.1,1,1.6c1.9,2.4,3.8,4.6,5.7,7
				c1.1,1,2.2,2.1,3.2,3.1c10,9.8,21.8,16.4,35.3,20c16.5,4.2,32.8,3.2,48.8-2.9c5.5-2.1,10.8-4.9,15.6-8.3c0.4-0.3,0.9-0.5,1.3-0.7
				c2.4-1.9,4.6-3.8,7-5.7c0.3-0.3,0.6-0.7,0.9-1c4.9-4.7,9-10,12.4-15.9c5.6-9.8,8.8-20.4,9.4-31.7c0.8-15.5-2.9-29.8-11.4-42.8
				c-5-7.8-11.5-14.1-19.3-19.1c-10.6-6.7-22.2-10-34.8-10c-12.1,0-23.4,3.3-33.6,9.8c-5.5,3.5-10.2,7.7-14.3,12.9
				c-6,7.7-9.8,16.3-11.4,25.9c-1.2,8-0.9,15.8,1.2,23.6c2.5,9.4,7.2,17.6,14.3,24.5c3.7,3.6,7.9,6.6,12.6,8.9
				c10.2,4.9,20.9,6.1,32,3.8c9.1-1.9,16.9-6.3,23.3-13c4.2-4.5,7.4-9.6,9.3-15.5c1.8-5.5,2.4-11,2-16.8c-0.6-6.6-2.6-12.7-6.3-18.2
				c-3.4-5.1-7.8-9.2-13.2-11.9c-8.8-4.5-17.9-5.1-27.2-1.7c-5.5,2-10.1,5.4-13.5,10.2c-5.2,7.3-6.5,15.5-3.5,24
				c2.7,7.6,7.9,12.6,16,14c6.1,0.9,11.7-0.6,15.8-5.4c4.6-5.4,3.8-12.7-1.9-17c-3.4-2.4-7.5-1.4-9.7,1.6c-1.2,1.7-1.5,3.4-0.7,5.2
				c0.8,1.7,2.3,2.6,4.2,2.6c0.4,0,0.9-0.1,1.4-0.2c-0.3,1.7-1.4,2.5-2.7,3.1c-4.5,1.8-9.7,0-12.3-4.4c-3.7-6.1-3-14.3,2.7-20
				c6.1-6.1,13.8-7.7,22-5.5c9.6,2.6,15.6,9.3,18.2,18.7c3.1,11.2,0.6,21.3-7,30c-4,4.6-8.9,7.7-14.7,9.6
				c-9.3,3.1-18.6,2.9-27.6-0.8c-9.6-3.9-16.6-10.8-21.2-20.1c-3.4-6.8-4.9-14-4.6-21.5c0.4-12.4,4.9-23.1,13.5-31.9
				c6.7-6.8,14.7-11.2,23.9-13.5c9.5-2.4,19-2.3,28.5,0.5c9.2,2.6,17,7.3,23.6,14c6.1,6.1,10.6,13.3,13.4,21.5
				c6.5,19.6,4.4,38.2-6.9,55.5c-6,9.1-14,16-23.6,21c-9.6,5-19.9,7.6-30.6,7.8c-18.3,0.3-34.4-5.8-48.1-18
				c-7.5-6.7-13.2-14.8-17.3-23.9c-6.3-14.2-8.3-29-5.8-44.3c2.7-16.9,10.4-31.3,22.6-43.1c6.7-6.5,14.2-11.6,22.7-15.4
				c10.5-4.7,21.5-7.2,33.1-7.5c10.8-0.3,21.3,1.5,31.5,5.2c4.7,1.7,9.1,3.9,13.5,6.4c1.8,1,3.6,1.1,5.3,0c1.6-1.1,2.2-2.7,2-4.6
				c-0.1-0.5-0.3-1.1-0.4-1.6c-0.3-0.4-0.6-0.8-1-1.2c-2.8-1.6-5.7-3.2-8.5-4.7c-10.8-5.1-22.3-8.1-34.4-8.8
				C84.7,1.2,71.5,3.2,58.9,7.9C51.5,10.8,44.5,14.5,37.9,19.1z"/>
			<path class="st1" d="M144,15.8l0.1,0.6c0,0.2,0.1,0.4,0.1,0.6c0.1,0.3,0.2,0.7,0.3,1c0.4,2.8-0.6,5.1-2.8,6.7l-0.1,0.1
				c-2.3,1.4-4.9,1.4-7.3,0c-5-2.8-9.2-4.7-13.1-6.2c-10-3.6-20.4-5.3-30.7-5.1c-11.1,0.2-22,2.7-32.3,7.4
				c-8.3,3.7-15.7,8.7-22.1,15C24,47.6,16.6,61.9,14.1,78.1c-2.4,14.9-0.5,29.5,5.7,43.2c4.1,9.2,9.8,17,16.8,23.3
				c13.5,11.9,29.1,17.7,46.8,17.5c10.3-0.1,20.3-2.7,29.7-7.5c9.5-4.9,17.2-11.8,22.8-20.3c10.8-16.6,13-34.7,6.7-53.7
				c-2.7-7.8-7-14.7-13-20.7c-6.3-6.5-14-11.1-22.7-13.5c-9.1-2.7-18.3-2.8-27.4-0.5c-9.1,2.3-16.8,6.7-23,12.9
				C48.3,67.3,44,77.5,43.6,89.4c-0.4,7.1,1.2,14,4.4,20.6c4.5,9.1,11.3,15.6,20.1,19.1c8.4,3.5,17.3,3.8,26.2,0.8
				c5.6-1.8,10.1-4.8,13.9-9.1c7.3-8.4,9.4-17.8,6.6-28.2c-2.6-9.2-8.1-14.9-16.8-17.3c-7.9-2.1-14.7-0.4-20,5
				c-4.8,4.8-5.8,11.9-2.4,17.6c1.9,3.3,5.4,4.8,8.9,3.9c-1.3-0.6-2.3-1.6-3-3.1c-0.8-1.6-1.3-4.3,0.9-7.3c3.1-4.2,8.5-5,12.5-2.1
				c3.2,2.4,5.2,5.6,5.7,9.4c0.4,3.8-0.7,7.4-3.4,10.6c-4.4,5.1-10.5,7.2-17.7,6c-8.6-1.5-14.6-6.7-17.6-15.2
				c-3.1-8.9-1.8-17.9,3.8-25.8c3.6-5.1,8.5-8.8,14.5-10.9c9.8-3.6,19.6-2.9,28.8,1.7c5.7,2.9,10.4,7.1,14,12.6
				c3.7,5.5,6,11.9,6.6,19c0.5,6.2-0.2,11.9-2.1,17.6c-1.9,5.9-5.2,11.5-9.8,16.3c-6.6,7-14.8,11.6-24.3,13.6
				c-11.5,2.4-22.7,1.1-33.2-4c-4.8-2.4-9.2-5.4-13.2-9.2c-7.2-7-12.2-15.6-14.8-25.5c-2.1-8-2.5-16-1.2-24.4
				c1.7-9.9,5.7-19,11.8-26.9c4.1-5.2,8.9-9.6,14.8-13.4c10.5-6.7,22.1-10.1,34.7-10.1c12.9-0.1,25,3.4,35.9,10.2
				c8.2,5.2,14.9,11.9,19.9,19.7c8.5,13.1,12.4,27.9,11.7,44c-0.6,11.5-3.8,22.5-9.7,32.6c-3.5,6.2-7.8,11.7-12.7,16.3
				c-0.1,0.1-0.2,0.2-0.3,0.3c-0.2,0.2-0.4,0.5-0.6,0.6l-0.2,0.1c-1.3,1-2.4,2-3.6,2.9l-3.6,2.9l-0.3,0.1c-0.3,0.1-0.6,0.2-0.9,0.4
				c-4.8,3.5-10.3,6.3-16,8.5c-16.5,6.2-33.2,7.2-50,2.9c-13.8-3.6-25.9-10.5-36.2-20.5c-0.9-0.9-1.9-1.9-3.2-3l-0.2-0.2
				c-1-1.2-1.9-2.4-2.8-3.5c-1-1.2-1.9-2.4-2.9-3.5l-0.2-0.3l-1-1.6c-5.8-8.5-9.9-17.5-12.6-27.5C-1.3,95.9-1,79.3,4.2,63.1
				c4.2-13.3,11.4-25.3,21.3-35.3c1.1-1,2.2-2.2,3.3-3.3l0.2-0.1c2.3-2,4.7-3.9,7-5.9l0.3-0.2l1-0.6C43.9,13,51.1,9.1,58.6,6.2
				c13-4.8,26.5-6.8,40.2-6c12.2,0.7,24.1,3.8,35,9c2,1,4,2,5.8,3.1c0.9,0.5,1.9,1.1,2.8,1.6l0.3,0.2l0.2,0.2
				c0.2,0.2,0.4,0.5,0.6,0.7c0.1,0.2,0.2,0.3,0.4,0.5L144,15.8z M139.4,21.4c0.9-0.7,1.2-1.5,1.1-2.7c-0.1-0.1-0.1-0.3-0.2-0.5
				c-0.1-0.2-0.1-0.3-0.2-0.5c-0.1-0.1-0.1-0.2-0.2-0.3c-0.1-0.1-0.1-0.2-0.2-0.3c-0.8-0.4-1.7-1-2.5-1.4c-1.8-1-3.7-2.1-5.6-3
				c-10.5-5-21.9-7.9-33.6-8.6C84.8,3.3,71.9,5.2,59.4,9.8c-7.2,2.8-14.1,6.6-20.5,11l-0.1,0.1l-1,0.6c-2.3,1.9-4.5,3.7-6.8,5.7
				c-1.1,1.1-2.1,2.3-3.3,3.3c-9.4,9.6-16.3,20.9-20.3,33.7c-4.9,15.5-5.2,31.4-1.1,47.3c2.5,9.6,6.5,18.2,12.1,26.3l1,1.6
				c1,1.2,1.9,2.3,2.8,3.4c0.9,1.1,1.9,2.3,2.8,3.4c1.3,1.2,2.3,2.2,3.2,3.1c9.7,9.5,21.3,16,34.3,19.4c15.9,4,31.9,3.1,47.5-2.8
				c5.5-2.1,10.6-4.9,15.2-8.1l0.1-0.1c0.4-0.3,0.9-0.5,1.3-0.7l3.2-2.5c1.2-1,2.4-1.9,3.5-2.9c0.1-0.1,0.2-0.2,0.3-0.3
				c0.2-0.2,0.4-0.5,0.6-0.6c4.7-4.4,8.8-9.7,12.1-15.5c5.5-9.6,8.6-20,9.1-30.9c0.8-15.2-3-29.2-11.1-41.6
				c-4.8-7.4-11.1-13.6-18.7-18.6c-10.2-6.5-21.6-9.7-33.7-9.7c-11.8,0-22.7,3.2-32.5,9.5c-5.4,3.5-10,7.6-13.7,12.4
				c-5.9,7.5-9.4,15.7-11.1,25c-1.2,7.8-0.9,15.3,1.1,22.8c2.4,9.1,7.1,17.1,13.7,23.6c3.6,3.4,7.7,6.4,12.1,8.5
				c9.7,4.7,20,5.9,30.7,3.7c8.7-1.8,16.2-6.1,22.2-12.4c4.1-4.4,7.1-9.3,8.9-14.8c1.7-5.2,2.3-10.4,1.8-16
				c-0.6-6.6-2.6-12.2-6-17.2c-3.3-4.9-7.5-8.7-12.5-11.2c-8.4-4.3-16.8-4.8-25.6-1.6c-5.2,1.9-9.4,5.1-12.6,9.5
				c-4.9,6.9-6,14.4-3.2,22.2c2.5,7.2,7.4,11.5,14.5,12.7c5.8,0.9,10.5-0.7,14-4.7c1.8-2.2,2.8-4.9,2.5-7.5
				c-0.3-2.5-1.7-4.9-4.1-6.6c-2.6-1.9-5.4-0.8-6.9,1.2c-1.1,1.5-0.9,2.4-0.5,3.2c0.5,1,1.2,1.4,2.3,1.5c0.4,0,0.7-0.1,1.2-0.2
				l2.8-0.5l-0.4,2.7c-0.4,3.1-3.1,4.2-3.9,4.6c-5.5,2.2-11.7,0-14.8-5.2c-4.3-7.2-3.2-16.3,2.9-22.5c6.4-6.4,14.7-8.5,23.9-6
				c9.9,2.7,16.8,9.6,19.6,20c3.3,11.7,0.8,22.4-7.4,31.8c-4.2,4.8-9.3,8.2-15.7,10.2c-9.9,3.4-19.7,3-29.1-0.9
				c-9.7-3.9-17.2-11-22.2-21c-3.6-7.1-5.2-14.8-4.8-22.4c0.4-12.9,5.1-24.1,14.1-33.2c6.7-6.8,15-11.6,24.8-14.1
				c9.8-2.5,19.8-2.4,29.6,0.6c9.4,2.7,17.6,7.6,24.5,14.5c6.4,6.3,11,13.9,13.9,22.2c6.7,20.3,4.3,39.6-7.1,57.3
				c-6,9.1-14.2,16.4-24.3,21.7c-9.9,5.2-20.6,7.8-31.6,8c-18.7,0.3-35.3-5.9-49.5-18.4c-7.5-6.6-13.5-15-17.8-24.6
				C9.3,108.5,7.3,93.2,10,77.5c2.7-17.1,10.5-32,23.2-44.2c6.8-6.6,14.6-11.9,23.3-15.8c10.8-4.9,22.2-7.4,33.9-7.6
				c10.9-0.3,21.7,1.5,32.3,5.3c4.2,1.5,8.6,3.6,13.8,6.5C137.4,21.9,138.4,22,139.4,21.4z"/>
		</g>
	</g>
</g>
</svg>
