<?xml version="1.0" encoding="utf-8"?>
<!-- Generator: Adobe Illustrator 23.0.3, SVG Export Plug-In . SVG Version: 6.00 Build 0)  -->
<svg version="1.1" id="Слой_1" xmlns="http://www.w3.org/2000/svg" xmlns:xlink="http://www.w3.org/1999/xlink" x="0px" y="0px"
	 viewBox="0 0 170 174.7" style="enable-background:new 0 0 170 174.7;" xml:space="preserve">
<style type="text/css">
	.st0{opacity:0.3;}
	.st1{fill:#ECD1B6;}
</style>
<g id="Фигура_1_копия" class="st0">
	<g>
		<g>
			<path class="st1" d="M168.2,82.5c0-0.4,0-0.9,0-1.3c-0.4-3-0.8-6-1.3-9c-0.4-1.5-0.8-3-1.1-4.5c-3.3-13.5-9.4-25.4-18.5-35.8
				c-11-12.7-24.6-21.4-40.6-26.3C97.1,2.7,87.3,1.5,77.3,2c-0.6,0-1.3,0-1.9,0c-3,0.4-5.9,0.8-8.9,1.2c-1.4,0.4-2.9,0.8-4.3,1.1
				c-13.6,3.4-25.4,9.9-35.4,19.6c-12.3,11.7-20,26-23.2,42.8c-1.1,5.8-1.5,11.7-1.1,17.7c0,0.5,0,1-0.1,1.5c0.4,3,0.8,5.9,1.2,8.9
				c0.1,0.4,0.3,0.9,0.4,1.3c1.4,6.6,3.8,13,7,18.9c5.4,9.9,12.8,18.2,22.1,24.6c12.8,8.7,26.9,13.2,42.4,12.8
				c9.2-0.2,18.1-2.4,26.4-6.4c11.2-5.5,20.2-13.7,26.7-24.4c6.3-10.3,9.4-21.6,9.2-33.7c-0.1-6.5-1.2-12.8-3.5-18.9
				c-3.4-9.1-8.7-16.9-16.1-23.3c-6.1-5.2-13-9-20.7-11.3c-9.3-2.8-18.8-3.1-28.3-0.7c-5,1.3-9.7,3.3-14.2,6.1
				C45.5,45.9,38.8,54.4,35,65c-3,8.6-3.4,17.6-1,26.5c1.6,5.9,4.3,11.3,8.3,16.1c3.7,4.4,8.1,7.8,13.3,10.4
				c5.9,2.9,12.2,4.4,18.8,4.1c6.1-0.2,11.8-1.8,17.1-5c8.4-5.1,13.7-12.6,15.7-22.3c1.2-5.7,0.7-11.4-1.6-16.9
				C102,69.7,95.8,64.3,87,62.4c-7.8-1.7-14.9,0.1-20.3,6.3c-4,4.7-5.6,10.2-3.7,16.3c2.2,6.7,8.8,9.9,15.5,7.2
				c3.8-1.6,5.1-5.6,3.7-9.1c-0.8-1.9-2.1-3.1-4.1-3.3c-1.9-0.2-3.4,0.6-4.4,2.2c-0.2,0.4-0.4,0.8-0.6,1.3c-1.3-1.1-1.4-2.5-1.2-3.9
				c0.8-4.8,5-8.2,10.1-8.1c7.1,0.1,13.8,4.9,15.7,12.8c2,8.4-0.7,15.8-6.8,21.6c-7.2,6.8-16.1,8.4-25.4,5.7
				c-11.1-3.2-18.4-10.6-21.9-21.7c-1.9-5.9-2-11.8-0.6-17.7c2.2-9.5,7.2-17.4,15.2-23.1c8.3-6.1,17.9-8.4,28.2-7.5
				c7.5,0.7,14.5,3.1,20.7,7.3c10.3,6.8,17.1,16.3,20.1,28.2c2.3,9.2,1.8,18.4-1,27.4c-2.9,9.3-8,17.4-15.4,24
				c-7,6.4-15.2,10.6-24.3,12.8c-8.4,2-16.9,2.1-25.3,0.2c-20.1-4.7-34.7-16.3-43.6-34.9c-4.6-9.8-6.3-20.3-5.5-31
				s3.9-20.9,9.4-30.1C30.8,29.4,44.4,19,62,13.7c9.6-2.9,19.5-3.5,29.4-2.2c15.4,2,29,8.1,40.8,18.3c13,11.1,21.2,25.2,24.9,41.8
				c2,9,2.4,18.2,1.2,27.4c-1.5,11.3-5.1,22.1-10.9,32c-5.4,9.3-12.5,17.4-20.9,24.1c-3.9,3.1-8.1,5.7-12.5,8.1
				c-1.8,1-2.8,2.5-2.8,4.5c0.1,1.9,1.1,3.3,2.9,4.1c0.5,0.2,1.1,0.3,1.6,0.5c0.5-0.1,1-0.1,1.5-0.2c2.8-1.6,5.7-3.1,8.4-4.8
				c10-6.5,18.6-14.8,25.5-24.6c7.8-11,13.1-23.3,15.7-36.6C168.2,98.4,168.7,90.5,168.2,82.5z"/>
			<path class="st1" d="M115.5,174.4l-0.6-0.2c-0.2-0.1-0.4-0.1-0.6-0.2c-0.3-0.1-0.7-0.2-1-0.3c-2.6-1.1-4-3.2-4.2-5.9v-0.1
				c0-2.7,1.4-4.9,3.8-6.2c5-2.8,8.8-5.3,12.2-7.9c8.3-6.6,15.2-14.6,20.4-23.5c5.6-9.5,9.2-20.1,10.6-31.3c1.2-8.9,0.8-18-1.2-26.7
				c-3.6-16.3-11.8-30-24.3-40.7c-11.4-9.8-24.8-15.9-39.8-17.8c-9.9-1.3-19.6-0.6-28.6,2.1C45,20.9,31.8,31.1,22.8,46.3
				c-5.3,8.8-8.3,18.7-9.1,29.2c-0.8,10.6,1,20.8,5.3,30c8.4,17.9,22.7,29.2,42.2,33.8c8,1.8,16.2,1.7,24.4-0.2
				c8.8-2,16.8-6.1,23.4-12.3c7-6.3,11.9-14.2,14.8-23.1c2.8-8.9,3.1-17.8,1-26.3c-2.9-11.4-9.3-20.5-19.3-27
				c-5.8-4-12.6-6.3-19.8-7c-10.1-0.9-19.2,1.5-26.8,7.1c-7.4,5.3-12.3,12.8-14.4,21.9C43.1,78.1,43.3,83.5,45,89
				c3.3,10.5,10.2,17.4,20.5,20.4c9.1,2.6,17,0.9,23.5-5.2c5.9-5.6,8-12.3,6.2-19.7c-1.6-6.6-7.1-11.1-13.8-11.2
				c-3.8-0.1-6.9,2.1-7.9,5.5c1.2-0.8,2.6-1.1,4.2-0.9c1.8,0.2,4.3,1.1,5.7,4.5c1.9,4.8-0.2,9.8-4.8,11.7c-3.7,1.5-7.5,1.5-10.9-0.1
				s-5.9-4.5-7.2-8.4c-2-6.4-0.6-12.7,4.1-18.2c5.7-6.5,13.4-8.9,22.2-7c9.2,2,16.2,7.8,20,16.8c2.4,5.7,3,11.8,1.7,18.1
				c-2.1,10.2-7.7,18.2-16.6,23.6c-5.4,3.3-11.4,5.1-18.1,5.3c-6.6,0.3-13.3-1.1-19.7-4.3c-5.5-2.8-10-6.4-13.9-10.9
				c-4-4.7-7-10.4-8.7-16.9c-2.5-9.2-2.1-18.7,1.1-27.8c4-11,10.9-19.9,20.8-26.2c4.5-2.8,9.4-5,14.8-6.4c9.7-2.5,19.7-2.2,29.4,0.7
				c7.9,2.4,15,6.2,21.4,11.7c7.5,6.6,13.2,14.8,16.7,24.1c2.3,6.2,3.5,12.7,3.6,19.6c0.2,12.5-3,24.1-9.5,34.8
				c-6.7,11-16,19.5-27.5,25.2c-8.7,4.2-17.9,6.4-27.2,6.6c-15.6,0.4-30.2-4-43.6-13.1c-9.4-6.5-17.2-15.1-22.7-25.3
				c-3.4-6.2-5.8-12.8-7.2-19.4c0-0.1-0.1-0.3-0.1-0.4c-0.1-0.3-0.2-0.6-0.2-0.8v-0.2c-0.2-1.6-0.4-3.1-0.6-4.6L0,86.1l0.1-0.3
				c0.1-0.3,0.1-0.6,0.1-1c-0.4-5.9,0-12.1,1.1-18.1c3.3-17.3,11.2-32,23.7-44.1C35.2,12.8,47.5,6,61.4,2.5c1.2-0.3,2.6-0.6,4.2-1.1
				l0.3-0.1c1.5-0.2,3-0.4,4.4-0.6c1.5-0.2,3-0.4,4.5-0.6h0.3H77c10.2-0.5,20.1,0.7,30,3.7c16.4,5,30.3,14.1,41.5,26.9
				c9.1,10.5,15.6,22.9,18.9,36.7c0.3,1.5,0.7,3,1.1,4.5v0.2c0.5,3,0.9,6,1.3,9v0.4v1.2c0.5,8,0,16.2-1.4,24.1
				c-2.7,13.6-8,26.1-16,37.4c-7,10-15.9,18.5-26,25.1c-1.9,1.2-3.8,2.3-5.7,3.3c-0.9,0.5-1.9,1-2.8,1.6l-0.3,0.2l-0.3,0.1
				c-0.3,0.1-0.6,0.1-0.9,0.1c-0.2,0-0.4,0-0.6,0.1L115.5,174.4z M113.2,167.6c0.1,1.1,0.6,1.8,1.7,2.3c0.1,0,0.3,0.1,0.5,0.1
				s0.3,0.1,0.5,0.1c0.1,0,0.2,0,0.4,0c0.1,0,0.2,0,0.3,0c0.8-0.5,1.7-0.9,2.5-1.4c1.8-1,3.7-2.1,5.5-3.2
				c9.7-6.3,18.2-14.5,24.9-24.1c7.6-10.7,12.8-22.8,15.4-35.7c1.4-7.6,1.8-15.5,1.4-23.2v-0.1v-1.2c-0.4-2.9-0.8-5.8-1.3-8.7
				c-0.4-1.5-0.8-3-1.1-4.5c-3.2-13.1-9.2-24.8-18.1-34.9c-10.6-12.3-24-20.9-39.7-25.7c-9.4-2.9-18.9-4-28.7-3.5h-1.9
				c-1.5,0.2-2.9,0.4-4.3,0.6s-2.9,0.4-4.3,0.6c-1.7,0.5-3.1,0.8-4.3,1.1c-13.2,3.3-24.7,9.7-34.4,19.1C16.4,36.6,8.7,50.6,5.6,67
				c-1.1,5.7-1.4,11.5-1.1,17.2v0.1c0,0.5,0,1-0.1,1.5l0.5,4c0.2,1.5,0.4,3,0.6,4.5c0,0.1,0.1,0.3,0.1,0.4c0.1,0.3,0.2,0.6,0.2,0.8
				c1.3,6.3,3.6,12.6,6.8,18.4c5.3,9.7,12.6,17.8,21.5,23.9c12.6,8.6,26.4,12.8,41.2,12.4c8.8-0.2,17.4-2.3,25.6-6.2
				c10.8-5.3,19.6-13.3,25.9-23.6c6.1-10,9.1-21,8.9-32.6c-0.1-6.4-1.2-12.5-3.4-18.2c-3.3-8.9-8.4-16.3-15.5-22.5
				c-6-5.1-12.6-8.7-20-10.9c-9-2.7-18.3-2.9-27.2-0.7c-4.8,1.3-9.4,3.2-13.6,5.8c-9,5.8-15.5,14-19.2,24.2c-3,8.3-3.3,17-1.1,25.4
				c1.6,5.8,4.2,10.9,7.9,15.3c3.5,4.1,7.6,7.4,12.7,9.9c5.9,2.9,11.7,4.2,17.8,3.9c5.9-0.2,11.3-1.8,16.1-4.7
				c8-4.9,12.9-11.7,14.8-21c1.1-5.4,0.6-10.6-1.5-15.7c-3.3-7.8-9.1-12.7-17.2-14.4c-7.4-1.6-13.7,0.3-18.4,5.7
				c-3.8,4.4-4.9,9.3-3.3,14.4c0.9,2.7,2.7,4.9,5.1,6c2.3,1.1,5,1.1,7.7,0c2.9-1.2,3.5-4.2,2.6-6.5c-0.7-1.7-1.6-2-2.4-2.1
				c-1.1-0.1-1.8,0.3-2.5,1.2c-0.2,0.3-0.3,0.6-0.5,1.1l-1,2.6l-2.1-1.8c-2.4-2-2-4.8-1.9-5.7c1-5.8,6.1-9.9,12.2-9.8
				c8.4,0.1,15.6,5.8,17.6,14.3c2.1,8.8-0.5,17-7.4,23.5c-7.5,7-17,9.2-27.3,6.2c-11.6-3.3-19.5-11-23.2-23
				C39.6,84.2,39.4,78,41,71.6c2.3-10.1,7.7-18.4,16-24.3c8.4-6.2,18.4-8.8,29.5-7.9c7.9,0.7,15.3,3.3,21.6,7.6
				c10.7,7.1,17.8,17,20.9,29.4c2.3,9.2,2,18.9-1,28.5s-8.3,18.1-16,24.9c-7.2,6.5-15.7,11-25.2,13.3c-8.7,2.1-17.6,2.1-26.2,0.2
				c-20.8-4.9-36-17.1-45-36.1c-4.6-9.8-6.5-20.7-5.7-32c0.8-11.1,4.1-21.6,9.7-31c9.5-16.2,23.5-27,41.6-32.5
				c9.5-3,19.7-3.7,30.2-2.4c15.8,2,29.8,8.3,41.8,18.8c13.2,11.2,21.7,25.7,25.5,42.9c2,9.2,2.5,18.7,1.2,28.1
				c-1.5,11.7-5.3,22.8-11.2,32.8c-5.4,9.4-12.7,17.7-21.4,24.7c-3.5,2.8-7.5,5.4-12.8,8.3C113.8,165.6,113.2,166.5,113.2,167.6z"/>
		</g>
	</g>
</g>
</svg>
